<?xml version="1.0" encoding="UTF-8" standalone="no"?>
<!DOCTYPE svg  PUBLIC '-//W3C//DTD SVG 1.1//EN'  'http://www.w3.org/Graphics/SVG/1.1/DTD/svg11.dtd'>
<svg xmlns="http://www.w3.org/2000/svg">
<defs>
<font id="FiraCode-Regular" horiz-adv-x="600">
<font-face underline-position="0" font-weight="400" descent="-200" panose-1="2 11 5 9 5 0 0 2 0 4" units-per-em="1000" unicode-range="U+000D-1F310" bbox="-282 -500 1712 1050" x-height="526" underline-thickness="50" font-family="FiraCode" ascent="800" cap-height="688"/>
<missing-glyph d="M247 85q0 15 10 25t25 10t25 -10t10 -25q0 -16 -10 -26.5t-25 -10.5t-25 10.5t-10 26.5zM307 173q0 -11 -7.5 -17.5t-17.5 -6.5t-17.5 6.5t-7.5 17.5v84q53 3 72 19.5t19 57.5q0 33 -13 51t-48 18q-29 0 -52 -11q-7 -3 -13 -3q-24 0 -24 23q0 19 29.5 29t63.5 10 q111 0 111 -115q0 -104 -95 -118v-45zM456 998h-311v-1296h311v1296zM510 1050v-1400h-420v1400h420z"/>
<glyph glyph-name="colon_colon" horiz-adv-x="1200" unicode="::" d="M339 70q0 33 23 56.5t57 23.5t57.5 -23.5t23.5 -56.5q0 -34 -23 -57.5t-58 -23.5q-34 0 -57 23t-23 58zM789 70q0 33 23 56.5t57 23.5t57.5 -23.5t23.5 -56.5q0 -34 -23 -57.5t-58 -23.5q-34 0 -57 23t-23 58zM339 431q0 33 23 56.5t57 23.5t57.5 -23.5t23.5 -56.5 q0 -34 -23.5 -58t-57.5 -24t-57 24t-23 58zM789 431q0 33 23 56.5t57 23.5t57.5 -23.5t23.5 -56.5q0 -34 -23.5 -58t-57.5 -24t-57 24t-23 58z"/>
<glyph glyph-name="hyphen_greater" horiz-adv-x="1200" unicode="-&gt;" d="M1100 310l-271 -304l-62 52l144 158q33 38 63 57h-873v74h873q-20 13 -31 23t-32 34l-144 158l62 52z"/>
<glyph glyph-name="hyphen_greater_greater" horiz-adv-x="1800" unicode="-&gt;&gt;" d="M1384 310l-271 -304l-62 52l144 158q33 38 63 57h-1157v74h1157q-20 13 -31 23t-32 34l-144 158l62 52zM1699 312l-271 -304l-62 52l224 252l-224 252l62 52z"/>
<glyph glyph-name="equal_equal" horiz-adv-x="1200" unicode="==" d="M1094 180h-988v72h988v-72zM1094 370h-988v72h988v-72z"/>
<glyph glyph-name="numbersign_parenleft" horiz-adv-x="1200" unicode="#(" d="M358 234l30 222h-147l-29 -222h146zM428 234h310q-9 54 -9 116q0 53 8 106h-279zM987 -140q-92 75 -149 148t-84 162h-335l-21 -170h-71l22 170h-146l-22 -170h-71l23 170h-80v64h88l30 222h-81v65h90l22 167h71l-24 -167h148l22 167h71l-24 -167h285q26 92 83.5 166.5 t152.5 152.5l43 -46q-115 -101 -164.5 -197.5t-49.5 -246.5t50 -247t164 -197z"/>
<glyph glyph-name="period_period" horiz-adv-x="1200" unicode=".." d="M288 77q0 36 25 61.5t62 25.5q38 0 63 -25.5t25 -61.5q0 -38 -25 -63t-63 -25q-37 0 -62 25t-25 63zM738 77q0 36 25 61.5t62 25.5q38 0 63 -25.5t25 -61.5q0 -38 -25 -63t-63 -25q-37 0 -62 25t-25 63z"/>
<glyph glyph-name="plus_plus" horiz-adv-x="1200" unicode="++" d="M392 128h-78v148h-169v70h169v149h78v-149h414v149h78v-149h171v-70h-171v-148h-78v148h-414v-148z"/>
<glyph glyph-name="numbersign_underscore" horiz-adv-x="1200" unicode="#_" d="M358 234l30 222h-147l-29 -222h146zM303 -181l46 351h-146l-22 -170h-71l23 170h-80v64h88l30 222h-81v65h90l22 167h71l-24 -167h148l22 167h71l-24 -167h81v-65h-89l-30 -222h82v-64h-91l-35 -279h823v-72h-904z"/>
<glyph glyph-name="less_equal" horiz-adv-x="1200" unicode="&lt;=" d="M860 -131l-598 240l26 66l596 -241zM292 271v85l598 238l28 -69l-544 -212l544 -212l-28 -68z"/>
<glyph glyph-name="greater_greater" horiz-adv-x="1200" unicode="&gt;&gt;" d="M663 356v-85l-444 -214l-32 64l393 192l-393 193l32 65zM1063 356v-85l-444 -224l-32 64l393 202l-393 203l32 65z"/>
<glyph glyph-name="equal_equal_equal" horiz-adv-x="1800" unicode="===" d="M1694 180h-1588v72h1588v-72zM1694 370h-1588v72h1588v-72z"/>
<glyph glyph-name="period_period_period" horiz-adv-x="1800" unicode="..." d="M288 77q0 36 25 61.5t62 25.5q38 0 63 -25.5t25 -61.5q0 -38 -25 -63t-63 -25q-37 0 -62 25t-25 63zM1338 77q0 36 25 61.5t62 25.5q38 0 63 -25.5t25 -61.5q0 -38 -25 -63t-63 -25q-37 0 -62 25t-25 63zM812 77q0 36 25 61.5t62 25.5q38 0 63 -25.5t25 -61.5 q0 -38 -25 -63t-63 -25q-37 0 -62 25t-25 63z"/>
<glyph glyph-name="less_less" horiz-adv-x="1200" unicode="&lt;&lt;" d="M587 271v85l444 215l32 -65l-393 -193l393 -192l-32 -64zM187 271v85l444 225l32 -65l-393 -203l393 -202l-32 -64z"/>
<glyph glyph-name="greater_equal" horiz-adv-x="1200" unicode="&gt;=" d="M920 109l-598 -240l-24 65l596 241zM890 356v-85l-598 -238l-28 68l544 212l-544 212l28 69z"/>
<glyph glyph-name="less_hyphen" horiz-adv-x="1200" unicode="&lt;-" d="M372 6l-271 304l271 304l62 -52l-144 -158q-21 -24 -32 -34t-31 -23h872v-74h-872q30 -19 63 -57l144 -158z"/>
<glyph glyph-name="less_less_hyphen" horiz-adv-x="1800" unicode="&lt;&lt;-" d="M687 6l-271 304l271 304l62 -52l-144 -158q-21 -24 -32 -34t-31 -23h1157v-74h-1157q26 -16 63 -57l144 -158zM373 8l-272 304l272 304l61 -52l-225 -252l225 -252z"/>
<glyph glyph-name="slash_asterisk" horiz-adv-x="1200" unicode="/*" d="M888 362l152 63l25 -80l-158 -36l110 -120l-68 -52l-87 141l-81 -143l-71 47l107 127l-160 36l26 80l150 -63l-14 164h84zM135 -73l428 882l66 -32l-427 -880z"/>
<glyph glyph-name="equal_greater" horiz-adv-x="1200" unicode="=&gt;" d="M1100 310l-271 -304l-62 52l51 65q33 38 63 57h-775v72h825l62 59l-62 59h-825v72h773q-20 13 -31 23t-32 34l-49 63l62 52z"/>
<glyph glyph-name="slash_greater" horiz-adv-x="1200" unicode="/&gt;" d="M1042 313l-473 292l-343 -708l-67 30l428 882l66 -32l-51 -105l511 -316v-85l-380 -238l-45 62z"/>
<glyph glyph-name="asterisk_slash" horiz-adv-x="1200" unicode="*/" d="M366 362l152 63l25 -80l-158 -36l110 -120l-68 -52l-87 141l-81 -143l-71 47l107 127l-160 36l26 80l150 -63l-14 164h84zM571 -73l428 882l66 -32l-427 -880z"/>
<glyph glyph-name="slash_slash" horiz-adv-x="1200" unicode="//" d="M127 -76l428 882l66 -32l-427 -880zM579 -73l428 882l66 -32l-427 -880z"/>
<glyph glyph-name="exclam_equal" horiz-adv-x="1200" unicode="!=" d="M672 370l-69 -118h437v-72h-480l-122 -206l-72 36l103 170h-309v72h352l70 118h-422v72h465l129 217l70 -35l-109 -182h325v-72h-368z"/>
<glyph glyph-name="exclam_exclam" horiz-adv-x="1200" unicode="!!" d="M378 122q28 0 47.5 -19.5t19.5 -46.5q0 -28 -19.5 -47.5t-47.5 -19.5t-47 19t-19 48q0 27 19 46.5t47 19.5zM825 122q28 0 47.5 -19.5t19.5 -46.5q0 -28 -19 -47.5t-48 -19.5q-28 0 -47 19t-19 48q0 27 19 46.5t47 19.5zM415 227h-75l-10 461h93zM862 227h-75l-10 461h93 z"/>
<glyph glyph-name="less_less_equal" horiz-adv-x="1800" unicode="&lt;&lt;=" d="M101 312l271 304l62 -52l-224 -252l224 -252l-62 -52zM415 312l271 304l62 -52l-51 -65q-33 -38 -63 -57h1065v-72h-1115l-62 -59l62 -59h1115v-72h-1063q20 -13 31 -23t32 -34l49 -63l-62 -52z"/>
<glyph glyph-name="less_equal_greater" horiz-adv-x="1800" unicode="&lt;=&gt;" d="M1328 252v-72h-856v72h856zM1328 442v-72h-856v72h856zM513 530l-354 -217l354 -219l-45 -61l-380 238v85l384 238zM1712 356v-85l-380 -238l-45 62l354 218l-354 218l41 63z"/>
<glyph glyph-name="colon_equal" horiz-adv-x="1200" unicode=":=" d="M981 172h-488v72h488v-72zM219 203q0 33 23 56.5t57 23.5t57.5 -23.5t23.5 -56.5q0 -35 -23 -58t-58 -23q-34 0 -57 23t-23 58zM981 388h-488v72h488v-72zM219 429q0 33 23 56.5t57 23.5t57.5 -23.5t23.5 -56.5q0 -34 -23.5 -58t-57.5 -24t-57 24t-23 58z"/>
<glyph glyph-name="equal_less_less" horiz-adv-x="1800" unicode="=&lt;&lt;" d="M1181 47l-272 137l3 -4h-753v72h556l81 -12l-144 73l134 68l-72 -11h-555v72h748l274 139l32 -65l-393 -203l393 -202zM1137 271v85l444 215l32 -65l-393 -193l393 -192l-32 -64z"/>
<glyph glyph-name="greater_greater_equal" horiz-adv-x="1800" unicode="&gt;&gt;=" d="M888 180l3 4l-272 -137l-32 64l393 202l-393 203l32 65l274 -139h748v-72h-555l-72 11l134 -68l-144 -73l81 12h556v-72h-753zM663 356v-85l-444 -214l-32 64l393 192l-393 193l32 65z"/>
<glyph glyph-name="exclam_equal_equal" horiz-adv-x="1800" unicode="!==" d="M672 370l-69 -118h1037v-72h-1080l-122 -206l-72 36l103 170h-309v72h352l70 118h-422v72h465l129 217l70 -35l-109 -182h925v-72h-968z"/>
<glyph glyph-name="less_greater" horiz-adv-x="1200" unicode="&lt;&gt;" d="M206 313l393 -244l395 244l-393 243zM600 -20l-465 291v85l465 289l465 -289v-85z"/>
<glyph glyph-name="equal_slash_equal" horiz-adv-x="1800" unicode="=/=" d="M1025 370l-69 -118h684v-72h-727l-122 -206l-72 36l103 170h-662v72h705l70 118h-775v72h818l129 217l70 -35l-109 -182h572v-72h-615z"/>
<glyph glyph-name="ampersand_ampersand" horiz-adv-x="1200" unicode="&amp;&amp;" d="M850 62h-91l-160 329l-160 -329h-89l213 403h74z"/>
<glyph glyph-name="bar_bar" horiz-adv-x="1200" unicode="||" d="M350 464h91l160 -329l160 329h89l-213 -403h-74z"/>
<glyph glyph-name="equal_greater_greater" horiz-adv-x="1800" unicode="=&gt;&gt;" d="M1699 312l-271 -304l-62 52l224 252l-224 252l62 52zM1385 312l-271 -304l-62 52l51 65q33 38 63 57h-1065v72h1115l62 59l-62 59h-1115v72h1063q-20 13 -31 23t-32 34l-49 63l62 52z"/>
<glyph glyph-name="less_hyphen_hyphen" horiz-adv-x="1800" unicode="&lt;--" d="M101 310l271 304l62 -52l-144 -158q-33 -38 -63 -57h1472v-74h-1472q20 -13 31 -23t32 -34l144 -158l-62 -52z"/>
<glyph glyph-name="hyphen_hyphen_greater" horiz-adv-x="1800" unicode="--&gt;" d="M1699 310l-271 -304l-62 52l144 158q33 38 63 57h-1472v74h1472q-20 13 -31 23t-32 34l-144 158l62 52z"/>
<glyph glyph-name="asciitilde_at" horiz-adv-x="1200" unicode="~@" d="M830 380q-67 0 -93.5 -47.5t-26.5 -148.5q0 -167 80 -167q25 0 43.5 8.5t31 26t17.5 26.5t12 27v260q-29 15 -64 15zM1039 -91q-57 0 -88 48.5t-30 94.5h-4q-40 -98 -137 -98q-77 0 -113.5 62t-36.5 168q0 128 50.5 192.5t145.5 64.5q71 0 140 -37v-295q0 -75 19 -103.5 t52 -28.5q23 0 36.5 20.5t19 72t6.5 91.5t1 123q0 62 -4.5 109t-18.5 93t-37 75.5t-62 47.5t-93 18h-6q-45 0 -74 -2.5t-73 -18.5t-75 -47q-16 -16 -31 -52t-31 -87t-25 -72q-20 -49 -67 -84.5t-108 -35.5q-40 0 -74.5 25t-63.5 50t-55 25q-53 0 -99 -85l-59 30q18 36 35 60 t51 45.5t75 21.5q34 0 64 -15.5t47.5 -34.5t39.5 -34.5t42 -15.5q31 0 60 21.5t47 60.5q4 10 21 60t36.5 96.5t37.5 64.5q33 34 67.5 55t73.5 29.5t65 10.5t68 2h10q75 0 130.5 -24.5t87.5 -62.5t51 -95t25.5 -111.5t6.5 -121.5q0 -201 -30 -288.5t-116 -87.5z"/>
<glyph glyph-name="numbersign_question" horiz-adv-x="1200" unicode="#?" d="M877 122q28 0 47.5 -19.5t19.5 -46.5q0 -28 -19 -47.5t-48 -19.5q-28 0 -47 19t-19 48q0 27 19 46.5t47 19.5zM253 170l-22 -170h-71l23 170h-80v64h88l30 222h-81v65h90l22 167h71l-24 -167h148l22 167h71l-24 -167h131q0 2 3.5 13t14.5 31t25 36q84 99 209 99 q88 0 142.5 -46.5t54.5 -108.5q0 -37 -13.5 -66t-33.5 -45.5t-43 -35t-43 -34t-33.5 -42.5t-13.5 -61v-34h-84v39q0 45 18.5 79t44.5 55.5t52 40.5t44.5 43.5t18.5 55.5q0 42 -33 66t-86 24q-82 0 -142 -73q-40 -51 -45 -101h-196l-30 -222h82v-64h-91l-21 -170h-71l22 170 h-146zM408 234l30 222h-147l-29 -222h146z"/>
<glyph glyph-name="equal_colon_equal" horiz-adv-x="1800" unicode="=:=" d="M706 180h-546v72h546v-72zM706 370h-546v72h546v-72zM1640 180h-546v72h546v-72zM820 198q0 33 23 56.5t57 23.5t57.5 -23.5t23.5 -56.5q0 -34 -23.5 -57.5t-57.5 -23.5t-57 23t-23 58zM1640 370h-546v72h546v-72zM820 424q0 33 23 56.5t57 23.5t57.5 -23.5t23.5 -56.5 q0 -34 -23.5 -58t-57.5 -24t-57 24t-23 58z"/>
<glyph glyph-name=".notdef" d="M247 85q0 15 10 25t25 10t25 -10t10 -25q0 -16 -10 -26.5t-25 -10.5t-25 10.5t-10 26.5zM307 173q0 -11 -7.5 -17.5t-17.5 -6.5t-17.5 6.5t-7.5 17.5v84q53 3 72 19.5t19 57.5q0 33 -13 51t-48 18q-29 0 -52 -11q-7 -3 -13 -3q-24 0 -24 23q0 19 29.5 29t63.5 10 q111 0 111 -115q0 -104 -95 -118v-45zM456 998h-311v-1296h311v1296zM510 1050v-1400h-420v1400h420z"/>
<glyph glyph-name=".null" horiz-adv-x="0"/>
<glyph glyph-name="nonmarkingreturn" horiz-adv-x="333"/>
<glyph glyph-name="CR" unicode="
"/>
<glyph glyph-name="space" unicode=" "/>
<glyph glyph-name="exclam" d="M299 122q28 0 47.5 -19.5t19.5 -46.5q0 -28 -19 -47.5t-48 -19.5q-28 0 -47 19t-19 48q0 27 19 46.5t47 19.5zM336 227h-75l-10 461h93z" unicode="!"/>
<glyph glyph-name="quotedbl" d="M164 739h105l-16 -260h-73zM331 739h105l-16 -260h-73z" unicode='&quot;'/>
<glyph glyph-name="numbersign" d="M428 234h82v-64h-91l-21 -170h-71l22 170h-146l-22 -170h-71l23 170h-80v64h88l30 222h-81v65h90l22 167h71l-24 -167h148l22 167h71l-24 -167h81v-65h-89zM358 234l30 222h-147l-29 -222h146z" unicode="#"/>
<glyph glyph-name="dollar" d="M346 698q106 -11 183 -80l-51 -53q-56 53 -132 64v-229q41 -13 72.5 -29.5t59.5 -41.5t43.5 -60.5t15.5 -79.5q0 -75 -49.5 -129.5t-141.5 -66.5v-146h-68v143q-121 8 -209 94l50 55q71 -72 159 -79v278q-90 30 -136.5 76t-46.5 114q0 64 47.5 112.5t135.5 57.5v150h68 v-150zM346 64q101 21 101 124q0 44 -22.5 74t-78.5 53v-251zM278 627q-94 -17 -94 -98q0 -36 20.5 -60.5t73.5 -46.5v205z" unicode="$"/>
<glyph glyph-name="percent" d="M436 256q-32 0 -51.5 -25t-19.5 -75q0 -48 20 -75.5t51 -27.5q32 0 50.5 25.5t18.5 77.5q0 100 -69 100zM436 316q67 0 106.5 -46.5t39.5 -113.5t-39.5 -114.5t-106.5 -47.5q-68 0 -108 47.5t-40 114.5t40 113.5t108 46.5zM166 640q-31 0 -50.5 -25.5t-19.5 -75.5 q0 -48 19.5 -75.5t50.5 -27.5q32 0 51 26t19 77q0 101 -70 101zM166 700q68 0 107.5 -46.5t39.5 -114.5q0 -67 -39.5 -114t-107.5 -47q-67 0 -107 47t-40 114q0 68 40 114.5t107 46.5zM559 672l-475 -692l-52 35l474 692z" unicode="%"/>
<glyph glyph-name="ampersand" d="M283 354q-72 0 -110 -47.5t-38 -108.5q0 -60 36 -101t108 -41q87 0 129 53v245h-125zM279 699q98 0 167 -75l-50 -45q-52 57 -118 57q-52 0 -79 -27.5t-27 -74.5q0 -46 36 -80.5t87 -34.5h278v-65h-89v-273q-73 -92 -208 -92q-109 0 -165.5 60.5t-56.5 145.5 q0 77 40.5 126.5t116.5 65.5v3q-121 28 -121 144q0 69 52 117t137 48z" unicode="&amp;"/>
<glyph glyph-name="quotesingle" d="M248 739h104l-15 -260h-74z" unicode="&apos;"/>
<glyph glyph-name="parenleft" d="M212 350q0 -150 50 -247t164 -197l-43 -46q-65 53 -109.5 101.5t-80 107t-52 128t-16.5 153.5t16.5 153.5t52 128t80 107t109.5 101.5l43 -46q-115 -101 -164.5 -197.5t-49.5 -246.5z" unicode="("/>
<glyph glyph-name="parenright" d="M388 350q0 150 -49.5 246.5t-164.5 197.5l43 46q65 -53 109.5 -101.5t80 -107t52 -128t16.5 -153.5t-16.5 -153.5t-52 -128t-80 -107t-109.5 -101.5l-43 46q114 100 164 197t50 247z" unicode=")"/>
<glyph glyph-name="asterisk" d="M327 362l152 63l25 -80l-158 -36l110 -120l-68 -52l-87 141l-81 -143l-71 47l107 127l-160 36l26 80l150 -63l-14 164h84z" unicode="*"/>
<glyph glyph-name="plus" d="M338 346h146v-70h-146v-148h-78v148h-144v70h144v149h78v-149z" unicode="+"/>
<glyph glyph-name="comma" d="M300 164q34 0 57.5 -23.5t23.5 -56.5q0 -37 -20 -77l-81 -186h-75l48 197q-33 25 -33 66q0 33 23 56.5t57 23.5z" unicode=","/>
<glyph glyph-name="hyphen" d="M125 349h350v-72h-350v72z" unicode="-"/>
<glyph glyph-name="period" d="M212 77q0 36 25 61.5t62 25.5q38 0 63 -25.5t25 -61.5q0 -38 -25 -63t-63 -25q-37 0 -62 25t-25 63z" unicode="."/>
<glyph glyph-name="slash" d="M53 -73l428 882l66 -32l-427 -880z" unicode="/"/>
<glyph glyph-name="zero" d="M300 410q28 0 47 -19t19 -46q0 -28 -19 -47t-47 -19t-46.5 19t-18.5 47q0 27 18.5 46t46.5 19zM300 632q-138 0 -138 -287q0 -289 138 -289t138 289q0 287 -138 287zM300 700q110 0 167.5 -91.5t57.5 -263.5q0 -173 -57.5 -264.5t-167.5 -91.5t-167.5 91.5t-57.5 264.5 q0 172 57.5 263.5t167.5 91.5z" unicode="0"/>
<glyph glyph-name="one" d="M517 68v-68h-397v68h170v530l-158 -95l-36 59l204 126h73v-620h144z" unicode="1"/>
<glyph glyph-name="two" d="M269 700q95 0 151 -54t56 -139q0 -92 -66.5 -184t-241.5 -252h324l-10 -71h-409v68q196 188 256 270.5t60 166.5q0 58 -32.5 91.5t-90.5 33.5q-49 0 -82 -16.5t-67 -56.5l-58 44q82 99 210 99z" unicode="2"/>
<glyph glyph-name="three" d="M269 700q94 0 152.5 -50t58.5 -123q0 -60 -39 -104.5t-96 -55.5q66 -5 111.5 -49t45.5 -120q0 -90 -67 -149.5t-172 -59.5q-137 0 -211 91l56 46q58 -69 153 -69q72 0 113 38t41 103q0 131 -143 131h-58l10 66h41q54 0 92.5 31t38.5 90q0 55 -37 86t-94 31 q-78 0 -146 -64l-45 51q83 80 195 80z" unicode="3"/>
<glyph glyph-name="four" d="M528 168h-89v-168h-81v168h-286v60l203 472l69 -30l-184 -436h199l7 196h73v-196h89v-66z" unicode="4"/>
<glyph glyph-name="five" d="M474 622h-272v-218q55 30 119 30q86 0 137 -57t51 -159q0 -104 -63 -166.5t-169 -62.5q-115 0 -199 82l51 50q63 -64 149 -64q69 0 106.5 41.5t37.5 121.5q0 148 -124 148q-47 0 -108 -23h-67v343h364z" unicode="5"/>
<glyph glyph-name="six" d="M308 56q64 0 97.5 45.5t33.5 127.5q0 151 -122 151q-94 0 -153 -98q2 -118 36 -172t108 -54zM329 448q85 0 140 -55.5t55 -160.5q0 -111 -62 -177t-154 -66q-228 0 -228 336q0 173 67.5 274t187.5 101q75 0 136 -41l-32 -56q-49 29 -105 29q-79 0 -124 -74.5t-47 -202.5 q62 93 166 93z" unicode="6"/>
<glyph glyph-name="seven" d="M153 14l268 605h-323v69h407v-63l-275 -634z" unicode="7"/>
<glyph glyph-name="eight" d="M447 183q0 23 -5 41t-20 33t-26 24.5t-39 21.5t-43 17.5t-53 18.5q-108 -49 -108 -156q0 -60 37 -93.5t108 -33.5q70 0 109.5 35.5t39.5 91.5zM176 519q0 -29 9 -49t33 -35t45 -23t65 -22q51 29 73.5 57.5t22.5 73.5q0 53 -32.5 83.5t-91.5 30.5t-91.5 -30.5t-32.5 -85.5 zM506 525q0 -49 -29.5 -86t-89.5 -70q69 -29 108 -76t39 -108q0 -86 -64.5 -141t-171.5 -55t-169.5 55t-62.5 139q0 116 138 180q-56 26 -83 63.5t-27 93.5q0 59 33.5 101.5t79 60.5t93.5 18q83 0 144.5 -45t61.5 -130z" unicode="8"/>
<glyph glyph-name="nine" d="M279 319q88 1 149 95v10q0 113 -33 160t-106 47q-136 0 -136 -162q0 -150 123 -150h3zM289 699q112 0 168 -70t56 -196q0 -88 -14 -153.5t-40 -112.5t-72.5 -82t-102 -59t-137.5 -47l-19 63q147 40 222 108t76 188q-24 -37 -66 -60.5t-96 -24.5h-4q-86 0 -139.5 59.5 t-53.5 159.5q0 107 63 167t159 60z" unicode="9"/>
<glyph glyph-name="colon" d="M219 70q0 33 23 56.5t57 23.5t57.5 -23.5t23.5 -56.5q0 -34 -23 -57.5t-58 -23.5q-34 0 -57 23t-23 58zM219 431q0 33 23 56.5t57 23.5t57.5 -23.5t23.5 -56.5q0 -34 -23.5 -58t-57.5 -24t-57 24t-23 58z" unicode=":"/>
<glyph glyph-name="semicolon" d="M299 165q34 0 57.5 -23.5t23.5 -56.5q0 -36 -19 -78l-82 -187h-76l48 198q-32 24 -32 67q0 33 23 56.5t57 23.5zM299 511q34 0 57.5 -23.5t23.5 -56.5q0 -34 -23.5 -58t-57.5 -24t-57 24t-23 58q0 33 23 56.5t57 23.5z" unicode=";"/>
<glyph glyph-name="less" d="M513 530l-354 -217l354 -219l-45 -61l-380 238v85l384 238z" unicode="&lt;"/>
<glyph glyph-name="equal" d="M494 180h-388v72h388v-72zM494 370h-388v72h388v-72z" unicode="="/>
<glyph glyph-name="greater" d="M513 356v-85l-380 -238l-45 62l354 218l-354 218l41 63z" unicode="&gt;"/>
<glyph glyph-name="question" d="M277 122q28 0 47.5 -19.5t19.5 -46.5q0 -28 -19 -47.5t-48 -19.5q-28 0 -47 19t-19 48q0 27 19 46.5t47 19.5zM299 700q88 0 142.5 -46.5t54.5 -108.5q0 -37 -13.5 -66t-33.5 -45.5t-43 -35t-43 -34t-33.5 -42.5t-13.5 -61v-34h-84v39q0 45 18.5 79t44.5 55.5t52 40.5 t44.5 43.5t18.5 55.5q0 42 -33 66t-86 24q-82 0 -142 -73l-59 44q84 99 209 99z" unicode="?"/>
<glyph glyph-name="at" d="M230 380q-67 0 -93.5 -47.5t-26.5 -148.5q0 -167 80 -167q25 0 43.5 8.5t31 26t17.5 26.5t12 27v260q-29 15 -64 15zM284 700q75 0 130.5 -24.5t87.5 -62.5t51 -95t25.5 -111.5t6.5 -121.5q0 -201 -30 -288.5t-116 -87.5q-57 0 -88 48.5t-30 94.5h-4q-40 -98 -137 -98 q-77 0 -113.5 62t-36.5 168q0 128 50.5 192.5t145.5 64.5q71 0 140 -37v-295q0 -75 19 -103.5t52 -28.5q23 0 36.5 20.5t19 72t6.5 91.5t1 123q0 62 -4.5 109t-18.5 93t-37 75.5t-62 47.5t-93 18q-123 0 -227 -92l-49 55q127 110 275 110z" unicode="@"/>
<glyph glyph-name="A" d="M161 176l-56 -176h-84l224 688h110l224 -688h-90l-55 176h-273zM412 247l-114 369l-115 -369h229z" unicode="A"/>
<glyph glyph-name="B" d="M449 193q0 131 -148 131h-119v-253h115q152 0 152 122zM421 510q0 109 -135 109h-104v-224h112q127 0 127 115zM539 196q0 -54 -22 -93.5t-60 -61t-81.5 -31.5t-94.5 -10h-184v688h169q48 0 89 -8.5t77 -27t56.5 -53.5t20.5 -84q0 -62 -36.5 -100t-91.5 -50 q158 -27 158 -169z" unicode="B"/>
<glyph glyph-name="C" d="M358 700q115 0 199 -67l-48 -56q-62 51 -145 51q-94 0 -152.5 -67.5t-58.5 -215.5q0 -146 57.5 -214.5t152.5 -68.5q88 0 160 58l44 -57q-76 -74 -205 -74q-131 0 -214.5 93.5t-83.5 262.5q0 167 84.5 261t209.5 94z" unicode="C"/>
<glyph glyph-name="D" d="M461 348q0 85 -18.5 142.5t-52 83.5t-65.5 35t-74 9h-82v-549h83q41 0 75 12t66 41t50 86.5t18 139.5zM552 348q0 -83 -19 -146.5t-49 -101t-72.5 -61t-83 -31.5t-87.5 -8h-157v688h146q53 0 96 -7.5t86.5 -30t73 -59t48 -98.5t18.5 -145z" unicode="D"/>
<glyph glyph-name="E" d="M212 385h255v-71h-255v-245h313v-69h-399v688h390l-10 -70h-294v-233z" unicode="E"/>
<glyph glyph-name="F" d="M224 376h270v-69h-270v-307h-85v688h405l-11 -70h-309v-242z" unicode="F"/>
<glyph glyph-name="G" d="M314 -11q-125 0 -196.5 90.5t-71.5 265.5q0 169 84.5 262t203.5 93q64 0 108.5 -18.5t87.5 -57.5l-52 -54q-61 57 -144 57q-85 0 -141 -67.5t-56 -214.5q0 -148 46 -216t138 -68q72 0 132 33v211h-136l-10 71h231v-328q-111 -59 -224 -59z" unicode="G"/>
<glyph glyph-name="H" d="M431 328h-262v-328h-85v688h85v-291h262v291h85v-688h-85v328z" unicode="H"/>
<glyph glyph-name="I" d="M497 620h-154v-551h154v-69h-394v69h154v551h-154v68h394v-68z" unicode="I"/>
<glyph glyph-name="J" d="M496 228q0 -46 -11.5 -86t-37 -76t-73 -57t-112.5 -21q-106 0 -189 63l38 57q76 -48 150 -48q71 0 110.5 46t39.5 127v385h-204v70h289v-460z" unicode="J"/>
<glyph glyph-name="K" d="M106 0v688h85v-688h-85zM468 688h99l-270 -315l289 -373h-107l-283 368z" unicode="K"/>
<glyph glyph-name="L" d="M136 688h86v-611h314l-10 -77h-390v688z" unicode="L"/>
<glyph glyph-name="M" d="M569 0h-82l-22 361q-6 114 -6 229h-2l-114 -466h-87l-118 466h-4q0 -143 -4 -229l-19 -361h-80l39 688h120l112 -471l107 471h121z" unicode="M"/>
<glyph glyph-name="N" d="M156 589h-4q12 -156 12 -243v-346h-80v688h116l244 -592h4q-12 144 -12 247v345h80v-688h-120z" unicode="N"/>
<glyph glyph-name="O" d="M464 344q0 141 -39 212t-125 71t-125 -71.5t-39 -213.5q0 -281 164 -281q85 0 124.5 71t39.5 212zM553 344q0 -161 -65.5 -258t-187.5 -97q-123 0 -188 95t-65 258q0 162 65.5 260t187.5 98t187.5 -96.5t65.5 -259.5z" unicode="O"/>
<glyph glyph-name="P" d="M465 476q0 144 -163 144h-100v-295h97q79 0 122.5 34t43.5 117zM557 477q0 -115 -71 -168t-195 -53h-89v-256h-85v688h174q126 0 196 -53t70 -158z" unicode="P"/>
<glyph glyph-name="Q" d="M464 344q0 284 -164 284q-165 0 -165 -286q0 -281 165 -281q85 0 124.5 71t39.5 212zM553 344q0 -237 -137 -318q69 -14 110 -51.5t66 -111.5l-91 -36q-34 85 -80 124.5t-131 39.5q-117 0 -180.5 94.5t-63.5 256.5t65.5 260t188.5 98q122 0 187.5 -96.5t65.5 -259.5z" unicode="Q"/>
<glyph glyph-name="R" d="M537 496q0 -75 -46.5 -123.5t-122.5 -66.5l205 -306h-103l-188 296h-94v-296h-86v688h176q259 0 259 -192zM445 496q0 65 -38 94.5t-119 29.5h-100v-257h101q156 0 156 133z" unicode="R"/>
<glyph glyph-name="S" d="M536 191q0 -91 -66.5 -146.5t-184.5 -55.5q-151 0 -241 87l51 58q78 -73 192 -73q67 0 113.5 33t46.5 95q0 51 -31.5 80t-119.5 55q-112 33 -167 77.5t-55 121.5q0 78 62 127.5t161 49.5q127 0 219 -79l-51 -56q-70 63 -166 63q-60 0 -99 -26.5t-39 -76.5q0 -44 37.5 -71 t136.5 -56q96 -28 148.5 -73t52.5 -134z" unicode="S"/>
<glyph glyph-name="T" d="M341 0h-85v615h-216v73h519l-9 -73h-209v-615z" unicode="T"/>
<glyph glyph-name="U" d="M527 223q0 -105 -62 -169.5t-166 -64.5q-105 0 -165.5 64t-60.5 170v465h85v-469q0 -78 36.5 -117t104.5 -39q69 0 105.5 39t36.5 117v469h86v-465z" unicode="U"/>
<glyph glyph-name="V" d="M489 688h86l-231 -688h-88l-231 688h92l185 -590z" unicode="V"/>
<glyph glyph-name="W" d="M490 0h-113l-77 505h-4l-78 -505h-116l-97 688h86l71 -585h4l82 505h106l76 -501h4l82 581h79z" unicode="W"/>
<glyph glyph-name="X" d="M148 688l152 -265l152 265h93l-196 -316l220 -372h-99l-172 312l-175 -312h-92l217 367l-198 321h98z" unicode="X"/>
<glyph glyph-name="Y" d="M343 0h-86v265l-233 423h95l183 -345l185 345h89l-233 -422v-266z" unicode="Y"/>
<glyph glyph-name="Z" d="M527 74l-10 -74h-445v70l364 545h-328v73h420v-70l-362 -544h361z" unicode="Z"/>
<glyph glyph-name="bracketleft" d="M184 815h250v-71h-171v-789h171v-70h-250v930z" unicode="["/>
<glyph glyph-name="backslash" d="M119 809l428 -882l-67 -30l-427 880z" unicode="\"/>
<glyph glyph-name="bracketright" d="M416 -115h-250v70h171v789h-171v71h250v-930z" unicode="]"/>
<glyph glyph-name="asciicircum" d="M526 527h-91l-136 238l-136 -238h-89l189 312h74z" unicode="^"/>
<glyph glyph-name="underscore" d="M-7 -109h614v-72h-614v72z" unicode="_"/>
<glyph glyph-name="grave" d="M185 715l44 72l185 -117l-27 -46z" unicode="`"/>
<glyph glyph-name="a" d="M260 52q39 0 74.5 19.5t58.5 55.5v136h-76q-159 0 -159 -111q0 -100 102 -100zM477 114q0 -30 10 -45t33 -22l-20 -59q-75 10 -96 75q-57 -74 -165 -74q-79 0 -124.5 44t-45.5 118q0 81 63.5 125t183.5 44h77v44q0 104 -125 104q-63 0 -137 -26l-22 62q91 34 171 34 q96 0 146.5 -45t50.5 -125v-254z" unicode="a"/>
<glyph glyph-name="b" d="M304 56q137 0 137 208q0 207 -125 207q-75 0 -132 -85v-262q45 -68 120 -68zM184 458q60 80 150 80q198 0 198 -274q0 -124 -55 -199.5t-154 -75.5q-93 0 -143 66l-6 -55h-73v739l83 10v-291z" unicode="b"/>
<glyph glyph-name="c" d="M338 60q75 0 138 50l40 -58q-34 -29 -82.5 -46t-95.5 -17q-116 0 -181 73.5t-65 198.5q0 122 66 199.5t181 77.5q100 0 176 -62l-42 -57q-65 49 -135 49q-71 0 -113.5 -53t-42.5 -154t42.5 -151t113.5 -50z" unicode="c"/>
<glyph glyph-name="d" d="M499 739v-739h-73l-8 69q-57 -80 -149 -80q-100 0 -150.5 73t-50.5 200q0 122 55.5 199t151.5 77q87 0 141 -63v274zM296 471q-137 0 -137 -208q0 -207 127 -207q76 0 130 83v264q-45 68 -120 68z" unicode="d"/>
<glyph glyph-name="e" d="M306 469q-59 0 -97 -43.5t-43 -127.5h276q-1 84 -37 127.5t-99 43.5zM166 234q3 -88 46 -132t108 -44q80 0 141 49l39 -57q-79 -61 -180 -61q-114 0 -177.5 74.5t-63.5 199.5q0 120 62.5 197.5t163.5 77.5q102 0 159.5 -69.5t57.5 -189.5q0 -23 -2 -45h-354z" unicode="e"/>
<glyph glyph-name="f" d="M411 749q75 0 143 -29l-27 -62q-49 23 -113 23q-111 0 -111 -88v-107h179l-9 -66h-170v-420h-83v420h-126v66h126v105q0 71 54 114.5t137 43.5z" unicode="f"/>
<glyph glyph-name="g" d="M554 503q-52 -15 -154 -15q92 -42 92 -132q0 -80 -53 -130t-145 -50q-44 0 -79 11q-27 -20 -27 -52q0 -44 70 -44h95q79 0 132.5 -41t53.5 -102q0 -77 -65.5 -118.5t-185.5 -41.5q-123 0 -172.5 38t-49.5 121h75q0 -49 30.5 -70t115.5 -21q168 0 168 87q0 36 -33.5 56 t-85.5 20h-94q-65 0 -99 28.5t-34 70.5q0 54 58 92q-88 45 -88 145q0 81 58.5 132t151.5 51q91 0 138 10t101 34zM288 477q-61 0 -92.5 -33t-31.5 -89t32 -89.5t94 -33.5q56 0 85.5 32.5t29.5 91.5q0 121 -117 121z" unicode="g"/>
<glyph glyph-name="h" d="M184 454q30 40 75 62t93 22q148 0 148 -156v-382h-83v381q0 47 -22 69t-69 22q-42 0 -80.5 -26.5t-61.5 -61.5v-384h-83v737l83 10v-293z" unicode="h"/>
<glyph glyph-name="i" d="M367 66h148v-66h-394v66h163v395h-158v65h241v-460zM300 773q27 0 44 -17t17 -42q0 -26 -17 -42.5t-44 -16.5q-26 0 -43 16.5t-17 42.5q0 25 17 42t43 17z" unicode="i"/>
<glyph glyph-name="j" d="M445 83q0 -127 -85 -197t-250 -98l-14 64q127 21 196.5 73.5t69.5 152.5v383h-220v65h303v-443zM367 773q27 0 44 -17t17 -42q0 -26 -17 -42.5t-44 -16.5t-43.5 16.5t-16.5 42.5q0 25 16.5 42t43.5 17z" unicode="j"/>
<glyph glyph-name="k" d="M303 289l266 -289h-110l-260 288l234 238h108zM189 0h-83v739l83 10v-749z" unicode="k"/>
<glyph glyph-name="l" d="M305 129q0 -71 87 -71q42 0 89 18l22 -60q-50 -27 -125 -27q-70 0 -113 39t-43 106v539h-162v66h245v-610z" unicode="l"/>
<glyph glyph-name="m" d="M447 538q102 0 102 -146v-392h-77v378q0 55 -7 75t-34 20q-51 0 -92 -64v-409h-78v378q0 55 -7 75t-34 20q-51 0 -92 -64v-409h-77v526h65l5 -61q52 73 115 73q74 0 95 -70q50 70 116 70z" unicode="m"/>
<glyph glyph-name="n" d="M101 526h71l6 -73q32 40 79 62.5t95 22.5q148 0 148 -156v-382h-83v320q0 87 -16.5 119.5t-73.5 32.5q-43 0 -81.5 -26t-61.5 -62v-384h-83v526z" unicode="n"/>
<glyph glyph-name="o" d="M301 470q-138 0 -138 -207q0 -206 137 -206t137 207q0 206 -136 206zM301 538q109 0 167 -73.5t58 -200.5q0 -124 -59 -199.5t-167 -75.5q-109 0 -167.5 73.5t-58.5 200.5q0 125 59.5 200t167.5 75z" unicode="o"/>
<glyph glyph-name="p" d="M336 538q190 0 190 -274q0 -125 -52 -200t-151 -75q-87 0 -139 60v-251l-83 -10v738h70l7 -73q61 85 158 85zM316 471q-75 0 -132 -85v-262q43 -66 121 -66q132 0 132 206q0 207 -121 207z" unicode="p"/>
<glyph glyph-name="q" d="M295 471q-132 0 -132 -208q0 -205 122 -205q78 0 131 81v264q-44 68 -121 68zM274 538q92 0 147 -69l7 57h71v-738l-83 10v269q-56 -78 -148 -78q-194 0 -194 273q0 123 52.5 199.5t147.5 76.5z" unicode="q"/>
<glyph glyph-name="r" d="M94 0v66h123v395h-123v65h195l10 -101q23 55 63 84t89 29q36 0 69 -8l-15 -82q-34 9 -61 9q-51 0 -90.5 -42t-53.5 -100v-249h148v-66h-354z" unicode="r"/>
<glyph glyph-name="s" d="M280 57q60 0 95.5 23t35.5 61q0 39 -24 60.5t-103 41.5q-92 23 -136 55t-44 96q0 66 55 105t144 39q112 0 191 -59l-37 -56q-68 47 -152 47q-115 0 -115 -69q0 -35 28 -52.5t112 -40.5q86 -23 128.5 -58.5t42.5 -104.5q0 -53 -33 -89.5t-81 -51.5t-108 -15 q-123 0 -205 71l47 54q69 -57 159 -57z" unicode="s"/>
<glyph glyph-name="t" d="M518 26q-58 -37 -141 -37t-129.5 43.5t-46.5 114.5v315h-121v64h121v120l83 10v-130h182l-10 -64h-172v-314q0 -45 24 -67.5t77 -22.5t101 25z" unicode="t"/>
<glyph glyph-name="u" d="M184 153q0 -51 21.5 -74.5t67.5 -23.5q42 0 81.5 24.5t61.5 59.5v387h83v-526h-71l-7 71q-30 -39 -75.5 -60.5t-92.5 -21.5q-75 0 -113.5 40t-38.5 114v383h83v-373z" unicode="u"/>
<glyph glyph-name="v" d="M347 0h-96l-190 526h88l153 -450l151 450h86z" unicode="v"/>
<glyph glyph-name="w" d="M372 0l-68 378h-4l-71 -378h-115l-96 526h85l68 -462h4l80 395h99l75 -393h4l68 460h81l-92 -526h-118z" unicode="w"/>
<glyph glyph-name="x" d="M56 0l195 278l-171 248h98l123 -196l124 196h95l-170 -244l194 -282h-102l-145 226l-146 -226h-95z" unicode="x"/>
<glyph glyph-name="y" d="M353 -3q-32 -91 -85 -145t-149 -64l-13 67q77 13 111 45.5t57 99.5h-28l-184 526h89l152 -463l149 463h86z" unicode="y"/>
<glyph glyph-name="z" d="M498 71l-11 -71h-384v63l292 391h-269v72h369v-64l-291 -391h294z" unicode="z"/>
<glyph glyph-name="braceleft" d="M451 770q-126 0 -126 -72v-8l21 -206q1 -8 1 -23q0 -93 -94 -111q49 -9 71.5 -34t22.5 -75q0 -16 -1 -25l-21 -206v-8q0 -72 126 -72v-65q-203 0 -203 135q0 13 1 20l20 191q1 7 1 19q0 45 -33 66t-120 21v66q87 0 120 20.5t33 64.5q0 13 -1 20l-20 192q-1 7 -1 20 q0 135 203 135v-65z" unicode="{"/>
<glyph glyph-name="bar" d="M337 -102h-75v909h75v-909z" unicode="|"/>
<glyph glyph-name="braceright" d="M149 835q203 0 203 -135q0 -13 -1 -20l-20 -192q-1 -5 -1 -16q0 -45 35 -67t118 -22v-66q-83 0 -118 -22.5t-35 -67.5q0 -11 1 -16l20 -191q1 -7 1 -20q0 -135 -203 -135v65q126 0 126 72v8l-21 206q-1 9 -1 26q0 51 24 75t81 32q-54 10 -79.5 36t-25.5 76q0 15 1 23 l21 206v8q0 72 -126 72v65z" unicode="}"/>
<glyph glyph-name="asciitilde" d="M205 400q34 0 64 -15.5t47.5 -34.5t39.5 -34.5t42 -15.5q52 0 99 85l59 -31q-13 -26 -25.5 -44.5t-32 -39t-46 -31.5t-57.5 -11q-40 0 -74.5 25t-63.5 50t-55 25q-53 0 -99 -85l-59 30q18 36 35 60t51 45.5t75 21.5z" unicode="~"/>
<glyph glyph-name="uni00A0" unicode=" "/>
<glyph glyph-name="exclamdown" d="M347 -197h-96l12 458h72zM299 498q28 0 47.5 -19.5t19.5 -47.5q0 -27 -19.5 -46.5t-47.5 -19.5t-47 19.5t-19 46.5q0 29 19 48t47 19z" unicode="¡"/>
<glyph glyph-name="cent" d="M373 533q68 -8 121 -51l-42 -55q-56 41 -116 41q-67 0 -103.5 -52.5t-36.5 -154.5q0 -201 140 -201q60 0 117 45l41 -59q-52 -44 -121 -52v-147h-75v147q-93 12 -142.5 82t-49.5 185q0 111 49.5 184.5t143.5 86.5v151h74v-150z" unicode="¢"/>
<glyph glyph-name="sterling" d="M346 700q117 0 179 -86l-56 -43q-49 59 -120 59q-109 0 -109 -122v-121h207v-58h-207v-125q0 -98 -62 -133h339l-10 -71h-432v67q54 18 68 47.5t14 85.5v129h-82v58h82v129q0 81 51 132.5t138 51.5z" unicode="£"/>
<glyph glyph-name="currency" d="M177 520q53 33 124 33q73 0 122 -33l89 89l54 -54l-87 -88q36 -54 36 -125q0 -70 -37 -127l88 -87l-54 -54l-91 88q-50 -32 -120 -32q-72 0 -124 32l-89 -89l-54 54l89 89q-35 54 -35 126q0 71 34 124l-88 90l54 54zM301 486q-62 0 -95.5 -38t-33.5 -106t33.5 -106 t95.5 -38t95 38t33 106t-33 106t-95 38z" unicode="¤"/>
<glyph glyph-name="yen" d="M366 345h120v-58h-142v-86h142v-58h-142v-143h-88v143h-140v58h140v86h-140v58h117l-193 343h94l167 -316h4l167 316h88z" unicode="¥"/>
<glyph glyph-name="brokenbar" d="M337 -102h-75v355h75v-355zM337 452h-75v355h75v-355z" unicode="¦"/>
<glyph glyph-name="section" d="M317 700q93 0 167 -54l-40 -57q-64 43 -133 43q-43 0 -69.5 -19.5t-26.5 -51.5q0 -34 24 -53.5t100 -45.5q83 -28 118 -61.5t35 -90.5q0 -77 -80 -126q60 -45 60 -108q0 -67 -53.5 -106t-139.5 -39q-99 0 -171 55l40 56q61 -43 136 -43q44 0 72 19.5t28 51.5q0 34 -24 53 t-99 44q-84 29 -119.5 62.5t-35.5 91.5q0 74 81 124q-59 45 -59 109q0 66 54.5 106t134.5 40zM239 417q-49 -40 -49 -86q0 -41 28 -59t144 -60q48 42 48 87q0 39 -28.5 57t-142.5 61z" unicode="§"/>
<glyph glyph-name="dieresis" d="M196 648q-23 0 -38.5 15t-15.5 38t15.5 38.5t38.5 15.5t38.5 -15.5t15.5 -38.5q0 -22 -15.5 -37.5t-38.5 -15.5zM402 648q-22 0 -37.5 15t-15.5 38t15 38.5t38 15.5q24 0 39.5 -15.5t15.5 -38.5t-15.5 -38t-39.5 -15z" unicode="¨"/>
<glyph glyph-name="copyright" d="M304 625q66 0 117 -39l-35 -47q-37 30 -79 30t-68 -32.5t-26 -100.5q0 -64 25.5 -96.5t68.5 -32.5q49 0 87 35l32 -48q-53 -47 -121 -47q-73 0 -118 50t-45 139t47 139t115 50zM301 697q-104 0 -160 -73.5t-56 -188.5q0 -114 56 -186.5t160 -72.5t159.5 72.5t55.5 186.5 t-55.5 188t-159.5 74zM301 747q124 0 196.5 -89t72.5 -223q0 -133 -72.5 -221.5t-196.5 -88.5q-125 0 -198 88.5t-73 221.5q0 135 72.5 223.5t198.5 88.5z" unicode="©"/>
<glyph glyph-name="ordfeminine" d="M498 0h-392v75h392v-75zM320 521q-134 0 -134 -78q0 -77 87 -77q62 0 105 56v99h-58zM290 749q82 0 124 -36.5t42 -103.5v-198q0 -39 33 -50l-18 -54q-64 8 -83 59q-51 -59 -134 -59q-68 0 -110 36.5t-42 96.5q0 65 57.5 100.5t159.5 35.5h59v31q0 78 -99 78 q-53 0 -122 -24l-22 58q79 30 155 30z" unicode="ª"/>
<glyph glyph-name="guillemotleft" d="M258 56l-175 207v60l175 209l50 -32l-135 -206l135 -206zM466 56l-177 207v60l177 209l50 -32l-135 -206l135 -206z" unicode="«"/>
<glyph glyph-name="logicalnot" d="M484 135h-76v141h-292v71h368v-212z" unicode="¬"/>
<glyph glyph-name="softhyphen" d="M144 349h312v-72h-312v72z" unicode="­"/>
<glyph glyph-name="registered" d="M286 636q122 0 122 -84q0 -61 -67 -80l86 -118h-66l-75 109h-29v-109h-56v282h85zM257 592v-86h32q61 0 61 45q0 41 -63 41h-30zM300 700q-86 0 -143.5 -60.5t-57.5 -147.5t57.5 -146.5t143.5 -59.5t143 59.5t57 146.5t-57.5 147.5t-142.5 60.5zM300 747q105 0 178.5 -75 t73.5 -180t-73.5 -179t-178.5 -74t-179 74t-74 179t74 180t179 75z" unicode="®"/>
<glyph glyph-name="macron" d="M165 676v64h269v-64h-269z" unicode="¯"/>
<glyph glyph-name="degree" d="M227 690q-37 0 -63 -25t-26 -72t26 -72.5t63 -25.5q38 0 64 25t26 72q0 48 -26 73t-64 25zM227 749q67 0 114.5 -42.5t47.5 -114.5t-47.5 -114t-114.5 -42q-66 0 -114 42.5t-48 114.5q0 71 48.5 113.5t113.5 42.5z" unicode="°"/>
<glyph glyph-name="plusminus" d="M484 0h-368v72h368v-72zM340 388h144v-70h-144v-155h-80v155h-144v70h144v149h80v-149z" unicode="±"/>
<glyph glyph-name="twosuperior" d="M435 536q0 -47 -35.5 -79.5t-133.5 -81.5h179l-9 -60h-277v52q131 80 165.5 107.5t34.5 58.5q0 23 -15.5 36t-43.5 13q-56 0 -95 -49l-51 38q60 71 148 71q63 0 98 -29t35 -77z" unicode="²"/>
<glyph glyph-name="threesuperior" d="M308 642q60 0 95 -24t35 -65q0 -28 -16 -44t-55 -23q45 -7 65 -24t20 -52q0 -46 -41 -73.5t-113 -27.5q-93 0 -151 58l46 38q46 -40 108 -40q76 0 76 47t-72 47h-46l8 43h34q64 0 64 41q0 44 -62 44q-54 0 -105 -38l-38 41q63 52 148 52z" unicode="³"/>
<glyph glyph-name="acute" d="M370 785l44 -71l-201 -90l-28 46z" unicode="´"/>
<glyph glyph-name="uni00B5" d="M483 167q0 -81 28 -167l-78 -12q-18 30 -25 85q-23 -38 -62 -61.5t-79 -23.5t-62 11.5t-42 39.5q9 -65 9 -87v-154l-83 -10v738h83v-295q0 -90 16.5 -129.5t72.5 -39.5q82 0 139 80v384h83v-359z" unicode="µ"/>
<glyph glyph-name="paragraph" d="M556 -201l-76 -11v831h-113v-820l-76 -11v501q-119 0 -183.5 56t-64.5 142q0 88 66.5 144.5t187.5 56.5h259v-889z" unicode="¶"/>
<glyph glyph-name="periodcentered" d="M212 342q0 37 25 62t62 25q38 0 63 -25t25 -62q0 -38 -25 -63t-63 -25q-37 0 -62 25t-25 63z" unicode="·"/>
<glyph glyph-name="cedilla" d="M341 -140q0 25 -21.5 34t-65.5 9l9 113h57v-73q46 -4 69 -27.5t23 -55.5q0 -47 -35 -72.5t-86 -25.5q-63 0 -105 24l27 48q30 -16 68 -16q60 0 60 42z" unicode="¸"/>
<glyph glyph-name="onesuperior" d="M365 554l-96 -52l-35 49l144 85h56v-321h-69v239z" unicode="¹"/>
<glyph glyph-name="ordmasculine" d="M497 0h-393v75h393v-75zM300 685q-57 0 -89 -39t-32 -117q0 -79 32 -118.5t89 -39.5q119 0 119 158q0 78 -31 117t-88 39zM300 749q93 0 148 -59.5t55 -160.5q0 -99 -55.5 -160.5t-147.5 -61.5q-93 0 -148.5 60.5t-55.5 161.5q0 98 56 159t148 61z" unicode="º"/>
<glyph glyph-name="guillemotright" d="M83 500l50 32l175 -209v-60l-175 -207l-50 32l135 206zM289 500l50 32l177 -209v-60l-177 -207l-50 32l136 206z" unicode="»"/>
<glyph glyph-name="onequarter" d="M546 0h-73v56h-178v48l136 227l60 -25l-115 -191h97l6 86h67v-86h55v-59h-55v-56zM14 237l535 256l30 -53l-534 -256zM130 607l-96 -52l-35 49l144 85h56v-321h-69v239z" unicode="¼"/>
<glyph glyph-name="onehalf" d="M594 221q0 -47 -35.5 -79.5t-133.5 -81.5h179l-8 -60h-277v52q131 81 165.5 108t34.5 58q0 23 -16 36t-44 13q-54 0 -95 -49l-51 38q60 71 148 71q63 0 98 -29t35 -77zM10 237l535 256l30 -53l-534 -256zM127 607l-96 -52l-35 49l144 85h56v-321h-69v239z" unicode="½"/>
<glyph glyph-name="threequarters" d="M547 0h-72v56h-179v48l136 227l61 -25l-115 -191h97l6 86h66v-86h56v-59h-56v-56zM158 695q60 0 95 -24t35 -65q0 -28 -16 -44t-55 -23q45 -7 65 -24t20 -52q0 -46 -41 -73.5t-113 -27.5q-93 0 -151 58l46 38q46 -40 108 -40q76 0 76 47t-72 47h-46l8 43h34q64 0 64 41 q0 44 -62 44q-54 0 -105 -38l-38 41q63 52 148 52zM24 237l535 256l29 -53l-534 -256z" unicode="¾"/>
<glyph glyph-name="questiondown" d="M369 222q0 -45 -18 -79t-44.5 -55.5t-52.5 -40.5t-44 -43.5t-18 -55.5q0 -42 33 -66t86 -24q82 0 142 73l59 -44q-86 -99 -210 -99q-88 0 -142.5 46.5t-54.5 108.5q0 37 13.5 66t33.5 45.5t43.5 34.5t43.5 34t33.5 42.5t13.5 60.5v35h83v-39zM324 498q28 0 47.5 -19.5 t19.5 -47.5q0 -27 -19.5 -46.5t-47.5 -19.5t-47 19.5t-19 46.5q0 29 19 48t47 19z" unicode="¿"/>
<glyph glyph-name="Agrave" d="M161 176l-56 -176h-84l224 688h110l224 -688h-90l-55 176h-273zM412 247l-114 369l-115 -369h229zM416 800l-26 -44l-205 81l46 72z" unicode="À"/>
<glyph glyph-name="Aacute" d="M161 176l-56 -176h-84l224 688h110l224 -688h-90l-55 176h-273zM412 247l-114 369l-115 -369h229zM420 834l-213 -78l-22 44l198 105z" unicode="Á"/>
<glyph glyph-name="Acircumflex" d="M161 176l-56 -176h-84l224 688h110l224 -688h-90l-55 176h-273zM412 247l-114 369l-115 -369h229zM463 803l-37 -43l-126 81l-125 -81l-38 43l136 107h56z" unicode="Â"/>
<glyph glyph-name="Atilde" d="M161 176l-56 -176h-84l224 688h110l224 -688h-90l-55 176h-273zM412 247l-114 369l-115 -369h229zM351 771q-32 0 -64.5 24.5t-44.5 24.5q-26 0 -51 -44l-54 24q37 84 111 84q33 0 65 -24t44 -24q26 0 51 44l54 -24q-39 -85 -111 -85z" unicode="Ã"/>
<glyph glyph-name="Adieresis" d="M161 176l-56 -176h-84l224 688h110l224 -688h-90l-55 176h-273zM412 247l-114 369l-115 -369h229zM196 767q-23 0 -38.5 15t-15.5 38t15.5 38.5t38.5 15.5t38.5 -15.5t15.5 -38.5q0 -22 -15.5 -37.5t-38.5 -15.5zM402 767q-22 0 -37.5 15.5t-15.5 37.5q0 23 15 38.5 t38 15.5q24 0 39.5 -15.5t15.5 -38.5t-15.5 -38t-39.5 -15z" unicode="Ä"/>
<glyph glyph-name="Aring" d="M161 176l-56 -176h-84l224 688h110l224 -688h-90l-55 176h-273zM412 247l-114 369l-115 -369h229zM300 896q-25 0 -39.5 -15t-14.5 -42q0 -26 14.5 -41t39.5 -15t39.5 15t14.5 41q0 27 -14 42t-40 15zM300 942q48 0 79.5 -29.5t31.5 -73.5q0 -42 -31.5 -71.5t-79.5 -29.5 t-79.5 29.5t-31.5 71.5q0 44 31.5 73.5t79.5 29.5z" unicode="Å"/>
<glyph glyph-name="AE" d="M125 176l-49 -176h-88l202 688h376l-10 -70h-237l52 -234h186v-70h-173l52 -244h172v-70h-242l-36 176h-205zM314 248l-74 373l-92 -373h166z" unicode="Æ"/>
<glyph glyph-name="Ccedilla" d="M370 -57q46 -4 69 -27.5t23 -55.5q0 -47 -35 -72.5t-86 -25.5q-63 0 -105 24l27 48q30 -16 68 -16q60 0 60 42q0 25 -21.5 34t-65.5 9l7 90q-111 18 -179 109.5t-68 242.5q0 167 84.5 261t209.5 94q115 0 199 -67l-48 -56q-62 51 -145 51q-94 0 -152.5 -67.5 t-58.5 -215.5q0 -146 57.5 -214.5t152.5 -68.5q88 0 160 58l44 -57q-73 -71 -197 -74v-46z" unicode="Ç"/>
<glyph glyph-name="Egrave" d="M212 385h255v-71h-255v-245h313v-69h-399v688h390l-10 -70h-294v-233zM437 800l-26 -44l-205 81l46 72z" unicode="È"/>
<glyph glyph-name="Eacute" d="M212 385h255v-71h-255v-245h313v-69h-399v688h390l-10 -70h-294v-233zM441 834l-213 -78l-22 44l198 105z" unicode="É"/>
<glyph glyph-name="Ecircumflex" d="M212 385h255v-71h-255v-245h313v-69h-399v688h390l-10 -70h-294v-233zM484 803l-37 -43l-126 81l-125 -81l-38 43l136 107h56z" unicode="Ê"/>
<glyph glyph-name="Edieresis" d="M212 385h255v-71h-255v-245h313v-69h-399v688h390l-10 -70h-294v-233zM217 767q-23 0 -38.5 15t-15.5 38t15.5 38.5t38.5 15.5t38.5 -15.5t15.5 -38.5q0 -22 -15.5 -37.5t-38.5 -15.5zM423 767q-23 0 -38 15.5t-15 37.5q0 23 15 38.5t38 15.5q24 0 39.5 -15.5t15.5 -38.5 t-15.5 -38t-39.5 -15z" unicode="Ë"/>
<glyph glyph-name="Igrave" d="M497 620h-154v-551h154v-69h-394v69h154v551h-154v68h394v-68zM416 800l-26 -44l-205 81l46 72z" unicode="Ì"/>
<glyph glyph-name="Iacute" d="M497 620h-154v-551h154v-69h-394v69h154v551h-154v68h394v-68zM420 834l-213 -78l-22 44l198 105z" unicode="Í"/>
<glyph glyph-name="Icircumflex" d="M497 620h-154v-551h154v-69h-394v69h154v551h-154v68h394v-68zM463 803l-37 -43l-126 81l-125 -81l-38 43l136 107h56z" unicode="Î"/>
<glyph glyph-name="Idieresis" d="M497 620h-154v-551h154v-69h-394v69h154v551h-154v68h394v-68zM196 767q-23 0 -38.5 15t-15.5 38t15.5 38.5t38.5 15.5t38.5 -15.5t15.5 -38.5q0 -22 -15.5 -37.5t-38.5 -15.5zM402 767q-22 0 -37.5 15.5t-15.5 37.5q0 23 15 38.5t38 15.5q24 0 39.5 -15.5t15.5 -38.5 t-15.5 -38t-39.5 -15z" unicode="Ï"/>
<glyph glyph-name="Eth" d="M262 69q208 0 208 279q0 85 -18.5 142.5t-51.5 83.5t-65 35t-74 9h-82v-232h159v-66h-159v-251h83zM240 688q53 0 96 -7.5t86.5 -30t73 -59t48 -98.5t18.5 -145t-19 -146.5t-49 -101t-72.5 -61t-83 -31.5t-87.5 -8h-158v320h-73v66h73v302h147z" unicode="Ð"/>
<glyph glyph-name="Ntilde" d="M156 589h-4q12 -156 12 -243v-346h-80v688h116l244 -592h4q-12 144 -12 247v345h80v-688h-120zM349 771q-32 0 -64.5 24.5t-44.5 24.5q-26 0 -51 -44l-54 24q37 84 111 84q33 0 65 -24t44 -24q26 0 51 44l54 -24q-39 -85 -111 -85z" unicode="Ñ"/>
<glyph glyph-name="Ograve" d="M464 344q0 141 -39 212t-125 71t-125 -71.5t-39 -213.5q0 -281 164 -281q85 0 124.5 71t39.5 212zM553 344q0 -161 -65.5 -258t-187.5 -97q-123 0 -188 95t-65 258q0 162 65.5 260t187.5 98t187.5 -96.5t65.5 -259.5zM416 800l-26 -44l-205 81l46 72z" unicode="Ò"/>
<glyph glyph-name="Oacute" d="M464 344q0 141 -39 212t-125 71t-125 -71.5t-39 -213.5q0 -281 164 -281q85 0 124.5 71t39.5 212zM553 344q0 -161 -65.5 -258t-187.5 -97q-123 0 -188 95t-65 258q0 162 65.5 260t187.5 98t187.5 -96.5t65.5 -259.5zM420 834l-213 -78l-22 44l198 105z" unicode="Ó"/>
<glyph glyph-name="Ocircumflex" d="M464 344q0 141 -39 212t-125 71t-125 -71.5t-39 -213.5q0 -281 164 -281q85 0 124.5 71t39.5 212zM553 344q0 -161 -65.5 -258t-187.5 -97q-123 0 -188 95t-65 258q0 162 65.5 260t187.5 98t187.5 -96.5t65.5 -259.5zM463 803l-37 -43l-126 81l-125 -81l-38 43l136 107 h56z" unicode="Ô"/>
<glyph glyph-name="Otilde" d="M464 344q0 141 -39 212t-125 71t-125 -71.5t-39 -213.5q0 -281 164 -281q85 0 124.5 71t39.5 212zM553 344q0 -161 -65.5 -258t-187.5 -97q-123 0 -188 95t-65 258q0 162 65.5 260t187.5 98t187.5 -96.5t65.5 -259.5zM351 771q-32 0 -64.5 24.5t-44.5 24.5q-26 0 -51 -44 l-54 24q37 84 111 84q33 0 65 -24t44 -24q26 0 51 44l54 -24q-39 -85 -111 -85z" unicode="Õ"/>
<glyph glyph-name="Odieresis" d="M464 344q0 141 -39 212t-125 71t-125 -71.5t-39 -213.5q0 -281 164 -281q85 0 124.5 71t39.5 212zM553 344q0 -161 -65.5 -258t-187.5 -97q-123 0 -188 95t-65 258q0 162 65.5 260t187.5 98t187.5 -96.5t65.5 -259.5zM196 767q-23 0 -38.5 15t-15.5 38t15.5 38.5 t38.5 15.5t38.5 -15.5t15.5 -38.5q0 -22 -15.5 -37.5t-38.5 -15.5zM402 767q-22 0 -37.5 15.5t-15.5 37.5q0 23 15 38.5t38 15.5q24 0 39.5 -15.5t15.5 -38.5t-15.5 -38t-39.5 -15z" unicode="Ö"/>
<glyph glyph-name="multiply" d="M475 430l-123 -123l123 -123l-52 -52l-123 123l-123 -123l-52 52l123 123l-123 123l52 53l123 -124l123 124z" unicode="×"/>
<glyph glyph-name="Oslash" d="M433 660q120 -87 120 -316q0 -161 -65.5 -258t-187.5 -97q-32 0 -64 8l-32 -107l-74 19l37 120q-120 85 -120 313q0 162 65.5 260t187.5 98q33 0 65 -8l32 111l75 -19zM300 61q85 0 124 71t39 212q0 190 -61 248l-151 -525q23 -6 49 -6zM137 342q0 -185 60 -245l151 524 q-21 6 -48 6q-85 0 -124 -71.5t-39 -213.5z" unicode="Ø"/>
<glyph glyph-name="Ugrave" d="M527 223q0 -105 -62 -169.5t-166 -64.5q-105 0 -165.5 64t-60.5 170v465h85v-469q0 -78 36.5 -117t104.5 -39q69 0 105.5 39t36.5 117v469h86v-465zM416 800l-26 -44l-205 81l46 72z" unicode="Ù"/>
<glyph glyph-name="Uacute" d="M527 223q0 -105 -62 -169.5t-166 -64.5q-105 0 -165.5 64t-60.5 170v465h85v-469q0 -78 36.5 -117t104.5 -39q69 0 105.5 39t36.5 117v469h86v-465zM420 834l-213 -78l-22 44l198 105z" unicode="Ú"/>
<glyph glyph-name="Ucircumflex" d="M527 223q0 -105 -62 -169.5t-166 -64.5q-105 0 -165.5 64t-60.5 170v465h85v-469q0 -78 36.5 -117t104.5 -39q69 0 105.5 39t36.5 117v469h86v-465zM463 803l-37 -43l-126 81l-125 -81l-38 43l136 107h56z" unicode="Û"/>
<glyph glyph-name="Udieresis" d="M527 223q0 -105 -62 -169.5t-166 -64.5q-105 0 -165.5 64t-60.5 170v465h85v-469q0 -78 36.5 -117t104.5 -39q69 0 105.5 39t36.5 117v469h86v-465zM196 767q-23 0 -38.5 15t-15.5 38t15.5 38.5t38.5 15.5t38.5 -15.5t15.5 -38.5q0 -22 -15.5 -37.5t-38.5 -15.5zM402 767 q-22 0 -37.5 15.5t-15.5 37.5q0 23 15 38.5t38 15.5q24 0 39.5 -15.5t15.5 -38.5t-15.5 -38t-39.5 -15z" unicode="Ü"/>
<glyph glyph-name="Yacute" d="M343 0h-86v265l-233 423h95l183 -345l185 345h89l-233 -422v-266zM423 834l-213 -78l-22 44l198 105z" unicode="Ý"/>
<glyph glyph-name="Thorn" d="M193 504v-307h111q77 0 119 35.5t42 120.5q0 151 -162 151h-110zM193 572h100q127 0 194.5 -54t67.5 -163q0 -116 -70.5 -171.5t-192.5 -55.5h-99v-128h-85v688h85v-116z" unicode="Þ"/>
<glyph glyph-name="germandbls" d="M297 749q77 0 125 -40t48 -104q0 -33 -18 -60t-39 -41.5t-39 -34.5t-18 -40q0 -24 21 -44.5t50.5 -38t59 -39t50.5 -57.5t21 -83q0 -84 -53.5 -131t-133.5 -47q-75 0 -129 34l34 57q43 -24 88 -24q51 0 80 27t29 79q0 35 -20.5 63t-49.5 46.5t-58.5 37t-50 46.5t-20.5 64 q0 32 18.5 57.5t40 39.5t40 35.5t18.5 45.5q0 33 -22.5 59t-72.5 26q-58 0 -87.5 -33.5t-29.5 -109.5v-539h-83v533q0 105 53 160.5t148 55.5z" unicode="ß"/>
<glyph glyph-name="agrave" d="M260 52q39 0 74.5 19.5t58.5 55.5v136h-76q-159 0 -159 -111q0 -100 102 -100zM477 114q0 -30 10 -45t33 -22l-20 -59q-75 10 -96 75q-57 -74 -165 -74q-79 0 -124.5 44t-45.5 118q0 81 63.5 125t183.5 44h77v44q0 104 -125 104q-63 0 -137 -26l-22 62q91 34 171 34 q96 0 146.5 -45t50.5 -125v-254zM177 715l44 72l185 -117l-27 -46z" unicode="à"/>
<glyph glyph-name="aacute" d="M260 52q39 0 74.5 19.5t58.5 55.5v136h-76q-159 0 -159 -111q0 -100 102 -100zM477 114q0 -30 10 -45t33 -22l-20 -59q-75 10 -96 75q-57 -74 -165 -74q-79 0 -124.5 44t-45.5 118q0 81 63.5 125t183.5 44h77v44q0 104 -125 104q-63 0 -137 -26l-22 62q91 34 171 34 q96 0 146.5 -45t50.5 -125v-254zM362 785l44 -71l-201 -90l-28 46z" unicode="á"/>
<glyph glyph-name="acircumflex" d="M260 52q39 0 74.5 19.5t58.5 55.5v136h-76q-159 0 -159 -111q0 -100 102 -100zM477 114q0 -30 10 -45t33 -22l-20 -59q-75 10 -96 75q-57 -74 -165 -74q-79 0 -124.5 44t-45.5 118q0 81 63.5 125t183.5 44h77v44q0 104 -125 104q-63 0 -137 -26l-22 62q91 34 171 34 q96 0 146.5 -45t50.5 -125v-254zM129 670l136 119h56l134 -119l-38 -41l-124 91l-124 -91z" unicode="â"/>
<glyph glyph-name="atilde" d="M260 52q39 0 74.5 19.5t58.5 55.5v136h-76q-159 0 -159 -111q0 -100 102 -100zM477 114q0 -30 10 -45t33 -22l-20 -59q-75 10 -96 75q-57 -74 -165 -74q-79 0 -124.5 44t-45.5 118q0 81 63.5 125t183.5 44h77v44q0 104 -125 104q-63 0 -137 -26l-22 62q91 34 171 34 q96 0 146.5 -45t50.5 -125v-254zM343 652q-32 0 -64.5 24.5t-44.5 24.5q-26 0 -51 -44l-54 24q37 84 111 84q33 0 65 -24t44 -24q26 0 51 44l54 -24q-39 -85 -111 -85z" unicode="ã"/>
<glyph glyph-name="adieresis" d="M260 52q39 0 74.5 19.5t58.5 55.5v136h-76q-159 0 -159 -111q0 -100 102 -100zM477 114q0 -30 10 -45t33 -22l-20 -59q-75 10 -96 75q-57 -74 -165 -74q-79 0 -124.5 44t-45.5 118q0 81 63.5 125t183.5 44h77v44q0 104 -125 104q-63 0 -137 -26l-22 62q91 34 171 34 q96 0 146.5 -45t50.5 -125v-254zM188 648q-23 0 -38.5 15t-15.5 38t15.5 38.5t38.5 15.5t38.5 -15.5t15.5 -38.5q0 -22 -15.5 -37.5t-38.5 -15.5zM394 648q-22 0 -37.5 15t-15.5 38t15 38.5t38 15.5q24 0 39.5 -15.5t15.5 -38.5t-15.5 -38t-39.5 -15z" unicode="ä"/>
<glyph glyph-name="aring" d="M260 52q39 0 74.5 19.5t58.5 55.5v136h-76q-159 0 -159 -111q0 -100 102 -100zM477 114q0 -30 10 -45t33 -22l-20 -59q-75 10 -96 75q-57 -74 -165 -74q-79 0 -124.5 44t-45.5 118q0 81 63.5 125t183.5 44h77v44q0 104 -125 104q-63 0 -137 -26l-22 62q91 34 171 34 q96 0 146.5 -45t50.5 -125v-254zM292 777q-25 0 -39.5 -15t-14.5 -42q0 -26 14.5 -41t39.5 -15t39.5 15t14.5 41q0 27 -14 42t-40 15zM292 823q48 0 79.5 -29.5t31.5 -73.5q0 -42 -31.5 -71.5t-79.5 -29.5t-79.5 29.5t-31.5 71.5q0 44 31.5 73.5t79.5 29.5z" unicode="å"/>
<glyph glyph-name="ae" d="M211 263q-127 0 -127 -107q0 -50 20 -76.5t54 -26.5q32 0 56.5 23t53.5 74q-14 46 -14 113h-43zM432 468q-46 0 -68 -38.5t-29 -131.5h190q-2 87 -22.5 128.5t-70.5 41.5zM435 538q172 0 172 -259q0 -22 -2 -46h-270q7 -90 34 -132t79 -42q47 0 100 39l38 -57 q-65 -52 -139 -52q-96 0 -148 89q-35 -48 -69.5 -68.5t-83.5 -20.5q-70 0 -111 44t-41 118q0 82 54.5 125.5t159.5 43.5h46v44q0 104 -91 104q-42 0 -105 -27l-22 63q71 34 135 34q103 0 138 -88q14 41 46.5 64.5t79.5 23.5z" unicode="æ"/>
<glyph glyph-name="ccedilla" d="M359 -57q46 -4 69 -27.5t23 -55.5q0 -47 -35 -72.5t-86 -25.5q-63 0 -105 24l27 48q30 -16 68 -16q60 0 60 42q0 25 -21.5 34t-65.5 9l7 88q-99 12 -153.5 84t-54.5 186q0 122 66 199.5t181 77.5q100 0 176 -62l-42 -57q-65 49 -135 49q-71 0 -113.5 -53t-42.5 -154 t42.5 -151t113.5 -50q75 0 138 50l40 -58q-63 -54 -157 -62v-47z" unicode="ç"/>
<glyph glyph-name="egrave" d="M306 469q-59 0 -97 -43.5t-43 -127.5h276q-1 84 -37 127.5t-99 43.5zM166 234q3 -88 46 -132t108 -44q80 0 141 49l39 -57q-79 -61 -180 -61q-114 0 -177.5 74.5t-63.5 199.5q0 120 62.5 197.5t163.5 77.5q102 0 159.5 -69.5t57.5 -189.5q0 -23 -2 -45h-354zM195 715 l44 72l185 -117l-27 -46z" unicode="è"/>
<glyph glyph-name="eacute" d="M306 469q-59 0 -97 -43.5t-43 -127.5h276q-1 84 -37 127.5t-99 43.5zM166 234q3 -88 46 -132t108 -44q80 0 141 49l39 -57q-79 -61 -180 -61q-114 0 -177.5 74.5t-63.5 199.5q0 120 62.5 197.5t163.5 77.5q102 0 159.5 -69.5t57.5 -189.5q0 -23 -2 -45h-354zM380 785 l44 -71l-201 -90l-28 46z" unicode="é"/>
<glyph glyph-name="ecircumflex" d="M306 469q-59 0 -97 -43.5t-43 -127.5h276q-1 84 -37 127.5t-99 43.5zM166 234q3 -88 46 -132t108 -44q80 0 141 49l39 -57q-79 -61 -180 -61q-114 0 -177.5 74.5t-63.5 199.5q0 120 62.5 197.5t163.5 77.5q102 0 159.5 -69.5t57.5 -189.5q0 -23 -2 -45h-354zM147 670 l136 119h56l134 -119l-38 -41l-124 91l-124 -91z" unicode="ê"/>
<glyph glyph-name="edieresis" d="M306 469q-59 0 -97 -43.5t-43 -127.5h276q-1 84 -37 127.5t-99 43.5zM166 234q3 -88 46 -132t108 -44q80 0 141 49l39 -57q-79 -61 -180 -61q-114 0 -177.5 74.5t-63.5 199.5q0 120 62.5 197.5t163.5 77.5q102 0 159.5 -69.5t57.5 -189.5q0 -23 -2 -45h-354zM206 648 q-23 0 -38.5 15t-15.5 38t15.5 38.5t38.5 15.5t38.5 -15.5t15.5 -38.5q0 -22 -15.5 -37.5t-38.5 -15.5zM412 648q-22 0 -37.5 15t-15.5 38t15 38.5t38 15.5q24 0 39.5 -15.5t15.5 -38.5t-15.5 -38t-39.5 -15z" unicode="ë"/>
<glyph glyph-name="igrave" d="M367 66h148v-66h-394v66h163v395h-158v65h241v-460zM186 715l44 72l185 -117l-27 -46z" unicode="ì"/>
<glyph glyph-name="iacute" d="M367 66h148v-66h-394v66h163v395h-158v65h241v-460zM371 785l44 -71l-201 -90l-28 46z" unicode="í"/>
<glyph glyph-name="icircumflex" d="M367 66h148v-66h-394v66h163v395h-158v65h241v-460zM138 670l136 119h56l134 -119l-38 -41l-124 91l-124 -91z" unicode="î"/>
<glyph glyph-name="idieresis" d="M367 66h148v-66h-394v66h163v395h-158v65h241v-460zM197 648q-23 0 -38.5 15t-15.5 38t15.5 38.5t38.5 15.5t38.5 -15.5t15.5 -38.5q0 -22 -15.5 -37.5t-38.5 -15.5zM403 648q-23 0 -38 15t-15 38t15 38.5t38 15.5q24 0 39.5 -15.5t15.5 -38.5t-15.5 -38t-39.5 -15z" unicode="ï"/>
<glyph glyph-name="eth" d="M448 267q0 35 -3 66q-52 81 -155 81q-59 0 -98.5 -44.5t-39.5 -130.5q0 -87 39 -135t103 -48q72 0 113 54.5t41 156.5zM251 647q-46 22 -117 36l18 66q96 -21 150 -50l69 74l51 -44l-62 -64q88 -61 130 -159.5t42 -242.5q0 -126 -64.5 -200t-172.5 -74q-98 0 -163 65.5 t-65 180.5q0 108 62.5 177t150.5 69q98 0 158 -69q-26 125 -130 201l-79 -81l-59 30z" unicode="ð"/>
<glyph glyph-name="ntilde" d="M101 526h71l6 -73q32 40 79 62.5t95 22.5q148 0 148 -156v-382h-83v320q0 87 -16.5 119.5t-73.5 32.5q-43 0 -81.5 -26t-61.5 -62v-384h-83v526zM351 654q-32 0 -64.5 24.5t-44.5 24.5q-26 0 -51 -44l-54 24q37 84 111 84q33 0 65 -24t44 -24q26 0 51 44l54 -24 q-39 -85 -111 -85z" unicode="ñ"/>
<glyph glyph-name="ograve" d="M301 470q-138 0 -138 -207q0 -206 137 -206t137 207q0 206 -136 206zM301 538q109 0 167 -73.5t58 -200.5q0 -124 -59 -199.5t-167 -75.5q-109 0 -167.5 73.5t-58.5 200.5q0 125 59.5 200t167.5 75zM185 715l44 72l185 -117l-27 -46z" unicode="ò"/>
<glyph glyph-name="oacute" d="M301 470q-138 0 -138 -207q0 -206 137 -206t137 207q0 206 -136 206zM301 538q109 0 167 -73.5t58 -200.5q0 -124 -59 -199.5t-167 -75.5q-109 0 -167.5 73.5t-58.5 200.5q0 125 59.5 200t167.5 75zM370 785l44 -71l-201 -90l-28 46z" unicode="ó"/>
<glyph glyph-name="ocircumflex" d="M301 470q-138 0 -138 -207q0 -206 137 -206t137 207q0 206 -136 206zM301 538q109 0 167 -73.5t58 -200.5q0 -124 -59 -199.5t-167 -75.5q-109 0 -167.5 73.5t-58.5 200.5q0 125 59.5 200t167.5 75zM137 670l136 119h56l134 -119l-38 -41l-124 91l-124 -91z" unicode="ô"/>
<glyph glyph-name="otilde" d="M301 470q-138 0 -138 -207q0 -206 137 -206t137 207q0 206 -136 206zM301 538q109 0 167 -73.5t58 -200.5q0 -124 -59 -199.5t-167 -75.5q-109 0 -167.5 73.5t-58.5 200.5q0 125 59.5 200t167.5 75zM351 652q-32 0 -64.5 24.5t-44.5 24.5q-26 0 -51 -44l-54 24 q37 84 111 84q33 0 65 -24t44 -24q26 0 51 44l54 -24q-39 -85 -111 -85z" unicode="õ"/>
<glyph glyph-name="odieresis" d="M301 470q-138 0 -138 -207q0 -206 137 -206t137 207q0 206 -136 206zM301 538q109 0 167 -73.5t58 -200.5q0 -124 -59 -199.5t-167 -75.5q-109 0 -167.5 73.5t-58.5 200.5q0 125 59.5 200t167.5 75zM196 648q-23 0 -38.5 15t-15.5 38t15.5 38.5t38.5 15.5t38.5 -15.5 t15.5 -38.5q0 -22 -15.5 -37.5t-38.5 -15.5zM402 648q-22 0 -37.5 15t-15.5 38t15 38.5t38 15.5q24 0 39.5 -15.5t15.5 -38.5t-15.5 -38t-39.5 -15z" unicode="ö"/>
<glyph glyph-name="divide" d="M300 183q28 0 47.5 -19.5t19.5 -47.5t-19.5 -47.5t-47.5 -19.5t-47.5 19.5t-19.5 47.5t19.5 47.5t47.5 19.5zM484 276h-368v71h368v-71zM300 574q28 0 47.5 -19.5t19.5 -46.5q0 -28 -19.5 -47t-47.5 -19t-47.5 19t-19.5 47q0 27 19.5 46.5t47.5 19.5z" unicode="÷"/>
<glyph glyph-name="oslash" d="M417 508q109 -67 109 -244q0 -124 -59 -199.5t-167 -75.5q-23 0 -50 5l-37 -124l-70 20l42 129q-111 67 -111 244q0 125 59.5 200t167.5 75q22 0 49 -5l38 121l70 -20zM300 57q137 0 137 207q0 131 -52 177l-118 -381q15 -3 33 -3zM301 469q-138 0 -138 -206 q0 -134 53 -179l118 382q-15 3 -33 3z" unicode="ø"/>
<glyph glyph-name="ugrave" d="M184 153q0 -51 21.5 -74.5t67.5 -23.5q42 0 81.5 24.5t61.5 59.5v387h83v-526h-71l-7 71q-30 -39 -75.5 -60.5t-92.5 -21.5q-75 0 -113.5 40t-38.5 114v383h83v-373zM185 715l44 72l185 -117l-27 -46z" unicode="ù"/>
<glyph glyph-name="uacute" d="M184 153q0 -51 21.5 -74.5t67.5 -23.5q42 0 81.5 24.5t61.5 59.5v387h83v-526h-71l-7 71q-30 -39 -75.5 -60.5t-92.5 -21.5q-75 0 -113.5 40t-38.5 114v383h83v-373zM370 785l44 -71l-201 -90l-28 46z" unicode="ú"/>
<glyph glyph-name="ucircumflex" d="M184 153q0 -51 21.5 -74.5t67.5 -23.5q42 0 81.5 24.5t61.5 59.5v387h83v-526h-71l-7 71q-30 -39 -75.5 -60.5t-92.5 -21.5q-75 0 -113.5 40t-38.5 114v383h83v-373zM137 670l136 119h56l134 -119l-38 -41l-124 91l-124 -91z" unicode="û"/>
<glyph glyph-name="udieresis" d="M184 153q0 -51 21.5 -74.5t67.5 -23.5q42 0 81.5 24.5t61.5 59.5v387h83v-526h-71l-7 71q-30 -39 -75.5 -60.5t-92.5 -21.5q-75 0 -113.5 40t-38.5 114v383h83v-373zM196 648q-23 0 -38.5 15t-15.5 38t15.5 38.5t38.5 15.5t38.5 -15.5t15.5 -38.5q0 -22 -15.5 -37.5 t-38.5 -15.5zM402 648q-22 0 -37.5 15t-15.5 38t15 38.5t38 15.5q24 0 39.5 -15.5t15.5 -38.5t-15.5 -38t-39.5 -15z" unicode="ü"/>
<glyph glyph-name="yacute" d="M353 -3q-32 -91 -85 -145t-149 -64l-13 67q77 13 111 45.5t57 99.5h-28l-184 526h89l152 -463l149 463h86zM370 785l44 -71l-201 -90l-28 46z" unicode="ý"/>
<glyph glyph-name="thorn" d="M184 461q59 77 152 77q190 0 190 -274q0 -125 -52 -200t-151 -75q-87 0 -139 60v-251l-83 -10v951l83 10v-288zM316 471q-75 0 -132 -85v-262q43 -66 121 -66q132 0 132 206q0 207 -121 207z" unicode="þ"/>
<glyph glyph-name="ydieresis" d="M353 -3q-32 -91 -85 -145t-149 -64l-13 67q77 13 111 45.5t57 99.5h-28l-184 526h89l152 -463l149 463h86zM196 648q-23 0 -38.5 15t-15.5 38t15.5 38.5t38.5 15.5t38.5 -15.5t15.5 -38.5q0 -22 -15.5 -37.5t-38.5 -15.5zM402 648q-22 0 -37.5 15t-15.5 38t15 38.5 t38 15.5q24 0 39.5 -15.5t15.5 -38.5t-15.5 -38t-39.5 -15z" unicode="ÿ"/>
<glyph glyph-name="Amacron" d="M161 176l-56 -176h-84l224 688h110l224 -688h-90l-55 176h-273zM412 247l-114 369l-115 -369h229zM165 795v64h269v-64h-269z" unicode="Ā"/>
<glyph glyph-name="amacron" d="M260 52q39 0 74.5 19.5t58.5 55.5v136h-76q-159 0 -159 -111q0 -100 102 -100zM477 114q0 -30 10 -45t33 -22l-20 -59q-75 10 -96 75q-57 -74 -165 -74q-79 0 -124.5 44t-45.5 118q0 81 63.5 125t183.5 44h77v44q0 104 -125 104q-63 0 -137 -26l-22 62q91 34 171 34 q96 0 146.5 -45t50.5 -125v-254zM157 676v64h269v-64h-269z" unicode="ā"/>
<glyph glyph-name="Abreve" d="M161 176l-56 -176h-84l224 688h110l224 -688h-90l-55 176h-273zM412 247l-114 369l-115 -369h229zM298 759q-58 0 -99.5 32.5t-47.5 86.5l57 12q24 -67 90 -67q69 0 93 67l57 -12q-6 -54 -48.5 -86.5t-101.5 -32.5z" unicode="Ă"/>
<glyph glyph-name="abreve" d="M260 52q39 0 74.5 19.5t58.5 55.5v136h-76q-159 0 -159 -111q0 -100 102 -100zM477 114q0 -30 10 -45t33 -22l-20 -59q-75 10 -96 75q-57 -74 -165 -74q-79 0 -124.5 44t-45.5 118q0 81 63.5 125t183.5 44h77v44q0 104 -125 104q-63 0 -137 -26l-22 62q91 34 171 34 q96 0 146.5 -45t50.5 -125v-254zM290 630q-63 0 -101.5 41.5t-45.5 93.5l57 13q24 -84 90 -84q68 0 93 84l57 -13q-7 -52 -46.5 -93.5t-103.5 -41.5z" unicode="ă"/>
<glyph glyph-name="Aogonek" d="M412 247l-114 369l-115 -369h229zM539 0q-72 -32 -98 -58.5t-26 -56.5q0 -47 55 -47q33 0 62 7l-8 -67q-35 -7 -64 -7q-56 0 -88.5 28t-32.5 70q0 95 145 148l-50 159h-273l-56 -176h-84l224 688h110l224 -688h-40z" unicode="Ą"/>
<glyph glyph-name="aogonek" d="M393 263h-76q-159 0 -159 -111q0 -100 102 -100q39 0 74.5 19.5t58.5 55.5v136zM500 -12q-72 -32 -98 -58.5t-26 -56.5q0 -47 55 -47q33 0 62 7l-8 -67q-35 -7 -64 -7q-56 0 -88.5 28t-32.5 70q0 96 148 149q-33 20 -44 57q-57 -74 -165 -74q-79 0 -124.5 44t-45.5 118 q0 81 63.5 125t183.5 44h77v44q0 104 -125 104q-63 0 -137 -26l-22 62q91 34 171 34q96 0 146.5 -45t50.5 -125v-254q0 -30 10 -45t33 -22z" unicode="ą"/>
<glyph glyph-name="Cacute" d="M358 700q115 0 199 -67l-48 -56q-62 51 -145 51q-94 0 -152.5 -67.5t-58.5 -215.5q0 -146 57.5 -214.5t152.5 -68.5q88 0 160 58l44 -57q-76 -74 -205 -74q-131 0 -214.5 93.5t-83.5 262.5q0 167 84.5 261t209.5 94zM485 834l-213 -78l-22 44l198 105z" unicode="Ć"/>
<glyph glyph-name="cacute" d="M338 60q75 0 138 50l40 -58q-34 -29 -82.5 -46t-95.5 -17q-116 0 -181 73.5t-65 198.5q0 122 66 199.5t181 77.5q100 0 176 -62l-42 -57q-65 49 -135 49q-71 0 -113.5 -53t-42.5 -154t42.5 -151t113.5 -50zM414 777l44 -71l-201 -90l-28 46z" unicode="ć"/>
<glyph glyph-name="Ccircumflex" d="M358 700q115 0 199 -67l-48 -56q-62 51 -145 51q-94 0 -152.5 -67.5t-58.5 -215.5q0 -146 57.5 -214.5t152.5 -68.5q88 0 160 58l44 -57q-76 -74 -205 -74q-131 0 -214.5 93.5t-83.5 262.5q0 167 84.5 261t209.5 94zM529 803l-37 -43l-126 81l-125 -81l-38 43l136 107h56 z" unicode="Ĉ"/>
<glyph glyph-name="ccircumflex" d="M338 60q75 0 138 50l40 -58q-34 -29 -82.5 -46t-95.5 -17q-116 0 -181 73.5t-65 198.5q0 122 66 199.5t181 77.5q100 0 176 -62l-42 -57q-65 49 -135 49q-71 0 -113.5 -53t-42.5 -154t42.5 -151t113.5 -50zM181 662l136 119h56l134 -119l-38 -41l-124 91l-124 -91z" unicode="ĉ"/>
<glyph glyph-name="Cdotaccent" d="M358 700q115 0 199 -67l-48 -56q-62 51 -145 51q-94 0 -152.5 -67.5t-58.5 -215.5q0 -146 57.5 -214.5t152.5 -68.5q88 0 160 58l44 -57q-76 -74 -205 -74q-131 0 -214.5 93.5t-83.5 262.5q0 167 84.5 261t209.5 94zM364 892q27 0 44 -17t17 -42q0 -26 -17 -42.5 t-44 -16.5t-43.5 16.5t-16.5 42.5q0 25 16.5 42t43.5 17z" unicode="Ċ"/>
<glyph glyph-name="cdotaccent" d="M338 60q75 0 138 50l40 -58q-34 -29 -82.5 -46t-95.5 -17q-116 0 -181 73.5t-65 198.5q0 122 66 199.5t181 77.5q100 0 176 -62l-42 -57q-65 49 -135 49q-71 0 -113.5 -53t-42.5 -154t42.5 -151t113.5 -50zM343 765q27 0 44 -17t17 -42q0 -26 -17 -42.5t-44 -16.5 t-43.5 16.5t-16.5 42.5q0 25 16.5 42t43.5 17z" unicode="ċ"/>
<glyph glyph-name="Ccaron" d="M358 700q115 0 199 -67l-48 -56q-62 51 -145 51q-94 0 -152.5 -67.5t-58.5 -215.5q0 -146 57.5 -214.5t152.5 -68.5q88 0 160 58l44 -57q-76 -74 -205 -74q-131 0 -214.5 93.5t-83.5 262.5q0 167 84.5 261t209.5 94zM529 862l-134 -108h-56l-136 108l38 42l125 -81 l126 81z" unicode="Č"/>
<glyph glyph-name="ccaron" d="M338 60q75 0 138 50l40 -58q-34 -29 -82.5 -46t-95.5 -17q-116 0 -181 73.5t-65 198.5q0 122 66 199.5t181 77.5q100 0 176 -62l-42 -57q-65 49 -135 49q-71 0 -113.5 -53t-42.5 -154t42.5 -151t113.5 -50zM507 740l-134 -119h-56l-136 119l40 41l124 -91l124 91z" unicode="č"/>
<glyph glyph-name="Dcaron" d="M461 348q0 85 -18.5 142.5t-52 83.5t-65.5 35t-74 9h-82v-549h83q41 0 75 12t66 41t50 86.5t18 139.5zM552 348q0 -83 -19 -146.5t-49 -101t-72.5 -61t-83 -31.5t-87.5 -8h-157v688h146q53 0 96 -7.5t86.5 -30t73 -59t48 -98.5t18.5 -145zM447 862l-134 -108h-56 l-136 108l38 42l125 -81l126 81z" unicode="Ď"/>
<glyph glyph-name="dcaron" d="M470 739v-739h-72l-8 69q-58 -80 -150 -80q-100 0 -150 73t-50 200q0 122 55 199t151 77q87 0 142 -63v274zM267 471q-137 0 -137 -208q0 -207 127 -207q75 0 131 83v264q-47 68 -121 68zM612 738l-53 -178l-47 7l25 180z" unicode="ď"/>
<glyph glyph-name="Dcroat" d="M262 69q208 0 208 279q0 85 -18.5 142.5t-51.5 83.5t-65 35t-74 9h-82v-232h159v-66h-159v-251h83zM240 688q53 0 96 -7.5t86.5 -30t73 -59t48 -98.5t18.5 -145t-19 -146.5t-49 -101t-72.5 -61t-83 -31.5t-87.5 -8h-158v320h-73v66h73v302h147z" unicode="Đ"/>
<glyph glyph-name="dcroat" d="M581 598h-79v-598h-73l-8 69q-57 -80 -149 -80q-100 0 -150.5 73t-50.5 200q0 122 55 199t151 77q87 0 142 -63v123h-172v66h172v85l83 -10v-75h79v-66zM419 403q-47 68 -120 68q-67 0 -102.5 -52.5t-35.5 -155.5q0 -207 128 -207q74 0 130 83v264z" unicode="đ"/>
<glyph glyph-name="Emacron" d="M212 385h255v-71h-255v-245h313v-69h-399v688h390l-10 -70h-294v-233zM186 795v64h269v-64h-269z" unicode="Ē"/>
<glyph glyph-name="emacron" d="M306 469q-59 0 -97 -43.5t-43 -127.5h276q-1 84 -37 127.5t-99 43.5zM166 234q3 -88 46 -132t108 -44q80 0 141 49l39 -57q-79 -61 -180 -61q-114 0 -177.5 74.5t-63.5 199.5q0 120 62.5 197.5t163.5 77.5q102 0 159.5 -69.5t57.5 -189.5q0 -23 -2 -45h-354zM175 676v64 h269v-64h-269z" unicode="ē"/>
<glyph glyph-name="Ebreve" d="M212 385h255v-71h-255v-245h313v-69h-399v688h390l-10 -70h-294v-233zM319 759q-58 0 -99.5 32.5t-47.5 86.5l57 12q24 -67 90 -67q69 0 93 67l57 -12q-6 -54 -48.5 -86.5t-101.5 -32.5z" unicode="Ĕ"/>
<glyph glyph-name="ebreve" d="M306 469q-59 0 -97 -43.5t-43 -127.5h276q-1 84 -37 127.5t-99 43.5zM166 234q3 -88 46 -132t108 -44q80 0 141 49l39 -57q-79 -61 -180 -61q-114 0 -177.5 74.5t-63.5 199.5q0 120 62.5 197.5t163.5 77.5q102 0 159.5 -69.5t57.5 -189.5q0 -23 -2 -45h-354zM308 630 q-63 0 -101.5 41.5t-45.5 93.5l57 13q24 -84 90 -84q68 0 93 84l57 -13q-7 -52 -46.5 -93.5t-103.5 -41.5z" unicode="ĕ"/>
<glyph glyph-name="Edotaccent" d="M212 385h255v-71h-255v-245h313v-69h-399v688h390l-10 -70h-294v-233zM320 892q27 0 44 -17t17 -42q0 -26 -17 -42.5t-44 -16.5t-43.5 16.5t-16.5 42.5q0 25 16.5 42t43.5 17z" unicode="Ė"/>
<glyph glyph-name="edotaccent" d="M306 469q-59 0 -97 -43.5t-43 -127.5h276q-1 84 -37 127.5t-99 43.5zM166 234q3 -88 46 -132t108 -44q80 0 141 49l39 -57q-79 -61 -180 -61q-114 0 -177.5 74.5t-63.5 199.5q0 120 62.5 197.5t163.5 77.5q102 0 159.5 -69.5t57.5 -189.5q0 -23 -2 -45h-354zM309 773 q27 0 44 -17t17 -42q0 -26 -17 -42.5t-44 -16.5t-43.5 16.5t-16.5 42.5q0 25 16.5 42t43.5 17z" unicode="ė"/>
<glyph glyph-name="Eogonek" d="M525 69v-69h-57q-72 -32 -98 -58.5t-26 -56.5q0 -47 55 -47q33 0 62 7l-8 -67q-35 -7 -64 -7q-56 0 -88.5 28t-32.5 70q0 82 105 131h-247v688h390l-10 -70h-294v-233h255v-71h-255v-245h313z" unicode="Ę"/>
<glyph glyph-name="eogonek" d="M442 298q-1 84 -37 127.5t-99 43.5q-59 0 -97 -43.5t-43 -127.5h276zM522 279q0 -23 -2 -45h-354q3 -88 46 -132t108 -44q80 0 141 49l39 -57q-46 -35 -101 -50q-72 -32 -98 -58.5t-26 -56.5q0 -47 55 -47q33 0 62 7l-8 -67q-35 -7 -64 -7q-56 0 -88.5 28t-32.5 70 q0 79 102 121q-105 6 -163.5 79.5t-58.5 193.5t62.5 197.5t163.5 77.5q102 0 159.5 -69.5t57.5 -189.5z" unicode="ę"/>
<glyph glyph-name="Ecaron" d="M212 385h255v-71h-255v-245h313v-69h-399v688h390l-10 -70h-294v-233zM484 862l-134 -108h-56l-136 108l38 42l125 -81l126 81z" unicode="Ě"/>
<glyph glyph-name="ecaron" d="M306 469q-59 0 -97 -43.5t-43 -127.5h276q-1 84 -37 127.5t-99 43.5zM166 234q3 -88 46 -132t108 -44q80 0 141 49l39 -57q-79 -61 -180 -61q-114 0 -177.5 74.5t-63.5 199.5q0 120 62.5 197.5t163.5 77.5q102 0 159.5 -69.5t57.5 -189.5q0 -23 -2 -45h-354zM473 748 l-134 -119h-56l-136 119l40 41l124 -91l124 91z" unicode="ě"/>
<glyph glyph-name="Gcircumflex" d="M314 -11q-125 0 -196.5 90.5t-71.5 265.5q0 169 84.5 262t203.5 93q64 0 108.5 -18.5t87.5 -57.5l-52 -54q-61 57 -144 57q-85 0 -141 -67.5t-56 -214.5q0 -148 46 -216t138 -68q72 0 132 33v211h-136l-10 71h231v-328q-111 -59 -224 -59zM493 803l-37 -43l-126 81 l-125 -81l-38 43l136 107h56z" unicode="Ĝ"/>
<glyph glyph-name="gcircumflex" d="M554 503q-52 -15 -154 -15q92 -42 92 -132q0 -80 -53 -130t-145 -50q-44 0 -79 11q-27 -20 -27 -52q0 -44 70 -44h95q79 0 132.5 -41t53.5 -102q0 -77 -65.5 -118.5t-185.5 -41.5q-123 0 -172.5 38t-49.5 121h75q0 -49 30.5 -70t115.5 -21q168 0 168 87q0 36 -33.5 56 t-85.5 20h-94q-65 0 -99 28.5t-34 70.5q0 54 58 92q-88 45 -88 145q0 81 58.5 132t151.5 51q91 0 138 10t101 34zM288 477q-61 0 -92.5 -33t-31.5 -89t32 -89.5t94 -33.5q56 0 85.5 32.5t29.5 91.5q0 121 -117 121zM139 670l136 119h56l134 -119l-38 -41l-124 91l-124 -91z " unicode="ĝ"/>
<glyph glyph-name="Gbreve" d="M314 -11q-125 0 -196.5 90.5t-71.5 265.5q0 169 84.5 262t203.5 93q64 0 108.5 -18.5t87.5 -57.5l-52 -54q-61 57 -144 57q-85 0 -141 -67.5t-56 -214.5q0 -148 46 -216t138 -68q72 0 132 33v211h-136l-10 71h231v-328q-111 -59 -224 -59zM328 759q-58 0 -99.5 32.5 t-47.5 86.5l57 12q24 -67 90 -67q69 0 93 67l57 -12q-6 -54 -48.5 -86.5t-101.5 -32.5z" unicode="Ğ"/>
<glyph glyph-name="gbreve" d="M554 503q-52 -15 -154 -15q92 -42 92 -132q0 -80 -53 -130t-145 -50q-44 0 -79 11q-27 -20 -27 -52q0 -44 70 -44h95q79 0 132.5 -41t53.5 -102q0 -77 -65.5 -118.5t-185.5 -41.5q-123 0 -172.5 38t-49.5 121h75q0 -49 30.5 -70t115.5 -21q168 0 168 87q0 36 -33.5 56 t-85.5 20h-94q-65 0 -99 28.5t-34 70.5q0 54 58 92q-88 45 -88 145q0 81 58.5 132t151.5 51q91 0 138 10t101 34zM288 477q-61 0 -92.5 -33t-31.5 -89t32 -89.5t94 -33.5q56 0 85.5 32.5t29.5 91.5q0 121 -117 121zM300 630q-63 0 -101.5 41.5t-45.5 93.5l57 13 q24 -84 90 -84q68 0 93 84l57 -13q-7 -52 -46.5 -93.5t-103.5 -41.5z" unicode="ğ"/>
<glyph glyph-name="Gdotaccent" d="M314 -11q-125 0 -196.5 90.5t-71.5 265.5q0 169 84.5 262t203.5 93q64 0 108.5 -18.5t87.5 -57.5l-52 -54q-61 57 -144 57q-85 0 -141 -67.5t-56 -214.5q0 -148 46 -216t138 -68q72 0 132 33v211h-136l-10 71h231v-328q-111 -59 -224 -59zM329 892q27 0 44 -17t17 -42 q0 -26 -17 -42.5t-44 -16.5t-43.5 16.5t-16.5 42.5q0 25 16.5 42t43.5 17z" unicode="Ġ"/>
<glyph glyph-name="gdotaccent" d="M554 503q-52 -15 -154 -15q92 -42 92 -132q0 -80 -53 -130t-145 -50q-44 0 -79 11q-27 -20 -27 -52q0 -44 70 -44h95q79 0 132.5 -41t53.5 -102q0 -77 -65.5 -118.5t-185.5 -41.5q-123 0 -172.5 38t-49.5 121h75q0 -49 30.5 -70t115.5 -21q168 0 168 87q0 36 -33.5 56 t-85.5 20h-94q-65 0 -99 28.5t-34 70.5q0 54 58 92q-88 45 -88 145q0 81 58.5 132t151.5 51q91 0 138 10t101 34zM288 477q-61 0 -92.5 -33t-31.5 -89t32 -89.5t94 -33.5q56 0 85.5 32.5t29.5 91.5q0 121 -117 121zM301 773q27 0 44 -17t17 -42q0 -26 -17 -42.5t-44 -16.5 t-43.5 16.5t-16.5 42.5q0 25 16.5 42t43.5 17z" unicode="ġ"/>
<glyph glyph-name="Gcommaaccent" d="M334 -71q23 0 38.5 -15t15.5 -38t-15 -54l-50 -108h-50l29 118q-22 17 -22 44q0 23 15.5 38t38.5 15zM314 -11q-125 0 -196.5 90.5t-71.5 265.5q0 169 84.5 262t203.5 93q64 0 108.5 -18.5t87.5 -57.5l-52 -54q-61 57 -144 57q-85 0 -141 -67.5t-56 -214.5 q0 -148 46 -216t138 -68q72 0 132 33v211h-136l-10 71h231v-328q-111 -59 -224 -59z" unicode="Ģ"/>
<glyph glyph-name="gcommaaccent" d="M554 503q-52 -15 -154 -15q92 -42 92 -132q0 -80 -53 -130t-145 -50q-44 0 -79 11q-27 -20 -27 -52q0 -44 70 -44h95q79 0 132.5 -41t53.5 -102q0 -77 -65.5 -118.5t-185.5 -41.5q-123 0 -172.5 38t-49.5 121h75q0 -49 30.5 -70t115.5 -21q168 0 168 87q0 36 -33.5 56 t-85.5 20h-94q-65 0 -99 28.5t-34 70.5q0 54 58 92q-88 45 -88 145q0 81 58.5 132t151.5 51q91 0 138 10t101 34zM288 477q-61 0 -92.5 -33t-31.5 -89t32 -89.5t94 -33.5q56 0 85.5 32.5t29.5 91.5q0 121 -117 121zM299 597q-23 0 -38.5 15t-15.5 38t15 54l50 108h50 l-29 -118q22 -17 22 -44q0 -23 -15.5 -38t-38.5 -15z" unicode="ģ"/>
<glyph glyph-name="Hcircumflex" d="M431 328h-262v-328h-85v688h85v-291h262v291h85v-688h-85v328zM463 803l-37 -43l-126 81l-125 -81l-38 43l136 107h56z" unicode="Ĥ"/>
<glyph glyph-name="hcircumflex" d="M184 454q30 40 75 62t93 22q148 0 148 -156v-382h-83v381q0 47 -22 69t-69 22q-42 0 -80.5 -26.5t-61.5 -61.5v-384h-83v737l83 10v-293zM463 853l-37 -43l-126 81l-125 -81l-38 43l136 107h56z" unicode="ĥ"/>
<glyph glyph-name="Hbar" d="M598 509h-81v-509h-86v327h-262v-327h-86v509h-81v66h81v113h86v-113h262v113h86v-113h81v-66zM431 509h-262v-111h262v111z" unicode="Ħ"/>
<glyph glyph-name="hbar" d="M352 538q148 0 148 -156v-382h-83v381q0 47 -22 69t-69 22q-42 0 -80.5 -26.5t-61.5 -61.5v-384h-83v598h-82v66h82v73l83 10v-83h169v-66h-169v-144q30 40 75 62t93 22z" unicode="ħ"/>
<glyph glyph-name="Itilde" d="M497 620h-154v-551h154v-69h-394v69h154v551h-154v68h394v-68zM351 771q-32 0 -64.5 24.5t-44.5 24.5q-26 0 -51 -44l-54 24q37 84 111 84q33 0 65 -24t44 -24q26 0 51 44l54 -24q-39 -85 -111 -85z" unicode="Ĩ"/>
<glyph glyph-name="itilde" d="M367 66h148v-66h-394v66h163v395h-158v65h241v-460zM352 652q-32 0 -64.5 24.5t-44.5 24.5q-26 0 -51 -44l-54 24q37 84 111 84q33 0 65 -24t44 -24q26 0 51 44l54 -24q-39 -85 -111 -85z" unicode="ĩ"/>
<glyph glyph-name="Imacron" d="M497 620h-154v-551h154v-69h-394v69h154v551h-154v68h394v-68zM165 795v64h269v-64h-269z" unicode="Ī"/>
<glyph glyph-name="imacron" d="M367 66h148v-66h-394v66h163v395h-158v65h241v-460zM166 676v64h269v-64h-269z" unicode="ī"/>
<glyph glyph-name="Ibreve" d="M497 620h-154v-551h154v-69h-394v69h154v551h-154v68h394v-68zM298 759q-58 0 -99.5 32.5t-47.5 86.5l57 12q24 -67 90 -67q69 0 93 67l57 -12q-6 -54 -48.5 -86.5t-101.5 -32.5z" unicode="Ĭ"/>
<glyph glyph-name="ibreve" d="M367 66h148v-66h-394v66h163v395h-158v65h241v-460zM299 630q-63 0 -101.5 41.5t-45.5 93.5l57 13q24 -84 90 -84q68 0 93 84l57 -13q-7 -52 -46.5 -93.5t-103.5 -41.5z" unicode="ĭ"/>
<glyph glyph-name="Iogonek" d="M343 620v-551h154v-69h-153q-72 -32 -98 -58.5t-26 -56.5q0 -47 55 -47q33 0 62 7l-8 -67q-35 -7 -64 -7q-56 0 -88.5 28t-32.5 70q0 82 105 131h-146v69h154v551h-154v68h394v-68h-154z" unicode="Į"/>
<glyph glyph-name="iogonek" d="M515 66v-66h-148q-72 -32 -98 -58.5t-26 -56.5q0 -47 55 -47q33 0 62 7l-8 -67q-35 -7 -64 -7q-56 0 -88.5 28t-32.5 70q0 82 105 131h-151v66h163v395h-158v65h241v-460h148zM300 655q-27 0 -43.5 16.5t-16.5 42.5q0 25 16.5 42t43.5 17t44 -17t17 -42q0 -26 -17 -42.5 t-44 -16.5z" unicode="į"/>
<glyph glyph-name="Idotaccent" d="M497 620h-154v-551h154v-69h-394v69h154v551h-154v68h394v-68zM299 892q27 0 44 -17t17 -42q0 -26 -17 -42.5t-44 -16.5t-43.5 16.5t-16.5 42.5q0 25 16.5 42t43.5 17z" unicode="İ"/>
<glyph glyph-name="dotlessi" d="M367 66h148v-66h-394v66h163v395h-158v65h241v-460z" unicode="ı"/>
<glyph glyph-name="IJ" d="M195 -71q144 14 197.5 79t53.5 186v423h-246v-546h80v-71h-269v71h101v546h-101v71h521v-500q0 -63 -14.5 -113.5t-49 -96.5t-101 -75.5t-162.5 -37.5z" unicode="Ĳ"/>
<glyph glyph-name="ij" d="M500 54q0 -101 -68.5 -164t-186.5 -102l-25 65q44 17 72.5 31.5t61 38t49 55t16.5 71.5v414h-197v-397h97v-66h-270v66h94v397h-89v63h446v-472zM184 773q27 0 44 -17t17 -42q0 -26 -17 -42.5t-44 -16.5q-26 0 -43 16.5t-17 42.5q0 25 17 42t43 17zM448 773q27 0 44 -17 t17 -42q0 -26 -17 -42.5t-44 -16.5t-43.5 16.5t-16.5 42.5q0 25 16.5 42t43.5 17z" unicode="ĳ"/>
<glyph glyph-name="Jcircumflex" d="M496 228q0 -46 -11.5 -86t-37 -76t-73 -57t-112.5 -21q-106 0 -189 63l38 57q76 -48 150 -48q71 0 110.5 46t39.5 127v385h-204v70h289v-460zM513 803l-37 -43l-126 81l-125 -81l-38 43l136 107h56z" unicode="Ĵ"/>
<glyph glyph-name="jcircumflex" d="M445 83q0 -127 -85 -197t-250 -98l-14 64q127 21 196.5 73.5t69.5 152.5v383h-220v65h303v-443zM205 670l136 119h56l134 -119l-38 -41l-124 91l-124 -91z" unicode="ĵ"/>
<glyph glyph-name="Kcommaaccent" d="M326 -71q23 0 38.5 -15t15.5 -38t-15 -54l-50 -108h-50l29 118q-22 17 -22 44q0 23 15.5 38t38.5 15zM106 0v688h85v-688h-85zM468 688h99l-270 -315l289 -373h-107l-283 368z" unicode="Ķ"/>
<glyph glyph-name="kcommaaccent" d="M309 -71q23 0 38.5 -15t15.5 -38t-15 -54l-50 -108h-50l29 118q-22 17 -22 44q0 23 15.5 38t38.5 15zM303 289l266 -289h-110l-260 288l234 238h108zM189 0h-83v739l83 10v-749z" unicode="ķ"/>
<glyph glyph-name="kgreenlandic" d="M184 0h-83v526h83v-526zM296 288l267 -288h-110l-260 283l234 243h108z" unicode="ĸ"/>
<glyph glyph-name="Lacute" d="M136 688h86v-611h314l-10 -77h-390v688zM299 834l-213 -78l-22 44l198 105z" unicode="Ĺ"/>
<glyph glyph-name="lacute" d="M305 129q0 -71 87 -71q42 0 89 18l22 -60q-50 -27 -125 -27q-70 0 -113 39t-43 106v539h-162v66h245v-610zM335 997l44 -71l-201 -90l-28 46z" unicode="ĺ"/>
<glyph glyph-name="Lcommaaccent" d="M335 -71q23 0 38.5 -15t15.5 -38t-15 -54l-50 -108h-50l29 118q-22 17 -22 44q0 23 15.5 38t38.5 15zM136 688h86v-611h314l-10 -77h-390v688z" unicode="Ļ"/>
<glyph glyph-name="lcommaaccent" d="M364 -71q23 0 38.5 -15t15.5 -38t-15 -54l-50 -108h-50l29 118q-22 17 -22 44q0 23 15.5 38t38.5 15zM305 129q0 -71 87 -71q42 0 89 18l22 -60q-50 -27 -125 -27q-70 0 -113 39t-43 106v539h-162v66h245v-610z" unicode="ļ"/>
<glyph glyph-name="Lcaron" d="M136 688h86v-611h314l-10 -77h-390v688zM382 687l-53 -177l-47 7l25 179z" unicode="Ľ"/>
<glyph glyph-name="lcaron" d="M305 129q0 -71 87 -71q42 0 89 18l22 -60q-50 -27 -125 -27q-70 0 -113 39t-43 106v539h-162v66h245v-610zM456 738l-53 -177l-47 7l25 179z" unicode="ľ"/>
<glyph glyph-name="Ldot" d="M472 437q27 0 44 -17t17 -42q0 -26 -17 -42.5t-44 -16.5t-43.5 16.5t-16.5 42.5q0 25 16.5 42t43.5 17zM136 688h86v-611h314l-10 -77h-390v688z" unicode="Ŀ"/>
<glyph glyph-name="ldot" d="M560 441q27 0 44 -17t17 -42q0 -26 -17 -42.5t-44 -16.5t-43.5 16.5t-16.5 42.5q0 25 16.5 42t43.5 17zM305 129q0 -71 87 -71q42 0 89 18l22 -60q-50 -27 -125 -27q-70 0 -113 39t-43 106v539h-162v66h245v-610z" unicode="ŀ"/>
<glyph glyph-name="Lslash" d="M534 77l-10 -77h-390v268l-57 -35l-36 56l93 57v342h86v-289l165 103l37 -55l-202 -125v-245h314z" unicode="Ł"/>
<glyph glyph-name="lslash" d="M503 16q-50 -27 -125 -27q-70 0 -113 39t-43 106v172l-68 -41l-35 54l103 62v292h-162v66h245v-306l90 56l35 -54l-125 -78v-228q0 -71 87 -71q42 0 89 18z" unicode="ł"/>
<glyph glyph-name="Nacute" d="M156 589h-4q12 -156 12 -243v-346h-80v688h116l244 -592h4q-12 144 -12 247v345h80v-688h-120zM419 834l-213 -78l-22 44l198 105z" unicode="Ń"/>
<glyph glyph-name="nacute" d="M101 526h71l6 -73q32 40 79 62.5t95 22.5q148 0 148 -156v-382h-83v320q0 87 -16.5 119.5t-73.5 32.5q-43 0 -81.5 -26t-61.5 -62v-384h-83v526zM370 787l44 -71l-201 -90l-28 46z" unicode="ń"/>
<glyph glyph-name="Ncommaaccent" d="M303 -71q23 0 38.5 -15t15.5 -38t-15 -54l-50 -108h-50l29 118q-22 17 -22 44q0 23 15.5 38t38.5 15zM156 589h-4q12 -156 12 -243v-346h-80v688h116l244 -592h4q-12 144 -12 247v345h80v-688h-120z" unicode="Ņ"/>
<glyph glyph-name="ncommaaccent" d="M304 -71q23 0 38.5 -15t15.5 -38t-15 -54l-50 -108h-50l29 118q-22 17 -22 44q0 23 15.5 38t38.5 15zM101 526h71l6 -73q32 40 79 62.5t95 22.5q148 0 148 -156v-382h-83v320q0 87 -16.5 119.5t-73.5 32.5q-43 0 -81.5 -26t-61.5 -62v-384h-83v526z" unicode="ņ"/>
<glyph glyph-name="Ncaron" d="M156 589h-4q12 -156 12 -243v-346h-80v688h116l244 -592h4q-12 144 -12 247v345h80v-688h-120zM462 862l-134 -108h-56l-136 108l38 42l125 -81l126 81z" unicode="Ň"/>
<glyph glyph-name="ncaron" d="M101 526h71l6 -73q32 40 79 62.5t95 22.5q148 0 148 -156v-382h-83v320q0 87 -16.5 119.5t-73.5 32.5q-43 0 -81.5 -26t-61.5 -62v-384h-83v526zM463 750l-134 -119h-56l-136 119l40 41l124 -91l124 91z" unicode="ň"/>
<glyph glyph-name="napostrophe" d="M109 526h71l7 -73q31 40 78.5 62.5t95.5 22.5q148 0 148 -156v-382h-83v320q0 87 -17 119.5t-74 32.5q-43 0 -81 -26t-62 -62v-384h-83v526zM98 749q23 0 38.5 -15.5t15.5 -38.5q0 -22 -26 -76l-42 -89h-49l30 121q-23 21 -23 45q0 22 16.5 37.5t39.5 15.5z" unicode="ŉ"/>
<glyph glyph-name="Eng" d="M516 -6q0 -146 -173 -206l-23 68q66 25 89 57t22 87h-35l-240 589h-4q12 -156 12 -243v-346h-80v688h116l244 -592h4q-12 144 -12 247v345h80v-694z" unicode="Ŋ"/>
<glyph glyph-name="eng" d="M500 28q0 -73 -18.5 -118.5t-48.5 -70t-87 -50.5l-31 61q58 27 80 59.5t22 113.5v297q0 88 -16.5 120t-74.5 32q-42 0 -80.5 -26.5t-61.5 -61.5v-384h-83v526h71l6 -73q32 40 79 62.5t95 22.5q148 0 148 -156v-354z" unicode="ŋ"/>
<glyph glyph-name="Omacron" d="M464 344q0 141 -39 212t-125 71t-125 -71.5t-39 -213.5q0 -281 164 -281q85 0 124.5 71t39.5 212zM553 344q0 -161 -65.5 -258t-187.5 -97q-123 0 -188 95t-65 258q0 162 65.5 260t187.5 98t187.5 -96.5t65.5 -259.5zM165 795v64h269v-64h-269z" unicode="Ō"/>
<glyph glyph-name="omacron" d="M301 470q-138 0 -138 -207q0 -206 137 -206t137 207q0 206 -136 206zM301 538q109 0 167 -73.5t58 -200.5q0 -124 -59 -199.5t-167 -75.5q-109 0 -167.5 73.5t-58.5 200.5q0 125 59.5 200t167.5 75zM165 676v64h269v-64h-269z" unicode="ō"/>
<glyph glyph-name="Obreve" d="M464 344q0 141 -39 212t-125 71t-125 -71.5t-39 -213.5q0 -281 164 -281q85 0 124.5 71t39.5 212zM553 344q0 -161 -65.5 -258t-187.5 -97q-123 0 -188 95t-65 258q0 162 65.5 260t187.5 98t187.5 -96.5t65.5 -259.5zM298 759q-58 0 -99.5 32.5t-47.5 86.5l57 12 q24 -67 90 -67q69 0 93 67l57 -12q-6 -54 -48.5 -86.5t-101.5 -32.5z" unicode="Ŏ"/>
<glyph glyph-name="obreve" d="M301 470q-138 0 -138 -207q0 -206 137 -206t137 207q0 206 -136 206zM301 538q109 0 167 -73.5t58 -200.5q0 -124 -59 -199.5t-167 -75.5q-109 0 -167.5 73.5t-58.5 200.5q0 125 59.5 200t167.5 75zM298 630q-63 0 -101.5 41.5t-45.5 93.5l57 13q24 -84 90 -84 q68 0 93 84l57 -13q-7 -52 -46.5 -93.5t-103.5 -41.5z" unicode="ŏ"/>
<glyph glyph-name="Ohungarumlaut" d="M464 344q0 141 -39 212t-125 71t-125 -71.5t-39 -213.5q0 -281 164 -281q85 0 124.5 71t39.5 212zM553 344q0 -161 -65.5 -258t-187.5 -97q-123 0 -188 95t-65 258q0 162 65.5 260t187.5 98t187.5 -96.5t65.5 -259.5zM260 954l74 -35l-97 -164l-54 26zM434 954l73 -38 l-108 -163l-52 28z" unicode="Ő"/>
<glyph glyph-name="ohungarumlaut" d="M301 470q-138 0 -138 -207q0 -206 137 -206t137 207q0 206 -136 206zM301 538q109 0 167 -73.5t58 -200.5q0 -124 -59 -199.5t-167 -75.5q-109 0 -167.5 73.5t-58.5 200.5q0 125 59.5 200t167.5 75zM254 835l74 -35l-97 -164l-54 26zM428 835l73 -38l-108 -163l-52 28z " unicode="ő"/>
<glyph glyph-name="OE" d="M211 629q-62 0 -91 -67.5t-29 -219.5q0 -150 29.5 -216.5t90.5 -66.5q64 0 93.5 66.5t29.5 218.5t-29 218.5t-94 66.5zM211 700q37 0 71 -12h326l-10 -70h-244q58 -69 65 -234h154v-70h-154q-4 -170 -69 -244h268v-70h-338q-36 -11 -69 -11q-212 0 -212 353 q0 175 53.5 266.5t158.5 91.5z" unicode="Œ"/>
<glyph glyph-name="oe" d="M447 468q-46 0 -68.5 -38.5t-28.5 -131.5h184q-2 88 -21 129t-66 41zM177 471q-48 0 -69 -50.5t-21 -157.5q0 -109 21 -157.5t69 -48.5q49 0 69 46.5t20 160.5q0 107 -20.5 157t-68.5 50zM449 538q166 0 166 -259q0 -22 -2 -46h-263q7 -91 32.5 -132.5t77.5 -41.5 q45 0 96 39l39 -57q-65 -52 -136 -52q-109 0 -150 101q-20 -49 -53 -75t-89 -26q-85 0 -127 72.5t-42 201.5q0 128 41.5 201.5t127.5 73.5q59 0 91.5 -26.5t51.5 -77.5q41 104 139 104z" unicode="œ"/>
<glyph glyph-name="Racute" d="M537 496q0 -75 -46.5 -123.5t-122.5 -66.5l205 -306h-103l-188 296h-94v-296h-86v688h176q259 0 259 -192zM445 496q0 65 -38 94.5t-119 29.5h-100v-257h101q156 0 156 133zM420 834l-213 -78l-22 44l198 105z" unicode="Ŕ"/>
<glyph glyph-name="racute" d="M94 0v66h123v395h-123v65h195l10 -101q23 55 63 84t89 29q36 0 69 -8l-15 -82q-34 9 -61 9q-51 0 -90.5 -42t-53.5 -100v-249h148v-66h-354zM379 785l44 -71l-201 -90l-28 46z" unicode="ŕ"/>
<glyph glyph-name="Rcommaaccent" d="M302 -71q23 0 38.5 -15t15.5 -38t-15 -54l-50 -108h-50l29 118q-22 17 -22 44q0 23 15.5 38t38.5 15zM537 496q0 -75 -46.5 -123.5t-122.5 -66.5l205 -306h-103l-188 296h-94v-296h-86v688h176q259 0 259 -192zM445 496q0 65 -38 94.5t-119 29.5h-100v-257h101 q156 0 156 133z" unicode="Ŗ"/>
<glyph glyph-name="rcommaaccent" d="M261 -71q23 0 38.5 -15t15.5 -38t-15 -54l-50 -108h-50l29 118q-22 17 -22 44q0 23 15.5 38t38.5 15zM94 0v66h123v395h-123v65h195l10 -101q23 55 63 84t89 29q36 0 69 -8l-15 -82q-34 9 -61 9q-51 0 -90.5 -42t-53.5 -100v-249h148v-66h-354z" unicode="ŗ"/>
<glyph glyph-name="Rcaron" d="M537 496q0 -75 -46.5 -123.5t-122.5 -66.5l205 -306h-103l-188 296h-94v-296h-86v688h176q259 0 259 -192zM445 496q0 65 -38 94.5t-119 29.5h-100v-257h101q156 0 156 133zM463 862l-134 -108h-56l-136 108l38 42l125 -81l126 81z" unicode="Ř"/>
<glyph glyph-name="rcaron" d="M94 0v66h123v395h-123v65h195l10 -101q23 55 63 84t89 29q36 0 69 -8l-15 -82q-34 9 -61 9q-51 0 -90.5 -42t-53.5 -100v-249h148v-66h-354zM472 748l-134 -119h-56l-136 119l40 41l124 -91l124 91z" unicode="ř"/>
<glyph glyph-name="Sacute" d="M536 191q0 -91 -66.5 -146.5t-184.5 -55.5q-151 0 -241 87l51 58q78 -73 192 -73q67 0 113.5 33t46.5 95q0 51 -31.5 80t-119.5 55q-112 33 -167 77.5t-55 121.5q0 78 62 127.5t161 49.5q127 0 219 -79l-51 -56q-70 63 -166 63q-60 0 -99 -26.5t-39 -76.5q0 -44 37.5 -71 t136.5 -56q96 -28 148.5 -73t52.5 -134zM425 834l-213 -78l-22 44l198 105z" unicode="Ś"/>
<glyph glyph-name="sacute" d="M280 57q60 0 95.5 23t35.5 61q0 39 -24 60.5t-103 41.5q-92 23 -136 55t-44 96q0 66 55 105t144 39q112 0 191 -59l-37 -56q-68 47 -152 47q-115 0 -115 -69q0 -35 28 -52.5t112 -40.5q86 -23 128.5 -58.5t42.5 -104.5q0 -53 -33 -89.5t-81 -51.5t-108 -15 q-123 0 -205 71l47 54q69 -57 159 -57zM377 785l44 -71l-201 -90l-28 46z" unicode="ś"/>
<glyph glyph-name="Scircumflex" d="M536 191q0 -91 -66.5 -146.5t-184.5 -55.5q-151 0 -241 87l51 58q78 -73 192 -73q67 0 113.5 33t46.5 95q0 51 -31.5 80t-119.5 55q-112 33 -167 77.5t-55 121.5q0 78 62 127.5t161 49.5q127 0 219 -79l-51 -56q-70 63 -166 63q-60 0 -99 -26.5t-39 -76.5q0 -44 37.5 -71 t136.5 -56q96 -28 148.5 -73t52.5 -134zM468 803l-37 -43l-126 81l-125 -81l-38 43l136 107h56z" unicode="Ŝ"/>
<glyph glyph-name="scircumflex" d="M280 57q60 0 95.5 23t35.5 61q0 39 -24 60.5t-103 41.5q-92 23 -136 55t-44 96q0 66 55 105t144 39q112 0 191 -59l-37 -56q-68 47 -152 47q-115 0 -115 -69q0 -35 28 -52.5t112 -40.5q86 -23 128.5 -58.5t42.5 -104.5q0 -53 -33 -89.5t-81 -51.5t-108 -15 q-123 0 -205 71l47 54q69 -57 159 -57zM144 670l136 119h56l134 -119l-38 -41l-124 91l-124 -91z" unicode="ŝ"/>
<glyph glyph-name="Scedilla" d="M536 191q0 -84 -57.5 -138.5t-161.5 -62.5v-47q46 -4 69 -27.5t23 -55.5q0 -47 -35 -72.5t-86 -25.5q-63 0 -105 24l27 48q30 -16 68 -16q60 0 60 42q0 25 -21.5 34t-65.5 9l7 87q-132 8 -214 86l51 58q78 -73 192 -73q67 0 113.5 33t46.5 95q0 51 -31.5 80t-119.5 55 q-112 33 -167 77.5t-55 121.5q0 78 62 127.5t161 49.5q127 0 219 -79l-51 -56q-70 63 -166 63q-60 0 -99 -26.5t-39 -76.5q0 -44 37.5 -71t136.5 -56q96 -28 148.5 -73t52.5 -134z" unicode="Ş"/>
<glyph glyph-name="scedilla" d="M501 145q0 -70 -52 -108.5t-133 -45.5v-48q46 -4 69 -27.5t23 -55.5q0 -47 -35 -72.5t-86 -25.5q-63 0 -105 24l27 48q30 -16 68 -16q60 0 60 42q0 25 -21.5 34t-65.5 9l7 87q-109 5 -183 70l47 54q69 -57 159 -57q60 0 95.5 23t35.5 61q0 39 -24 60.5t-103 41.5 q-92 23 -136 55t-44 96q0 66 55 105t144 39q112 0 191 -59l-37 -56q-68 47 -152 47q-115 0 -115 -69q0 -35 28 -52.5t112 -40.5q86 -23 128.5 -58.5t42.5 -104.5z" unicode="ş"/>
<glyph glyph-name="Scaron" d="M536 191q0 -91 -66.5 -146.5t-184.5 -55.5q-151 0 -241 87l51 58q78 -73 192 -73q67 0 113.5 33t46.5 95q0 51 -31.5 80t-119.5 55q-112 33 -167 77.5t-55 121.5q0 78 62 127.5t161 49.5q127 0 219 -79l-51 -56q-70 63 -166 63q-60 0 -99 -26.5t-39 -76.5q0 -44 37.5 -71 t136.5 -56q96 -28 148.5 -73t52.5 -134zM468 862l-134 -108h-56l-136 108l38 42l125 -81l126 81z" unicode="Š"/>
<glyph glyph-name="scaron" d="M280 57q60 0 95.5 23t35.5 61q0 39 -24 60.5t-103 41.5q-92 23 -136 55t-44 96q0 66 55 105t144 39q112 0 191 -59l-37 -56q-68 47 -152 47q-115 0 -115 -69q0 -35 28 -52.5t112 -40.5q86 -23 128.5 -58.5t42.5 -104.5q0 -53 -33 -89.5t-81 -51.5t-108 -15 q-123 0 -205 71l47 54q69 -57 159 -57zM470 748l-134 -119h-56l-136 119l40 41l124 -91l124 91z" unicode="š"/>
<glyph glyph-name="Tcedilla" d="M328 0v-57q46 -4 69 -27.5t23 -55.5q0 -47 -35 -72.5t-86 -25.5q-63 0 -105 24l27 48q30 -16 68 -16q60 0 60 42q0 25 -21.5 34t-65.5 9l8 97h-14v615h-216v73h519l-9 -73h-209v-615h-13z" unicode="Ţ"/>
<glyph glyph-name="tcedilla" d="M391 -57q46 -4 69 -27.5t23 -55.5q0 -47 -35 -72.5t-86 -25.5q-63 0 -105 24l27 48q30 -16 68 -16q60 0 60 42q0 25 -21.5 34t-65.5 9l7 90q-62 11 -96.5 52t-34.5 102v315h-121v64h121v120l83 10v-130h182l-10 -64h-172v-314q0 -45 24 -67.5t77 -22.5t101 25l32 -57 q-50 -32 -127 -37v-46z" unicode="ţ"/>
<glyph glyph-name="Tcaron" d="M341 0h-85v615h-216v73h519l-9 -73h-209v-615zM462 862l-134 -108h-56l-136 108l38 42l125 -81l126 81z" unicode="Ť"/>
<glyph glyph-name="tcaron" d="M518 26q-58 -37 -141 -37t-129.5 43.5t-46.5 114.5v315h-121v64h121v120l83 10v-130h182l-10 -64h-172v-314q0 -45 24 -67.5t77 -22.5t101 25z" unicode="ť"/>
<glyph glyph-name="Tbar" d="M341 615v-198h132v-67h-132v-350h-85v350h-131v67h131v198h-216v73h519l-9 -73h-209z" unicode="Ŧ"/>
<glyph glyph-name="tbar" d="M518 26q-58 -37 -141 -37t-129.5 43.5t-46.5 114.5v141h-110v64h110v110h-121v64h121v120l83 10v-130h182l-10 -64h-172v-110h173v-64h-173v-140q0 -45 24 -67.5t77 -22.5t101 25z" unicode="ŧ"/>
<glyph glyph-name="Utilde" d="M527 223q0 -105 -62 -169.5t-166 -64.5q-105 0 -165.5 64t-60.5 170v465h85v-469q0 -78 36.5 -117t104.5 -39q69 0 105.5 39t36.5 117v469h86v-465zM351 771q-32 0 -64.5 24.5t-44.5 24.5q-26 0 -51 -44l-54 24q37 84 111 84q33 0 65 -24t44 -24q26 0 51 44l54 -24 q-39 -85 -111 -85z" unicode="Ũ"/>
<glyph glyph-name="utilde" d="M184 153q0 -51 21.5 -74.5t67.5 -23.5q42 0 81.5 24.5t61.5 59.5v387h83v-526h-71l-7 71q-30 -39 -75.5 -60.5t-92.5 -21.5q-75 0 -113.5 40t-38.5 114v383h83v-373zM351 652q-32 0 -64.5 24.5t-44.5 24.5q-26 0 -51 -44l-54 24q37 84 111 84q33 0 65 -24t44 -24 q26 0 51 44l54 -24q-39 -85 -111 -85z" unicode="ũ"/>
<glyph glyph-name="Umacron" d="M527 223q0 -105 -62 -169.5t-166 -64.5q-105 0 -165.5 64t-60.5 170v465h85v-469q0 -78 36.5 -117t104.5 -39q69 0 105.5 39t36.5 117v469h86v-465zM165 795v64h269v-64h-269z" unicode="Ū"/>
<glyph glyph-name="umacron" d="M184 153q0 -51 21.5 -74.5t67.5 -23.5q42 0 81.5 24.5t61.5 59.5v387h83v-526h-71l-7 71q-30 -39 -75.5 -60.5t-92.5 -21.5q-75 0 -113.5 40t-38.5 114v383h83v-373zM165 676v64h269v-64h-269z" unicode="ū"/>
<glyph glyph-name="Ubreve" d="M527 223q0 -105 -62 -169.5t-166 -64.5q-105 0 -165.5 64t-60.5 170v465h85v-469q0 -78 36.5 -117t104.5 -39q69 0 105.5 39t36.5 117v469h86v-465zM298 759q-58 0 -99.5 32.5t-47.5 86.5l57 12q24 -67 90 -67q69 0 93 67l57 -12q-6 -54 -48.5 -86.5t-101.5 -32.5z" unicode="Ŭ"/>
<glyph glyph-name="ubreve" d="M184 153q0 -51 21.5 -74.5t67.5 -23.5q42 0 81.5 24.5t61.5 59.5v387h83v-526h-71l-7 71q-30 -39 -75.5 -60.5t-92.5 -21.5q-75 0 -113.5 40t-38.5 114v383h83v-373zM298 630q-63 0 -101.5 41.5t-45.5 93.5l57 13q24 -84 90 -84q68 0 93 84l57 -13q-7 -52 -46.5 -93.5 t-103.5 -41.5z" unicode="ŭ"/>
<glyph glyph-name="Uring" d="M527 223q0 -105 -62 -169.5t-166 -64.5q-105 0 -165.5 64t-60.5 170v465h85v-469q0 -78 36.5 -117t104.5 -39q69 0 105.5 39t36.5 117v469h86v-465zM300 896q-25 0 -39.5 -15t-14.5 -42q0 -26 14.5 -41t39.5 -15t39.5 15t14.5 41q0 27 -14 42t-40 15zM300 942 q48 0 79.5 -29.5t31.5 -73.5q0 -42 -31.5 -71.5t-79.5 -29.5t-79.5 29.5t-31.5 71.5q0 44 31.5 73.5t79.5 29.5z" unicode="Ů"/>
<glyph glyph-name="uring" d="M184 153q0 -51 21.5 -74.5t67.5 -23.5q42 0 81.5 24.5t61.5 59.5v387h83v-526h-71l-7 71q-30 -39 -75.5 -60.5t-92.5 -21.5q-75 0 -113.5 40t-38.5 114v383h83v-373zM300 777q-25 0 -39.5 -15t-14.5 -42q0 -26 14.5 -41t39.5 -15t39.5 15t14.5 41q0 27 -14 42t-40 15z M300 823q48 0 79.5 -29.5t31.5 -73.5q0 -42 -31.5 -71.5t-79.5 -29.5t-79.5 29.5t-31.5 71.5q0 44 31.5 73.5t79.5 29.5z" unicode="ů"/>
<glyph glyph-name="Uhungarumlaut" d="M527 223q0 -105 -62 -169.5t-166 -64.5q-105 0 -165.5 64t-60.5 170v465h85v-469q0 -78 36.5 -117t104.5 -39q69 0 105.5 39t36.5 117v469h86v-465zM260 954l74 -35l-97 -164l-54 26zM434 954l73 -38l-108 -163l-52 28z" unicode="Ű"/>
<glyph glyph-name="uhungarumlaut" d="M184 153q0 -51 21.5 -74.5t67.5 -23.5q42 0 81.5 24.5t61.5 59.5v387h83v-526h-71l-7 71q-30 -39 -75.5 -60.5t-92.5 -21.5q-75 0 -113.5 40t-38.5 114v383h83v-373zM254 835l74 -35l-97 -164l-54 26zM428 835l73 -38l-108 -163l-52 28z" unicode="ű"/>
<glyph glyph-name="Uogonek" d="M527 688v-465q0 -84 -40.5 -143t-111.5 -80q-72 -32 -97.5 -58.5t-25.5 -56.5q0 -47 55 -47q33 0 62 7l-8 -67q-35 -7 -64 -7q-56 0 -88.5 28t-32.5 70q0 74 87 122q-89 11 -139.5 73.5t-50.5 158.5v465h85v-469q0 -78 36.5 -117t104.5 -39q69 0 105.5 39t36.5 117v469 h86z" unicode="Ų"/>
<glyph glyph-name="uogonek" d="M499 0q-72 -32 -98 -58.5t-26 -56.5q0 -47 55 -47q33 0 62 7l-8 -67q-35 -7 -64 -7q-56 0 -88.5 28t-32.5 70q0 89 128 141l-6 61q-30 -39 -75.5 -60.5t-92.5 -21.5q-75 0 -113.5 40t-38.5 114v383h83v-373q0 -51 21.5 -74.5t67.5 -23.5q42 0 81.5 24.5t61.5 59.5v387h83 v-526z" unicode="ų"/>
<glyph glyph-name="Wcircumflex" d="M490 0h-113l-77 505h-4l-78 -505h-116l-97 688h86l71 -585h4l82 505h106l76 -501h4l82 581h79zM463 803l-37 -43l-126 81l-125 -81l-38 43l136 107h56z" unicode="Ŵ"/>
<glyph glyph-name="wcircumflex" d="M372 0l-68 378h-4l-71 -378h-115l-96 526h85l68 -462h4l80 395h99l75 -393h4l68 460h81l-92 -526h-118zM137 670l136 119h56l134 -119l-38 -41l-124 91l-124 -91z" unicode="ŵ"/>
<glyph glyph-name="Ycircumflex" d="M343 0h-86v265l-233 423h95l183 -345l185 345h89l-233 -422v-266zM466 803l-37 -43l-126 81l-125 -81l-38 43l136 107h56z" unicode="Ŷ"/>
<glyph glyph-name="ycircumflex" d="M353 -3q-32 -91 -85 -145t-149 -64l-13 67q77 13 111 45.5t57 99.5h-28l-184 526h89l152 -463l149 463h86zM137 670l136 119h56l134 -119l-38 -41l-124 91l-124 -91z" unicode="ŷ"/>
<glyph glyph-name="Ydieresis" d="M343 0h-86v265l-233 423h95l183 -345l185 345h89l-233 -422v-266zM199 767q-23 0 -38.5 15t-15.5 38t15.5 38.5t38.5 15.5t38.5 -15.5t15.5 -38.5q0 -22 -15.5 -37.5t-38.5 -15.5zM405 767q-23 0 -38 15.5t-15 37.5q0 23 15 38.5t38 15.5q24 0 39.5 -15.5t15.5 -38.5 t-15.5 -38t-39.5 -15z" unicode="Ÿ"/>
<glyph glyph-name="Zacute" d="M527 74l-10 -74h-445v70l364 545h-328v73h420v-70l-362 -544h361zM439 834l-213 -78l-22 44l198 105z" unicode="Ź"/>
<glyph glyph-name="zacute" d="M498 71l-11 -71h-384v63l292 391h-269v72h369v-64l-291 -391h294zM380 785l44 -71l-201 -90l-28 46z" unicode="ź"/>
<glyph glyph-name="Zdotaccent" d="M527 74l-10 -74h-445v70l364 545h-328v73h420v-70l-362 -544h361zM317 892q27 0 44 -17t17 -42q0 -26 -17 -42.5t-44 -16.5t-43.5 16.5t-16.5 42.5q0 25 16.5 42t43.5 17z" unicode="Ż"/>
<glyph glyph-name="zdotaccent" d="M498 71l-11 -71h-384v63l292 391h-269v72h369v-64l-291 -391h294zM309 773q27 0 44 -17t17 -42q0 -26 -17 -42.5t-44 -16.5t-43.5 16.5t-16.5 42.5q0 25 16.5 42t43.5 17z" unicode="ż"/>
<glyph glyph-name="Zcaron" d="M527 74l-10 -74h-445v70l364 545h-328v73h420v-70l-362 -544h361zM482 862l-134 -108h-56l-136 108l38 42l125 -81l126 81z" unicode="Ž"/>
<glyph glyph-name="zcaron" d="M498 71l-11 -71h-384v63l292 391h-269v72h369v-64l-291 -391h294zM473 748l-134 -119h-56l-136 119l40 41l124 -91l124 91z" unicode="ž"/>
<glyph glyph-name="florin" d="M369 749q59 0 122 -27l-28 -61q-44 20 -92 20q-43 0 -61.5 -19t-18.5 -59v-77h129l-10 -65h-119v-422q0 -112 -33 -161.5t-120 -88.5l-30 60q57 27 79 60t22 114v438h-84v65h84v75q0 66 42.5 107t117.5 41z" unicode="ƒ"/>
<glyph glyph-name="AEacute" d="M125 176l-49 -176h-88l202 688h376l-10 -70h-237l52 -234h186v-70h-173l52 -244h172v-70h-242l-36 176h-205zM314 248l-74 373l-92 -373h166zM481 834l-213 -78l-22 44l198 105z" unicode="Ǽ"/>
<glyph glyph-name="aeacute" d="M211 263q-127 0 -127 -107q0 -50 20 -76.5t54 -26.5q32 0 56.5 23t53.5 74q-14 46 -14 113h-43zM432 468q-46 0 -68 -38.5t-29 -131.5h190q-2 87 -22.5 128.5t-70.5 41.5zM435 538q172 0 172 -259q0 -22 -2 -46h-270q7 -90 34 -132t79 -42q47 0 100 39l38 -57 q-65 -52 -139 -52q-96 0 -148 89q-35 -48 -69.5 -68.5t-83.5 -20.5q-70 0 -111 44t-41 118q0 82 54.5 125.5t159.5 43.5h46v44q0 104 -91 104q-42 0 -105 -27l-22 63q71 34 135 34q103 0 138 -88q14 41 46.5 64.5t79.5 23.5zM379 785l44 -71l-201 -90l-28 46z" unicode="ǽ"/>
<glyph glyph-name="Oslashacute" d="M433 660q120 -87 120 -316q0 -161 -65.5 -258t-187.5 -97q-32 0 -64 8l-32 -107l-74 19l37 120q-120 85 -120 313q0 162 65.5 260t187.5 98q33 0 65 -8l32 111l75 -19zM300 61q85 0 124 71t39 212q0 190 -61 248l-151 -525q23 -6 49 -6zM137 342q0 -185 60 -245l151 524 q-21 6 -48 6q-85 0 -124 -71.5t-39 -213.5zM207 756l-22 44l198 105l37 -71z" unicode="Ǿ"/>
<glyph glyph-name="oslashacute" d="M417 508q109 -67 109 -244q0 -124 -59 -199.5t-167 -75.5q-23 0 -50 5l-37 -124l-70 20l42 129q-111 67 -111 244q0 125 59.5 200t167.5 75q22 0 49 -5l38 121l70 -20zM300 57q137 0 137 207q0 131 -52 177l-118 -381q15 -3 33 -3zM301 469q-138 0 -138 -206 q0 -134 53 -179l118 382q-15 3 -33 3zM213 624l-28 46l185 115l44 -71z" unicode="ǿ"/>
<glyph glyph-name="Scommaaccent" d="M300 -71q23 0 38.5 -15t15.5 -38t-15 -54l-50 -108h-50l29 118q-22 17 -22 44q0 23 15.5 38t38.5 15zM536 191q0 -91 -66.5 -146.5t-184.5 -55.5q-151 0 -241 87l51 58q78 -73 192 -73q67 0 113.5 33t46.5 95q0 51 -31.5 80t-119.5 55q-112 33 -167 77.5t-55 121.5 q0 78 62 127.5t161 49.5q127 0 219 -79l-51 -56q-70 63 -166 63q-60 0 -99 -26.5t-39 -76.5q0 -44 37.5 -71t136.5 -56q96 -28 148.5 -73t52.5 -134z" unicode="Ș"/>
<glyph glyph-name="scommaaccent" d="M300 -71q23 0 38.5 -15t15.5 -38t-15 -54l-50 -108h-50l29 118q-22 17 -22 44q0 23 15.5 38t38.5 15zM280 57q60 0 95.5 23t35.5 61q0 39 -24 60.5t-103 41.5q-92 23 -136 55t-44 96q0 66 55 105t144 39q112 0 191 -59l-37 -56q-68 47 -152 47q-115 0 -115 -69 q0 -35 28 -52.5t112 -40.5q86 -23 128.5 -58.5t42.5 -104.5q0 -53 -33 -89.5t-81 -51.5t-108 -15q-123 0 -205 71l47 54q69 -57 159 -57z" unicode="ș"/>
<glyph glyph-name="uni021A" d="M302 -71q23 0 38.5 -15t15.5 -38t-15 -54l-50 -108h-50l29 118q-22 17 -22 44q0 23 15.5 38t38.5 15zM341 0h-85v615h-216v73h519l-9 -73h-209v-615z" unicode="Ț"/>
<glyph glyph-name="uni021B" d="M374 -71q23 0 38.5 -15t15.5 -38t-15 -54l-50 -108h-50l29 118q-22 17 -22 44q0 23 15.5 38t38.5 15zM518 26q-58 -37 -141 -37t-129.5 43.5t-46.5 114.5v315h-121v64h121v120l83 10v-130h182l-10 -64h-172v-314q0 -45 24 -67.5t77 -22.5t101 25z" unicode="ț"/>
<glyph glyph-name="jdotless" d="M445 83q0 -127 -85 -197t-250 -98l-14 64q127 21 196.5 73.5t69.5 152.5v383h-220v65h303v-443z" unicode="ȷ"/>
<glyph glyph-name="uni02BC" d="M293 749q23 0 38.5 -15.5t15.5 -38.5q0 -21 -25 -76l-42 -89h-49l30 121q-23 21 -23 45q0 22 16 37.5t39 15.5z" unicode="ʼ"/>
<glyph glyph-name="circumflex" d="M137 670l136 119h56l134 -119l-38 -41l-124 91l-124 -91z" unicode="ˆ"/>
<glyph glyph-name="caron" d="M463 748l-134 -119h-56l-136 119l40 41l124 -91l124 91z" unicode="ˇ"/>
<glyph glyph-name="firsttonechinese" d="M165 683v64h269v-64h-269z" unicode="ˉ"/>
<glyph glyph-name="breve" d="M298 630q-63 0 -101.5 41.5t-45.5 93.5l57 13q24 -84 90 -84q68 0 93 84l57 -13q-7 -52 -46.5 -93.5t-103.5 -41.5z" unicode="˘"/>
<glyph glyph-name="dotaccent" d="M299 773q27 0 44 -17t17 -42q0 -26 -17 -42.5t-44 -16.5t-43.5 16.5t-16.5 42.5q0 25 16.5 42t43.5 17z" unicode="˙"/>
<glyph glyph-name="ring" d="M300 777q-25 0 -39.5 -15t-14.5 -42q0 -26 14.5 -41t39.5 -15t39.5 15t14.5 41q0 27 -14 42t-40 15zM300 823q48 0 79.5 -29.5t31.5 -73.5q0 -42 -31.5 -71.5t-79.5 -29.5t-79.5 29.5t-31.5 71.5q0 44 31.5 73.5t79.5 29.5z" unicode="˚"/>
<glyph glyph-name="ogonek" d="M402 0q-72 -32 -98 -58.5t-26 -56.5q0 -47 55 -47q33 0 62 7l-8 -67q-35 -7 -64 -7q-56 0 -88.5 28t-32.5 70q0 107 186 161z" unicode="˛"/>
<glyph glyph-name="tilde" d="M351 652q-32 0 -64.5 24.5t-44.5 24.5q-26 0 -51 -44l-54 24q37 84 111 84q33 0 65 -24t44 -24q26 0 51 44l54 -24q-39 -85 -111 -85z" unicode="˜"/>
<glyph glyph-name="hungarumlaut" d="M215 835l74 -35l-97 -164l-54 26zM389 835l73 -38l-108 -163l-52 28z" unicode="˝"/>
<glyph glyph-name="gravecomb" horiz-adv-x="0" unicode="̀" d="M415 627l-25 -45l-205 82l46 71z"/>
<glyph glyph-name="acutecomb" horiz-adv-x="0" unicode="́" d="M418 697l-213 -79l-23 45l198 105z"/>
<glyph glyph-name="uni0302" horiz-adv-x="0" unicode="̂" d="M463 641l-37 -43l-126 81l-125 -81l-38 43l135 107h56z"/>
<glyph glyph-name="tildecomb" horiz-adv-x="0" unicode="̃" d="M353 598q-32 0 -65 24.5t-45 24.5q-26 0 -51 -44l-54 24q37 84 111 84q33 0 65 -24t44 -24q26 0 51 44l54 -24q-37 -85 -110 -85z"/>
<glyph glyph-name="uni0304" horiz-adv-x="0" unicode="̄" d="M166 622v64h269v-64h-269z"/>
<glyph glyph-name="uni0306" horiz-adv-x="0" unicode="̆" d="M298 586q-58 0 -99.5 32.5t-47.5 85.5l57 13q23 -67 90 -67q71 0 94 67l57 -13q-6 -53 -48.5 -85.5t-102.5 -32.5z"/>
<glyph glyph-name="uni0307" horiz-adv-x="0" unicode="̇" d="M300 719q27 0 44 -17t17 -42q0 -26 -17 -42.5t-44 -16.5t-43.5 16.5t-16.5 42.5q0 25 16.5 42t43.5 17z"/>
<glyph glyph-name="uni0308" horiz-adv-x="0" unicode="̈" d="M198 594q-24 0 -39.5 15t-15.5 38t15.5 38.5t39.5 15.5q23 0 38 -15.5t15 -38.5t-15.5 -38t-37.5 -15zM404 594q-23 0 -38.5 15t-15.5 38t15.5 38.5t38.5 15.5t38.5 -15.5t15.5 -38.5t-15.5 -38t-38.5 -15z"/>
<glyph glyph-name="uni030A" horiz-adv-x="0" unicode="̊" d="M300 723q-25 0 -39.5 -15t-14.5 -42q0 -26 14.5 -41t39.5 -15t39.5 15t14.5 41q0 27 -14 42t-40 15zM300 769q48 0 79.5 -29.5t31.5 -73.5q0 -42 -31.5 -71.5t-79.5 -29.5t-79.5 29.5t-31.5 71.5q0 44 31.5 73.5t79.5 29.5z"/>
<glyph glyph-name="uni030B" horiz-adv-x="0" unicode="̋" d="M215 781l74 -35l-97 -164l-54 26zM389 781l73 -38l-108 -163l-52 28z"/>
<glyph glyph-name="uni030C" horiz-adv-x="0" unicode="̌" d="M463 688l-135 -107h-56l-135 107l38 43l125 -81l126 81z"/>
<glyph glyph-name="uni0313" horiz-adv-x="0" unicode="̓" d="M320 762q23 0 38.5 -15t15.5 -38q0 -19 -15 -54l-50 -108h-51l30 118q-22 16 -22 44q0 23 15.5 38t38.5 15z"/>
<glyph glyph-name="uni0314" horiz-adv-x="0" unicode="̔" d="M394 559q-23 0 -38.5 15t-15.5 38q0 24 15 55l50 107h50l-29 -117q22 -19 22 -45q0 -22 -15.5 -37.5t-38.5 -15.5z"/>
<glyph glyph-name="uni0326" horiz-adv-x="0" unicode="̦" d="M303 -71q23 0 38.5 -15t15.5 -38t-15 -54l-50 -108h-50l29 118q-22 17 -22 44q0 23 15.5 38t38.5 15z"/>
<glyph glyph-name="uni0327" horiz-adv-x="0" unicode="̧" d="M342 -152q0 25 -21.5 34t-65.5 9l9 114h57v-73q46 -4 69.5 -28t23.5 -56q0 -46 -35.5 -71.5t-86.5 -25.5q-64 0 -104 24l26 48q30 -16 68 -16q60 0 60 41z"/>
<glyph glyph-name="uni0335" horiz-adv-x="0" unicode="̵" d="M128 277v67h343v-67h-343z"/>
<glyph glyph-name="uni0336" horiz-adv-x="0" unicode="̶" d="M-25 277v67h651v-67h-651z"/>
<glyph glyph-name="tonos" d="M273 806l92 -16l-67 -200l-63 11z" unicode="΄"/>
<glyph glyph-name="dieresistonos" d="M187 720q23 0 38.5 -15.5t15.5 -38.5t-15.5 -38t-38.5 -15t-39 15t-16 38t16 38.5t39 15.5zM411 720q24 0 39.5 -15.5t15.5 -38.5t-15.5 -38t-39.5 -15q-23 0 -38.5 15t-15.5 38t15.5 38.5t38.5 15.5zM392 883l-60 -169l-65 10l29 176z" unicode="΅"/>
<glyph glyph-name="Alphatonos" d="M161 176l-56 -176h-84l224 688h110l224 -688h-90l-55 176h-273zM412 247l-114 369l-115 -369h229zM97 703l91 -15l-74 -180l-64 11z" unicode="Ά"/>
<glyph glyph-name="Epsilontonos" d="M212 385h255v-71h-255v-245h313v-69h-399v688h390l-10 -70h-294v-233zM16 703l91 -15l-74 -180l-64 11z" unicode="Έ"/>
<glyph glyph-name="Etatonos" d="M431 328h-262v-328h-85v688h85v-291h262v291h85v-688h-85v328zM-39 703l91 -15l-74 -180l-64 11z" unicode="Ή"/>
<glyph glyph-name="Iotatonos" d="M497 620h-154v-551h154v-69h-394v69h154v551h-154v68h394v-68zM-10 703l91 -15l-74 -180l-64 11z" unicode="Ί"/>
<glyph glyph-name="Omicrontonos" d="M464 344q0 141 -39 212t-125 71t-125 -71.5t-39 -213.5q0 -281 164 -281q85 0 124.5 71t39.5 212zM553 344q0 -161 -65.5 -258t-187.5 -97q-123 0 -188 95t-65 258q0 162 65.5 260t187.5 98t187.5 -96.5t65.5 -259.5zM-7 703l91 -15l-74 -180l-64 11z" unicode="Ό"/>
<glyph glyph-name="Upsilontonos" d="M576 688l-233 -422v-266h-86v265l-232 421l-73 -178l-64 11l47 184l91 -15h93l183 -345l185 345h89z" unicode="Ύ"/>
<glyph glyph-name="Omegatonos" d="M300 628q-82 0 -123 -66t-41 -213q0 -221 130 -285v-64h-208v69h112v4q-123 64 -123 276q0 167 68 259t185 92t185 -92t68 -259q0 -208 -125 -276v-4h114v-69h-207v64q129 64 129 285q0 146 -41 212.5t-123 66.5zM-8 703l91 -15l-74 -180l-64 11z" unicode="Ώ"/>
<glyph glyph-name="iotadieresistonos" d="M63 456l10 70h251v-396q0 -72 87 -72q42 0 89 18l22 -60q-46 -27 -125 -27q-71 0 -113.5 40t-42.5 110v317h-178zM160 720q23 0 38.5 -15.5t15.5 -38.5t-15.5 -38t-38.5 -15t-39 15t-16 38t16 38.5t39 15.5zM384 720q24 0 39.5 -15.5t15.5 -38.5t-15.5 -38t-39.5 -15 q-23 0 -38.5 15t-15.5 38t15.5 38.5t38.5 15.5zM365 883l-60 -169l-65 10l29 176z" unicode="ΐ"/>
<glyph glyph-name="Alpha" d="M161 176l-56 -176h-84l224 688h110l224 -688h-90l-55 176h-273zM412 247l-114 369l-115 -369h229z" unicode="Α"/>
<glyph glyph-name="Beta" d="M449 193q0 131 -148 131h-119v-253h115q152 0 152 122zM421 510q0 109 -135 109h-104v-224h112q127 0 127 115zM539 196q0 -54 -22 -93.5t-60 -61t-81.5 -31.5t-94.5 -10h-184v688h169q48 0 89 -8.5t77 -27t56.5 -53.5t20.5 -84q0 -62 -36.5 -100t-91.5 -50 q158 -27 158 -169z" unicode="Β"/>
<glyph glyph-name="Gamma" d="M535 613h-313v-613h-85v688h407z" unicode="Γ"/>
<glyph glyph-name="Delta" d="M128 70h338l-168 544zM579 0h-558l224 688h110z" unicode="Δ"/>
<glyph glyph-name="Epsilon" d="M212 385h255v-71h-255v-245h313v-69h-399v688h390l-10 -70h-294v-233z" unicode="Ε"/>
<glyph glyph-name="Zeta" d="M527 74l-10 -74h-445v70l364 545h-328v73h420v-70l-362 -544h361z" unicode="Ζ"/>
<glyph glyph-name="Eta" d="M431 328h-262v-328h-85v688h85v-291h262v291h85v-688h-85v328z" unicode="Η"/>
<glyph glyph-name="Theta" d="M197 316v72h205v-72h-205zM463 344q0 141 -38.5 212t-124.5 71t-124.5 -71.5t-38.5 -213.5q0 -281 163 -281q85 0 124 71t39 212zM553 344q0 -161 -65.5 -258t-187.5 -97q-123 0 -188 95t-65 258q0 162 65.5 260t187.5 98t187.5 -96.5t65.5 -259.5z" unicode="Θ"/>
<glyph glyph-name="Iota" d="M497 620h-154v-551h154v-69h-394v69h154v551h-154v68h394v-68z" unicode="Ι"/>
<glyph glyph-name="Kappa" d="M106 0v688h85v-688h-85zM468 688h99l-270 -315l289 -373h-107l-283 368z" unicode="Κ"/>
<glyph glyph-name="Lambda" d="M574 0h-90l-186 609l-188 -609h-85l220 688h110z" unicode="Λ"/>
<glyph glyph-name="Mu" d="M569 0h-82l-22 361q-6 114 -6 229h-2l-114 -466h-87l-118 466h-4q0 -143 -4 -229l-19 -361h-80l39 688h120l112 -471l107 471h121z" unicode="Μ"/>
<glyph glyph-name="Nu" d="M156 589h-4q12 -156 12 -243v-346h-80v688h116l244 -592h4q-12 144 -12 247v345h80v-688h-120z" unicode="Ν"/>
<glyph glyph-name="Xi" d="M523 0h-446v80h446v-80zM463 309h-336v80h336v-80zM501 610h-424v78h436z" unicode="Ξ"/>
<glyph glyph-name="Omicron" d="M464 344q0 141 -39 212t-125 71t-125 -71.5t-39 -213.5q0 -281 164 -281q85 0 124.5 71t39.5 212zM553 344q0 -161 -65.5 -258t-187.5 -97q-123 0 -188 95t-65 258q0 162 65.5 260t187.5 98t187.5 -96.5t65.5 -259.5z" unicode="Ο"/>
<glyph glyph-name="Pi" d="M431 614h-262v-614h-85v688h432v-688h-85v614z" unicode="Π"/>
<glyph glyph-name="Rho" d="M465 476q0 144 -163 144h-100v-295h97q79 0 122.5 34t43.5 117zM557 477q0 -115 -71 -168t-195 -53h-89v-256h-85v688h174q126 0 196 -53t70 -158z" unicode="Ρ"/>
<glyph glyph-name="Sigma" d="M174 72h353v-72h-454v72l255 272l-255 271v73h454v-72h-355l232 -239v-61z" unicode="Σ"/>
<glyph glyph-name="Tau" d="M341 0h-85v615h-216v73h519l-9 -73h-209v-615z" unicode="Τ"/>
<glyph glyph-name="Upsilon" d="M343 0h-86v265l-233 423h95l183 -345l185 345h89l-233 -422v-266z" unicode="Υ"/>
<glyph glyph-name="Phi" d="M259 545q-84 -2 -122.5 -46t-38.5 -152q0 -103 38 -150t123 -52v400zM341 145q85 5 123 52t38 150q0 109 -38.5 153t-122.5 45v-400zM342 609q247 -12 247 -262q0 -128 -63 -195t-184 -71v-81h-84v81q-120 4 -183.5 71.5t-63.5 194.5q0 250 247 262v79h84v-79z" unicode="Φ"/>
<glyph glyph-name="Chi" d="M148 688l152 -265l152 265h93l-196 -316l220 -372h-99l-172 312l-175 -312h-92l217 367l-198 321h98z" unicode="Χ"/>
<glyph glyph-name="Psi" d="M256 192q-122 9 -182.5 73t-60.5 165v258h88v-253q0 -78 35.5 -120t120.5 -50v423h87v-422q83 8 119 49.5t36 119.5v253h88v-258q0 -100 -61 -163.5t-181 -73.5v-193h-89v192z" unicode="Ψ"/>
<glyph glyph-name="Omega" d="M300 628q-82 0 -123 -66t-41 -213q0 -221 130 -285v-64h-208v69h112v4q-123 64 -123 276q0 167 68 259t185 92t185 -92t68 -259q0 -208 -125 -276v-4h114v-69h-207v64q129 64 129 285q0 146 -41 212.5t-123 66.5z" unicode="Ω"/>
<glyph glyph-name="Iotadieresis" d="M497 620h-154v-551h154v-69h-394v69h154v551h-154v68h394v-68zM196 767q-23 0 -38.5 15t-15.5 38t15.5 38.5t38.5 15.5t38.5 -15.5t15.5 -38.5q0 -22 -15.5 -37.5t-38.5 -15.5zM402 767q-22 0 -37.5 15.5t-15.5 37.5q0 23 15 38.5t38 15.5q24 0 39.5 -15.5t15.5 -38.5 t-15.5 -38t-39.5 -15z" unicode="Ϊ"/>
<glyph glyph-name="Upsilondieresis" d="M343 0h-86v265l-233 423h95l183 -345l185 345h89l-233 -422v-266zM199 767q-23 0 -38.5 15t-15.5 38t15.5 38.5t38.5 15.5t38.5 -15.5t15.5 -38.5q0 -22 -15.5 -37.5t-38.5 -15.5zM405 767q-23 0 -38 15.5t-15 37.5q0 23 15 38.5t38 15.5q24 0 39.5 -15.5t15.5 -38.5 t-15.5 -38t-39.5 -15z" unicode="Ϋ"/>
<glyph glyph-name="alphatonos" d="M261 471q-54 0 -83.5 -55t-29.5 -158q0 -202 109 -202q102 0 143 211q-20 116 -53 160t-86 44zM255 538q70 0 110 -37.5t56 -128.5l27 154h76l-51 -281l26 -136q6 -37 45 -51l-30 -70q-33 5 -59.5 30t-32.5 65l-8 56q-52 -150 -164 -150q-92 0 -141.5 67.5t-49.5 201.5 q0 126 50.5 203t145.5 77zM279 806l92 -16l-67 -200l-63 11z" unicode="ά"/>
<glyph glyph-name="epsilontonos" d="M301 241q-67 0 -97.5 -20.5t-30.5 -65.5t38 -71.5t104 -26.5q102 0 186 58l45 -56q-94 -70 -236 -70q-100 0 -163.5 43t-63.5 120q0 59 33.5 90t98.5 40q-54 11 -82 41t-28 74q0 67 60 104t151 37q123 0 200 -54l-42 -52q-64 39 -155 39q-128 0 -128 -82q0 -37 31 -58.5 t84 -21.5h95l-10 -68h-90zM318 806l92 -16l-67 -200l-63 11z" unicode="έ"/>
<glyph glyph-name="etatonos" d="M351 538q149 0 149 -156v-584l-83 -10v532q0 87 -17 119.5t-75 32.5q-41 0 -79.5 -26.5t-62.5 -61.5v-384h-83v354q0 84 -27 173l78 11q17 -31 24 -88q33 42 80.5 65t95.5 23zM300 806l92 -16l-67 -200l-63 11z" unicode="ή"/>
<glyph glyph-name="iotatonos" d="M63 456l10 70h251v-396q0 -72 87 -72q42 0 89 18l22 -60q-46 -27 -125 -27q-71 0 -113.5 40t-42.5 110v317h-178zM286 806l92 -16l-67 -200l-63 11z" unicode="ί"/>
<glyph glyph-name="upsilondieresistonos" d="M499 526q26 -143 26 -271q0 -131 -69.5 -198.5t-167.5 -67.5q-83 0 -133.5 44t-50.5 128v365h83v-358q0 -111 104 -111q62 0 106 47.5t44 158.5q0 125 -26 263h84zM190 720q23 0 38.5 -15.5t15.5 -38.5t-15.5 -38t-38.5 -15t-39 15t-16 38t16 38.5t39 15.5zM414 720 q24 0 39.5 -15.5t15.5 -38.5t-15.5 -38t-39.5 -15q-23 0 -38.5 15t-15.5 38t15.5 38.5t38.5 15.5zM395 883l-60 -169l-65 10l29 176z" unicode="ΰ"/>
<glyph glyph-name="alpha" d="M261 471q-54 0 -83.5 -55t-29.5 -158q0 -202 109 -202q102 0 143 211q-20 116 -53 160t-86 44zM255 538q70 0 110 -37.5t56 -128.5l27 154h76l-51 -281l26 -136q6 -37 45 -51l-30 -70q-33 5 -59.5 30t-32.5 65l-8 56q-52 -150 -164 -150q-92 0 -141.5 67.5t-49.5 201.5 q0 126 50.5 203t145.5 77z" unicode="α"/>
<glyph glyph-name="beta" d="M341 404q206 -24 206 -202q0 -95 -66 -154t-156 -59q-86 0 -151 52v-242l-82 -11v752q0 98 53 153t147 55q84 0 142 -47.5t58 -128.5q0 -75 -42.5 -117.5t-108.5 -50.5zM317 57q63 0 104 38t41 107q0 81 -46.5 122.5t-134.5 41.5h-54l10 64h53q56 0 91 33t35 100 q0 60 -33.5 89.5t-89.5 29.5q-119 0 -119 -143v-430q52 -52 143 -52z" unicode="β"/>
<glyph glyph-name="gamma" d="M557 519l-217 -502q-23 -56 -23 -116q0 -42 11 -102l-67 -11q-25 49 -25 116q0 62 21 116q-35 149 -95 290.5t-119 196.5l85 30q52 -61 99 -176t77 -254l168 431z" unicode="γ"/>
<glyph glyph-name="delta" d="M291 454q-71 -32 -102 -83t-31 -129q0 -86 38.5 -135.5t106.5 -49.5q69 0 107 48t38 138q0 88 -32.5 130.5t-124.5 80.5zM318 749q92 0 165 -60l-42 -49q-59 45 -128 45q-45 0 -70.5 -18.5t-25.5 -52.5q0 -32 23.5 -49.5t95.5 -47.5q107 -44 154.5 -104t47.5 -170 q0 -105 -64 -179.5t-171 -74.5q-108 0 -171.5 73t-63.5 181q0 87 44.5 149t115.5 90q-53 27 -75 57.5t-22 71.5q0 65 52.5 101.5t134.5 36.5z" unicode="δ"/>
<glyph glyph-name="epsilon" d="M301 241q-67 0 -97.5 -20.5t-30.5 -65.5t38 -71.5t104 -26.5q102 0 186 58l45 -56q-94 -70 -236 -70q-100 0 -163.5 43t-63.5 120q0 59 33.5 90t98.5 40q-54 11 -82 41t-28 74q0 67 60 104t151 37q123 0 200 -54l-42 -52q-64 39 -155 39q-128 0 -128 -82q0 -37 31 -58.5 t84 -21.5h95l-10 -68h-90z" unicode="ε"/>
<glyph glyph-name="zeta" d="M530 682q-179 -154 -253.5 -245t-74.5 -183q0 -70 34 -102.5t123 -62.5q91 -29 127.5 -54.5t36.5 -79.5q0 -56 -38.5 -99t-118.5 -79l-34 60q51 26 76 50t25 59q0 27 -21.5 40t-92.5 38q-112 38 -160 85.5t-48 142.5q0 101 79 199t259 232q-32 -13 -145 -13h-151l10 69 h355z" unicode="ζ"/>
<glyph glyph-name="eta" d="M351 538q149 0 149 -156v-584l-83 -10v532q0 87 -17 119.5t-75 32.5q-41 0 -79.5 -26.5t-62.5 -61.5v-384h-83v354q0 84 -27 173l78 11q17 -31 24 -88q33 42 80.5 65t95.5 23z" unicode="η"/>
<glyph glyph-name="theta" d="M161 339q4 -147 37.5 -214.5t101.5 -67.5t101 67t37 215h-277zM301 679q-69 0 -103 -65t-37 -208h278q-3 143 -36 208t-102 65zM301 749q110 0 167.5 -99t57.5 -278q0 -177 -59 -280t-167 -103q-109 0 -167.5 101t-58.5 281q0 176 59 277t168 101z" unicode="θ"/>
<glyph glyph-name="iota" d="M63 456l10 70h251v-396q0 -72 87 -72q42 0 89 18l22 -60q-46 -27 -125 -27q-71 0 -113.5 40t-42.5 110v317h-178z" unicode="ι"/>
<glyph glyph-name="kappa" d="M169 526q27 -75 27 -201v-325h-83v340q0 90 -26 186h82zM527 489l-226 -204l148 -156q32 -34 56 -49.5t55 -22.5l-29 -68q-40 6 -70 24.5t-63 53.5l-198 216l257 255z" unicode="κ"/>
<glyph glyph-name="lambda" d="M277 526q-22 75 -59.5 111t-116.5 48l13 66q115 -17 171.5 -73.5t85.5 -178.5q48 -198 89 -310t98 -168l-85 -32q-107 131 -176 473l-169 -474l-79 17l194 521h34z" unicode="λ"/>
<glyph glyph-name="mu" d="M483 167q0 -81 28 -167l-78 -12q-18 30 -25 85q-23 -38 -62 -61.5t-79 -23.5t-62 11.5t-42 39.5q9 -65 9 -87v-154l-83 -10v738h83v-295q0 -90 16.5 -129.5t72.5 -39.5q82 0 139 80v384h83v-359z" unicode="μ"/>
<glyph glyph-name="nu" d="M237 0q-39 166 -93 310.5t-112 195.5l84 31q102 -118 178 -463l169 464l84 -19l-208 -519h-102z" unicode="ν"/>
<glyph glyph-name="xi" d="M357 749q113 0 194 -59l-40 -50q-69 44 -154 44q-64 0 -99 -26t-35 -76q0 -49 32 -76t88 -27h121l-10 -76h-120q-66 0 -105.5 -39t-39.5 -96q0 -40 9.5 -66t36.5 -45.5t57 -32t88 -29.5q94 -29 130 -57t36 -83q0 -56 -38.5 -98.5t-118.5 -79.5l-34 60q51 25 76 50.5 t25 61.5q0 26 -18 38.5t-76 31.5q-52 16 -86 29t-70.5 34t-57.5 45t-35 59t-14 79q0 42 16 76t41 54.5t50.5 32.5t50.5 16q-55 21 -87.5 52t-32.5 84q0 77 63.5 123t156.5 46z" unicode="ξ"/>
<glyph glyph-name="omicron" d="M301 470q-138 0 -138 -207q0 -206 137 -206t137 207q0 206 -136 206zM301 538q109 0 167 -73.5t58 -200.5q0 -124 -59 -199.5t-167 -75.5q-109 0 -167.5 73.5t-58.5 200.5q0 125 59.5 200t167.5 75z" unicode="ο"/>
<glyph glyph-name="pi" d="M474 457v-321q0 -39 11 -56t39 -23l-30 -68q-57 14 -80.5 45t-23.5 92v331h-192v-457h-84v457q-50 -1 -89 -12l-19 64q36 17 131 17h421v-69h-84z" unicode="π"/>
<glyph glyph-name="rho" d="M306 538q218 0 218 -274q0 -118 -53.5 -196.5t-152.5 -78.5q-87 0 -141 60v-251l-83 -10v482q0 131 54 199.5t158 68.5zM304 472q-69 0 -98 -53.5t-29 -161.5v-133q44 -66 122 -66q66 0 100.5 53t34.5 153q0 208 -130 208z" unicode="ρ"/>
<glyph glyph-name="sigmafinal" d="M348 538q56 0 96 -12.5t83 -43.5l-42 -55q-34 22 -63 31.5t-71 9.5q-68 0 -114 -52t-46 -145q0 -73 30 -105.5t128 -68.5q86 -32 123 -61t37 -83t-36.5 -92.5t-118.5 -74.5l-36 60q50 20 75.5 41.5t25.5 56.5q0 30 -22 44.5t-103 43.5q-100 36 -146 89.5t-46 149.5 q0 125 68.5 196t177.5 71z" unicode="ς"/>
<glyph glyph-name="sigma" d="M559 457l-124 9q86 -53 89 -201v-9q0 -120 -60 -193.5t-164 -73.5q-107 0 -166.5 74t-59.5 200q0 123 66 196t182 73q72 0 237 -5v-70zM300 57q135 0 135 207q0 146 -72 204h-5q-96 0 -145.5 -43.5t-49.5 -161.5q0 -206 137 -206z" unicode="σ"/>
<glyph glyph-name="tau" d="M508 16q-46 -27 -125 -27q-71 0 -113 39.5t-42 110.5v318h-45q-64 0 -130 -18l-14 66q62 21 156 21h311v-69h-195v-327q0 -72 86 -72q42 0 89 18z" unicode="τ"/>
<glyph glyph-name="upsilon" d="M499 526q26 -143 26 -271q0 -131 -69.5 -198.5t-167.5 -67.5q-83 0 -133.5 44t-50.5 128v365h83v-358q0 -111 104 -111q62 0 106 47.5t44 158.5q0 125 -26 263h84z" unicode="υ"/>
<glyph glyph-name="phi" d="M401 472q-17 0 -29 -5.5t-19.5 -19t-12 -26.5t-6.5 -36t-2.5 -39t-0.5 -45v-247q83 9 116.5 60t33.5 154q0 110 -17.5 157t-62.5 47zM402 538q85 0 124.5 -67t39.5 -203q0 -257 -235 -278v-191l-79 -11v202q-218 19 -218 249q0 142 55 287h84q-56 -164 -56 -266 q0 -97 29.5 -146t105.5 -58v262q0 108 34.5 164t115.5 56z" unicode="φ"/>
<glyph glyph-name="chi" d="M552 -203l-86 -7l-159 334l-162 -332l-86 6l198 385q-61 136 -101.5 198t-100.5 125l81 31q49 -50 88 -116.5t84 -182.5l138 295l87 -4l-176 -341z" unicode="χ"/>
<glyph glyph-name="psi" d="M340 63q86 9 115.5 56t29.5 143q0 118 -27 264h85q26 -141 26 -272q0 -241 -229 -260v-196l-78 -10v206q-110 8 -165 63t-55 136v333h83v-326q0 -64 31 -96.5t106 -40.5v463h78v-463z" unicode="ψ"/>
<glyph glyph-name="omega" d="M523 526q51 -135 51 -287q0 -118 -39 -184t-114 -66q-107 0 -122 116q-24 -116 -122 -116q-151 0 -151 250q0 162 50 287h74q-41 -129 -41 -266q0 -103 16.5 -153t59.5 -50q75 0 75 174v126l80 11v-138q0 -84 16 -128.5t58 -44.5q43 0 60 50t17 153q0 127 -44 266h76z " unicode="ω"/>
<glyph glyph-name="iotadieresis" d="M63 456l10 70h251v-396q0 -72 87 -72q42 0 89 18l22 -60q-46 -27 -125 -27q-71 0 -113.5 40t-42.5 110v317h-178zM180 648q-23 0 -38.5 15t-15.5 38t15.5 38.5t38.5 15.5t38.5 -15.5t15.5 -38.5q0 -22 -15.5 -37.5t-38.5 -15.5zM386 648q-22 0 -37.5 15t-15.5 38t15 38.5 t38 15.5q24 0 39.5 -15.5t15.5 -38.5t-15.5 -38t-39.5 -15z" unicode="ϊ"/>
<glyph glyph-name="upsilondieresis" d="M499 526q26 -143 26 -271q0 -131 -69.5 -198.5t-167.5 -67.5q-83 0 -133.5 44t-50.5 128v365h83v-358q0 -111 104 -111q62 0 106 47.5t44 158.5q0 125 -26 263h84zM196 648q-23 0 -38.5 15t-15.5 38t15.5 38.5t38.5 15.5t38.5 -15.5t15.5 -38.5q0 -22 -15.5 -37.5 t-38.5 -15.5zM402 648q-22 0 -37.5 15t-15.5 38t15 38.5t38 15.5q24 0 39.5 -15.5t15.5 -38.5t-15.5 -38t-39.5 -15z" unicode="ϋ"/>
<glyph glyph-name="omicrontonos" d="M301 470q-138 0 -138 -207q0 -206 137 -206t137 207q0 206 -136 206zM301 538q109 0 167 -73.5t58 -200.5q0 -124 -59 -199.5t-167 -75.5q-109 0 -167.5 73.5t-58.5 200.5q0 125 59.5 200t167.5 75zM302 806l92 -16l-67 -200l-63 11z" unicode="ό"/>
<glyph glyph-name="upsilontonos" d="M499 526q26 -143 26 -271q0 -131 -69.5 -198.5t-167.5 -67.5q-83 0 -133.5 44t-50.5 128v365h83v-358q0 -111 104 -111q62 0 106 47.5t44 158.5q0 125 -26 263h84zM302 806l92 -16l-67 -200l-63 11z" unicode="ύ"/>
<glyph glyph-name="omegatonos" d="M523 526q51 -135 51 -287q0 -118 -39 -184t-114 -66q-107 0 -122 116q-24 -116 -122 -116q-151 0 -151 250q0 162 50 287h74q-41 -129 -41 -266q0 -103 16.5 -153t59.5 -50q75 0 75 174v126l80 11v-138q0 -84 16 -128.5t58 -44.5q43 0 60 50t17 153q0 127 -44 266h76z M302 806l92 -16l-67 -200l-63 11z" unicode="ώ"/>
<glyph glyph-name="uni0400" d="M212 385h255v-71h-255v-245h313v-69h-399v688h390l-10 -70h-294v-233zM437 800l-26 -44l-205 81l46 72z" unicode="Ѐ"/>
<glyph glyph-name="uni0401" d="M212 385h255v-71h-255v-245h313v-69h-399v688h390l-10 -70h-294v-233zM217 767q-23 0 -38.5 15t-15.5 38t15.5 38.5t38.5 15.5t38.5 -15.5t15.5 -38.5q0 -22 -15.5 -37.5t-38.5 -15.5zM423 767q-23 0 -38 15.5t-15 37.5q0 23 15 38.5t38 15.5q24 0 39.5 -15.5t15.5 -38.5 t-15.5 -38t-39.5 -15z" unicode="Ё"/>
<glyph glyph-name="uni0402" d="M243 390q68 59 145 59q178 0 178 -203v-150q0 -99 -42 -150t-130 -81l-22 69q65 26 86.5 59.5t21.5 101.5v145q0 72 -25.5 103.5t-85.5 31.5q-68 0 -126 -54v-321h-86v617h-162v71h418l-9 -71h-161v-227z" unicode="Ђ"/>
<glyph glyph-name="uni0403" d="M535 613h-313v-613h-85v688h407zM469 834l-213 -78l-22 44l198 105z" unicode="Ѓ"/>
<glyph glyph-name="uni0404" d="M352 700q114 0 200 -67l-49 -55q-61 52 -145 52q-86 0 -143 -58t-66 -182h305v-72h-308q6 -131 63.5 -194.5t147.5 -63.5q93 0 159 60l46 -56q-81 -75 -208 -75q-133 0 -214.5 93t-81.5 263q0 167 84.5 261t209.5 94z" unicode="Є"/>
<glyph glyph-name="uni0405" d="M536 191q0 -91 -66.5 -146.5t-184.5 -55.5q-151 0 -241 87l51 58q78 -73 192 -73q67 0 113.5 33t46.5 95q0 51 -31.5 80t-119.5 55q-112 33 -167 77.5t-55 121.5q0 78 62 127.5t161 49.5q127 0 219 -79l-51 -56q-70 63 -166 63q-60 0 -99 -26.5t-39 -76.5q0 -44 37.5 -71 t136.5 -56q96 -28 148.5 -73t52.5 -134z" unicode="Ѕ"/>
<glyph glyph-name="uni0406" d="M497 620h-154v-551h154v-69h-394v69h154v551h-154v68h394v-68z" unicode="І"/>
<glyph glyph-name="uni0407" d="M497 620h-154v-551h154v-69h-394v69h154v551h-154v68h394v-68zM196 767q-23 0 -38.5 15t-15.5 38t15.5 38.5t38.5 15.5t38.5 -15.5t15.5 -38.5q0 -22 -15.5 -37.5t-38.5 -15.5zM402 767q-22 0 -37.5 15.5t-15.5 37.5q0 23 15 38.5t38 15.5q24 0 39.5 -15.5t15.5 -38.5 t-15.5 -38t-39.5 -15z" unicode="Ї"/>
<glyph glyph-name="uni0408" d="M496 228q0 -46 -11.5 -86t-37 -76t-73 -57t-112.5 -21q-106 0 -189 63l38 57q76 -48 150 -48q71 0 110.5 46t39.5 127v385h-204v70h289v-460z" unicode="Ј"/>
<glyph glyph-name="uni0409" d="M355 366v-296h15q72 0 106 31.5t34 118.5q0 79 -34 112.5t-105 33.5h-16zM355 433q124 0 184.5 -51.5t60.5 -160.5q0 -221 -237 -221h-93v617h-95l-23 -306q-9 -119 -24 -183.5t-31.5 -88.5t-50.5 -50l-44 57q27 30 42 81.5t25 185.5l31 375h255v-255z" unicode="Љ"/>
<glyph glyph-name="uni040A" d="M354 413h4q123 0 182.5 -49t59.5 -152q0 -112 -61 -162t-176 -50h-94v349h-143v-349h-84v688h84v-275h143v275h85v-275zM354 349v-281h16h5q70 0 102.5 29.5t32.5 113.5q0 76 -34 107t-106 31h-16z" unicode="Њ"/>
<glyph glyph-name="uni040B" d="M404 617h-161v-227q62 59 145 59q178 0 178 -203v-246h-86v240q0 72 -25.5 103.5t-85.5 31.5q-68 0 -126 -54v-321h-86v617h-162v71h418z" unicode="Ћ"/>
<glyph glyph-name="uni040C" d="M181 326v-326h-86v688h86v-290h81l212 290h93l-232 -324l251 -364h-104l-221 326h-80zM439 834l-213 -78l-22 44l198 105z" unicode="Ќ"/>
<glyph glyph-name="uni040D" d="M84 688h85v-349q0 -130 -12 -246h4l245 595h110v-688h-85v351q0 127 12 242h-4l-243 -593h-112v688zM416 800l-26 -44l-205 81l46 72z" unicode="Ѝ"/>
<glyph glyph-name="uni040E" d="M368 179q-38 -90 -90 -133.5t-156 -56.5l-13 68q87 13 123.5 42t58.5 91h-37l-227 498h89l197 -443l180 443h87zM308 759q-58 0 -99.5 32.5t-47.5 86.5l57 12q24 -67 90 -67q69 0 93 67l57 -12q-6 -54 -48.5 -86.5t-101.5 -32.5z" unicode="Ў"/>
<glyph glyph-name="uni040F" d="M516 0h-174v-147h-68l-15 147h-175v688h85v-617h74v1h99v-1h89v617h85v-688z" unicode="Џ"/>
<glyph glyph-name="uni0410" d="M161 176l-56 -176h-84l224 688h110l224 -688h-90l-55 176h-273zM412 247l-114 369l-115 -369h229z" unicode="А"/>
<glyph glyph-name="uni0411" d="M187 352v-282h100q80 0 122.5 30.5t42.5 112.5q0 139 -165 139h-100zM477 617h-290v-197h87q268 0 268 -206q0 -214 -267 -214h-174v688h384z" unicode="Б"/>
<glyph glyph-name="uni0412" d="M449 193q0 131 -148 131h-119v-253h115q152 0 152 122zM421 510q0 109 -135 109h-104v-224h112q127 0 127 115zM539 196q0 -54 -22 -93.5t-60 -61t-81.5 -31.5t-94.5 -10h-184v688h169q48 0 89 -8.5t77 -27t56.5 -53.5t20.5 -84q0 -62 -36.5 -100t-91.5 -50 q158 -27 158 -169z" unicode="В"/>
<glyph glyph-name="uni0413" d="M535 613h-313v-613h-85v688h407z" unicode="Г"/>
<glyph glyph-name="uni0414" d="M565 72v-219h-69l-14 147h-399l-15 -147h-68v219h43q36 36 51 99t42 267q5 35 7 53l26 197h345v-616h51zM426 616h-182l-15 -132q-26 -226 -43 -299.5t-60 -112.5h300v544z" unicode="Д"/>
<glyph glyph-name="uni0415" d="M212 385h255v-71h-255v-245h313v-69h-399v688h390l-10 -70h-294v-233z" unicode="Е"/>
<glyph glyph-name="uni0416" d="M199 327l-104 -327h-83l123 364l-108 324h82l91 -291h61v291h78v-291h61l92 291h81l-108 -324l123 -364h-85l-103 327h-61v-327h-78v327h-62z" unicode="Ж"/>
<glyph glyph-name="uni0417" d="M280 700q108 0 172.5 -50t64.5 -130q0 -61 -40 -98.5t-102 -46.5q69 -7 117 -51t48 -119q0 -95 -71 -155.5t-189 -60.5q-159 0 -245 98l56 47q68 -73 187 -73q81 0 125.5 37.5t44.5 103.5t-44 98.5t-117 32.5h-122l10 73h105q63 0 106 28.5t43 84.5q0 54 -41.5 82.5 t-107.5 28.5q-105 0 -182 -69l-49 53q97 86 231 86z" unicode="З"/>
<glyph glyph-name="uni0418" d="M84 688h85v-349q0 -130 -12 -246h4l245 595h110v-688h-85v351q0 127 12 242h-4l-243 -593h-112v688z" unicode="И"/>
<glyph glyph-name="uni0419" d="M84 688h85v-349q0 -130 -12 -246h4l245 595h110v-688h-85v351q0 127 12 242h-4l-243 -593h-112v688zM298 773q-59 0 -100 29.5t-47 82.5l57 13q20 -60 90 -60q73 0 93 60l57 -13q-6 -53 -48 -82.5t-102 -29.5z" unicode="Й"/>
<glyph glyph-name="uni041A" d="M181 326v-326h-86v688h86v-290h81l212 290h93l-232 -324l251 -364h-104l-221 326h-80z" unicode="К"/>
<glyph glyph-name="uni041B" d="M516 0h-85v615h-187l-24 -206q-19 -155 -42.5 -238t-48.5 -114.5t-76 -67.5l-38 64q22 18 33 31.5t27.5 47.5t29 95.5t25.5 156.5l40 304h346v-688z" unicode="Л"/>
<glyph glyph-name="uni041C" d="M569 0h-82l-22 361q-6 114 -6 229h-2l-114 -466h-87l-118 466h-4q0 -143 -4 -229l-19 -361h-80l39 688h120l112 -471l107 471h121z" unicode="М"/>
<glyph glyph-name="uni041D" d="M431 328h-262v-328h-85v688h85v-291h262v291h85v-688h-85v328z" unicode="Н"/>
<glyph glyph-name="uni041E" d="M464 344q0 141 -39 212t-125 71t-125 -71.5t-39 -213.5q0 -281 164 -281q85 0 124.5 71t39.5 212zM553 344q0 -161 -65.5 -258t-187.5 -97q-123 0 -188 95t-65 258q0 162 65.5 260t187.5 98t187.5 -96.5t65.5 -259.5z" unicode="О"/>
<glyph glyph-name="uni041F" d="M431 614h-262v-614h-85v688h432v-688h-85v614z" unicode="П"/>
<glyph glyph-name="uni0420" d="M465 476q0 144 -163 144h-100v-295h97q79 0 122.5 34t43.5 117zM557 477q0 -115 -71 -168t-195 -53h-89v-256h-85v688h174q126 0 196 -53t70 -158z" unicode="Р"/>
<glyph glyph-name="uni0421" d="M358 700q115 0 199 -67l-48 -56q-62 51 -145 51q-94 0 -152.5 -67.5t-58.5 -215.5q0 -146 57.5 -214.5t152.5 -68.5q88 0 160 58l44 -57q-76 -74 -205 -74q-131 0 -214.5 93.5t-83.5 262.5q0 167 84.5 261t209.5 94z" unicode="С"/>
<glyph glyph-name="uni0422" d="M341 0h-85v615h-216v73h519l-9 -73h-209v-615z" unicode="Т"/>
<glyph glyph-name="uni0423" d="M368 179q-38 -90 -90 -133.5t-156 -56.5l-13 68q87 13 123.5 42t58.5 91h-37l-227 498h89l197 -443l180 443h87z" unicode="У"/>
<glyph glyph-name="uni0424" d="M259 595q-83 -2 -121 -59t-38 -189q0 -127 37.5 -186t121.5 -66v500zM341 95q84 7 121.5 66t37.5 186q0 132 -38 189t-121 59v-500zM342 659q125 -9 185 -86.5t60 -225.5q0 -152 -63 -231t-182 -85v-60h-84v60q-245 11 -245 316q0 148 60 225.5t185 86.5v59h84v-59z" unicode="Ф"/>
<glyph glyph-name="uni0425" d="M148 688l152 -265l152 265h93l-196 -316l220 -372h-99l-172 312l-175 -312h-92l217 367l-198 321h98z" unicode="Х"/>
<glyph glyph-name="uni0426" d="M578 72v-219h-68l-15 147h-411v688h85v-617h262v617h85v-616h62z" unicode="Ц"/>
<glyph glyph-name="uni0427" d="M516 688v-688h-85v282q-47 -33 -87 -47.5t-93 -14.5q-90 0 -145 55.5t-55 147.5v265h86v-258q0 -135 135 -135q96 0 159 61v332h85z" unicode="Ч"/>
<glyph glyph-name="uni0428" d="M554 0h-508v688h81v-616h134v616h78v-616h134v616h81v-688z" unicode="Ш"/>
<glyph glyph-name="uni0429" d="M616 72v-219h-68l-15 147h-487v688h81v-616h134v616h78v-616h134v616h81v-616h62z" unicode="Щ"/>
<glyph glyph-name="uni042A" d="M209 364v-294h122q77 0 119 32.5t42 117.5q0 144 -162 144h-121zM209 433h106q266 0 266 -212q0 -115 -71 -168t-194 -53h-194v613h-122v75h209v-255z" unicode="Ъ"/>
<glyph glyph-name="uni042B" d="M119 367v-298h74q73 0 109.5 35.5t36.5 115.5q0 147 -147 147h-73zM119 432h63q248 0 248 -211q0 -110 -63.5 -165.5t-182.5 -55.5h-153v688h88v-256zM569 0h-88v688h88v-688z" unicode="Ы"/>
<glyph glyph-name="uni042C" d="M180 365v-295h116q78 0 120.5 32.5t42.5 117.5q0 145 -162 145h-117zM180 433h105q266 0 266 -212q0 -114 -71 -167.5t-194 -53.5h-191v688h85v-255z" unicode="Ь"/>
<glyph glyph-name="uni042D" d="M269 700q127 0 198 -88t71 -259q0 -177 -73.5 -270.5t-203.5 -93.5q-133 0 -219 88l52 49q74 -66 162 -66q91 0 139 63t55 195h-304v72h304q-7 127 -53.5 183.5t-131.5 56.5q-52 0 -90 -17t-77 -48l-48 50q98 85 219 85z" unicode="Э"/>
<glyph glyph-name="uni042E" d="M388 629q-56 0 -79 -63t-23 -221q0 -159 23 -222.5t79 -63.5q54 0 78.5 64t24.5 221q0 156 -24.5 220.5t-78.5 64.5zM388 700q105 0 148 -87t43 -269q0 -176 -45.5 -265.5t-145.5 -89.5q-52 0 -89.5 23.5t-59 68.5t-31.5 103.5t-11 136.5h-67v-321h-83v688h83v-296h68 q6 155 50.5 231.5t139.5 76.5z" unicode="Ю"/>
<glyph glyph-name="uni042F" d="M516 0h-85v277h-155l-146 -277h-96l162 297q-120 54 -120 187q0 98 67 151t193 53h180v-688zM325 620q-80 0 -119 -32.5t-39 -102.5q0 -138 139 -138h125v273h-106z" unicode="Я"/>
<glyph glyph-name="uni0430" d="M260 52q39 0 74.5 19.5t58.5 55.5v136h-76q-159 0 -159 -111q0 -100 102 -100zM477 114q0 -30 10 -45t33 -22l-20 -59q-75 10 -96 75q-57 -74 -165 -74q-79 0 -124.5 44t-45.5 118q0 81 63.5 125t183.5 44h77v44q0 104 -125 104q-63 0 -137 -26l-22 62q91 34 171 34 q96 0 146.5 -45t50.5 -125v-254z" unicode="а"/>
<glyph glyph-name="uni0431" d="M299 57q62 0 97.5 42.5t35.5 149.5q0 174 -113 174q-100 0 -152 -103v-65q0 -94 35.5 -146t96.5 -52zM332 492q87 0 139 -64.5t52 -175.5q0 -125 -61.5 -194t-162.5 -69q-100 0 -161.5 75t-61.5 225q0 171 40.5 258.5t151.5 125.5q108 37 164 77l37 -65q-64 -40 -160 -76 q-47 -17 -73.5 -37t-45.5 -63.5t-26 -114.5q58 98 168 98z" unicode="б"/>
<glyph glyph-name="uni0432" d="M291 68q33 0 54.5 2t46.5 10t38 26.5t13 48.5q0 91 -133 91h-115v-178h96zM291 471q-48 0 -96 -6v-153h109q56 0 85 18t29 63q0 42 -30.5 60t-96.5 18zM398 285q134 -12 134 -130q0 -77 -64.5 -116t-160.5 -39h-195v519q93 19 178 19q100 0 157 -36t57 -102 q0 -43 -24 -71.5t-82 -43.5z" unicode="в"/>
<glyph glyph-name="uni0433" d="M158 0v526h366l-10 -69h-273v-457h-83z" unicode="г"/>
<glyph glyph-name="uni0434" d="M534 68v-215h-69l-14 147h-341l-14 -147h-69v215h35q37 32 55 91.5t28 196.5l12 170h339v-458h38zM411 459h-179l-6 -97q-10 -145 -28.5 -203t-64.5 -91h278v391z" unicode="д"/>
<glyph glyph-name="uni0435" d="M306 469q-59 0 -97 -43.5t-43 -127.5h276q-1 84 -37 127.5t-99 43.5zM166 234q3 -88 46 -132t108 -44q80 0 141 49l39 -57q-79 -61 -180 -61q-114 0 -177.5 74.5t-63.5 199.5q0 120 62.5 197.5t163.5 77.5q102 0 159.5 -69.5t57.5 -189.5q0 -23 -2 -45h-354z" unicode="е"/>
<glyph glyph-name="uni0436" d="M263 247h-57l-104 -247h-82l122 283l-112 243h84l93 -214h56v214h74v-214h56l95 214h82l-112 -243l122 -283h-85l-104 247h-54v-247h-74v247z" unicode="ж"/>
<glyph glyph-name="uni0437" d="M287 309q52 0 83 22t31 58q0 82 -125 82q-94 0 -161 -49l-41 52q82 64 204 64q93 0 151 -35.5t58 -106.5q0 -41 -29 -71t-77 -44q136 -23 136 -129q0 -77 -66 -120t-169 -43q-137 0 -228 73l42 55q76 -60 189 -60q68 0 105 26.5t37 71.5q0 86 -135 86h-106l6 68h95z" unicode="з"/>
<glyph glyph-name="uni0438" d="M499 0h-80v247q0 131 9 188h-4l-223 -435h-100v526h80v-247q0 -104 -8 -184h4l220 431h102v-526z" unicode="и"/>
<glyph glyph-name="uni0439" d="M499 0h-80v247q0 131 9 188h-4l-223 -435h-100v526h80v-247q0 -104 -8 -184h4l220 431h102v-526zM298 647q-59 0 -100 29.5t-47 82.5l57 13q20 -60 90 -60q73 0 93 60l57 -13q-6 -53 -48 -82.5t-102 -29.5z" unicode="й"/>
<glyph glyph-name="uni043A" d="M106 526h83v-213h106l152 213h94l-177 -243l205 -283h-101l-175 246h-104v-246h-83v526z" unicode="к"/>
<glyph glyph-name="uni043B" d="M510 0h-83v457h-199l-11 -140q-10 -118 -25.5 -179.5t-39.5 -91t-74 -57.5l-36 53q29 18 44 37t29 76t22 158l16 213h357v-526z" unicode="л"/>
<glyph glyph-name="uni043C" d="M557 0h-79l-21 258q-5 78 -5 151v35h-4l-105 -355h-83l-117 355h-4q1 -20 1 -64q0 -66 -3 -120l-15 -260h-79l37 526h110l113 -360l105 360h111z" unicode="м"/>
<glyph glyph-name="uni043D" d="M416 235h-232v-235h-83v526h83v-223h232v223h83v-526h-83v235z" unicode="н"/>
<glyph glyph-name="uni043E" d="M301 470q-138 0 -138 -207q0 -206 137 -206t137 207q0 206 -136 206zM301 538q109 0 167 -73.5t58 -200.5q0 -124 -59 -199.5t-167 -75.5q-109 0 -167.5 73.5t-58.5 200.5q0 125 59.5 200t167.5 75z" unicode="о"/>
<glyph glyph-name="uni043F" d="M416 458h-232v-458h-83v526h398v-526h-83v458z" unicode="п"/>
<glyph glyph-name="uni0440" d="M336 538q190 0 190 -274q0 -125 -52 -200t-151 -75q-87 0 -139 60v-251l-83 -10v738h70l7 -73q61 85 158 85zM316 471q-75 0 -132 -85v-262q43 -66 121 -66q132 0 132 206q0 207 -121 207z" unicode="р"/>
<glyph glyph-name="uni0441" d="M338 60q75 0 138 50l40 -58q-34 -29 -82.5 -46t-95.5 -17q-116 0 -181 73.5t-65 198.5q0 122 66 199.5t181 77.5q100 0 176 -62l-42 -57q-65 49 -135 49q-71 0 -113.5 -53t-42.5 -154t42.5 -151t113.5 -50z" unicode="с"/>
<glyph glyph-name="uni0442" d="M530 457h-189v-457h-82v457h-193v69h474z" unicode="т"/>
<glyph glyph-name="uni0443" d="M353 -3q-32 -91 -85 -145t-149 -64l-13 67q77 13 111 45.5t57 99.5h-28l-184 526h89l152 -463l149 463h86z" unicode="у"/>
<glyph glyph-name="uni0444" d="M338 738v-254q42 54 98 54q74 0 104.5 -70.5t30.5 -203.5q0 -126 -37.5 -200.5t-106.5 -74.5q-51 0 -89 56v-246l-76 -11v257q-38 -56 -91 -56q-68 0 -105 74t-37 201q0 274 140 274q54 0 93 -52v263zM187 472q-37 0 -54.5 -49t-17.5 -159t17.5 -159.5t54.5 -49.5 q21 0 36.5 11.5t38.5 39.5v319q-22 26 -37.5 36.5t-37.5 10.5zM417 472q-40 0 -79 -49v-317q37 -51 72 -51q76 0 76 209q0 112 -16 160t-53 48z" unicode="ф"/>
<glyph glyph-name="uni0445" d="M56 0l195 278l-171 248h98l123 -196l124 196h95l-170 -244l194 -282h-102l-145 226l-146 -226h-95z" unicode="х"/>
<glyph glyph-name="uni0446" d="M575 68v-215h-69l-15 147h-396v526h83v-457h232v457h83v-458h82z" unicode="ц"/>
<glyph glyph-name="uni0447" d="M488 0h-82v223q-66 -59 -166 -59q-76 0 -115 40.5t-39 114.5v207h82v-198q0 -52 22.5 -75t69.5 -23q39 0 80.5 16.5t65.5 43.5v236h82v-526z" unicode="ч"/>
<glyph glyph-name="uni0448" d="M551 0h-502v526h78v-457h134v457h78v-457h134v457h78v-526z" unicode="ш"/>
<glyph glyph-name="uni0449" d="M623 68v-215h-69l-15 147h-490v526h78v-457h134v457h78v-457h134v457h78v-458h72z" unicode="щ"/>
<glyph glyph-name="uni044A" d="M242 295v-228h72q68 0 105 25t37 91q0 60 -36 86t-105 26h-73zM242 361h63q240 0 240 -177q0 -184 -241 -184h-145v462h-126v64h209v-165z" unicode="ъ"/>
<glyph glyph-name="uni044B" d="M142 293v-228h39q67 0 100.5 25.5t33.5 91.5q0 60 -32 85.5t-102 25.5h-39zM142 355h36q224 0 224 -173q0 -93 -59 -137.5t-165 -44.5h-116v526h80v-171zM538 0h-81v526h81v-526z" unicode="ы"/>
<glyph glyph-name="uni044C" d="M210 295v-228h113q121 0 121 114q0 59 -29 86.5t-103 27.5h-102zM210 361h103q118 0 169 -47t51 -133q0 -88 -58.5 -134.5t-142.5 -46.5h-205v526h83v-165z" unicode="ь"/>
<glyph glyph-name="uni044D" d="M278 538q118 0 178 -72.5t60 -199.5t-63 -202t-180 -75q-107 0 -181 63l40 54q66 -48 141 -48q69 0 110 44t47 135h-249v66h248q-15 167 -151 167q-79 0 -142 -47l-39 54q73 61 181 61z" unicode="э"/>
<glyph glyph-name="uni044E" d="M384 469q-52 0 -72.5 -49t-20.5 -157q0 -103 20 -154.5t73 -51.5q55 0 75 51t20 156q0 107 -21.5 156t-73.5 49zM384 538q92 0 138 -71.5t46 -202.5q0 -128 -45.5 -201.5t-138.5 -73.5q-86 0 -130 66.5t-49 178.5h-67v-234h-82v526h82v-222h67q6 111 50.5 172.5 t128.5 61.5z" unicode="ю"/>
<glyph glyph-name="uni044F" d="M310 538q89 0 175 -19v-519h-83v204h-140l-113 -204h-94l126 223q-91 43 -91 147q0 168 220 168zM308 471q-73 0 -101.5 -24.5t-28.5 -76.5q0 -99 121 -99h103v194q-49 6 -94 6z" unicode="я"/>
<glyph glyph-name="uni0450" d="M306 469q-59 0 -97 -43.5t-43 -127.5h276q-1 84 -37 127.5t-99 43.5zM166 234q3 -88 46 -132t108 -44q80 0 141 49l39 -57q-79 -61 -180 -61q-114 0 -177.5 74.5t-63.5 199.5q0 120 62.5 197.5t163.5 77.5q102 0 159.5 -69.5t57.5 -189.5q0 -23 -2 -45h-354zM195 715 l44 72l185 -117l-27 -46z" unicode="ѐ"/>
<glyph glyph-name="uni0451" d="M306 469q-59 0 -97 -43.5t-43 -127.5h276q-1 84 -37 127.5t-99 43.5zM166 234q3 -88 46 -132t108 -44q80 0 141 49l39 -57q-79 -61 -180 -61q-114 0 -177.5 74.5t-63.5 199.5q0 120 62.5 197.5t163.5 77.5q102 0 159.5 -69.5t57.5 -189.5q0 -23 -2 -45h-354zM206 648 q-23 0 -38.5 15t-15.5 38t15.5 38.5t38.5 15.5t38.5 -15.5t15.5 -38.5q0 -22 -15.5 -37.5t-38.5 -15.5zM412 648q-22 0 -37.5 15t-15.5 38t15 38.5t38 15.5q24 0 39.5 -15.5t15.5 -38.5t-15.5 -38t-39.5 -15z" unicode="ё"/>
<glyph glyph-name="uni0452" d="M184 664h169v-66h-169v-140q31 37 76 58.5t92 21.5q148 0 148 -156v-357q0 -71 -18.5 -116.5t-49 -70t-86.5 -49.5l-31 61q58 26 80 59t22 115v354q0 49 -22 71.5t-69 22.5q-42 0 -80.5 -26.5t-61.5 -61.5v-384h-83v598h-82v66h82v73l83 10v-83z" unicode="ђ"/>
<glyph glyph-name="uni0453" d="M158 0v526h366l-10 -69h-273v-457h-83zM410 785l44 -71l-201 -90l-28 46z" unicode="ѓ"/>
<glyph glyph-name="uni0454" d="M339 538q103 0 177 -58l-42 -55q-63 45 -136 45q-63 0 -106.5 -43t-52.5 -124h241v-66h-242q6 -91 49 -135t111 -44q77 0 137 46l41 -56q-72 -59 -177 -59q-116 0 -181.5 73.5t-65.5 198.5q0 122 66 199.5t181 77.5z" unicode="є"/>
<glyph glyph-name="uni0455" d="M280 57q60 0 95.5 23t35.5 61q0 39 -24 60.5t-103 41.5q-92 23 -136 55t-44 96q0 66 55 105t144 39q112 0 191 -59l-37 -56q-68 47 -152 47q-115 0 -115 -69q0 -35 28 -52.5t112 -40.5q86 -23 128.5 -58.5t42.5 -104.5q0 -53 -33 -89.5t-81 -51.5t-108 -15 q-123 0 -205 71l47 54q69 -57 159 -57z" unicode="ѕ"/>
<glyph glyph-name="uni0456" d="M367 66h148v-66h-394v66h163v395h-158v65h241v-460zM300 773q27 0 44 -17t17 -42q0 -26 -17 -42.5t-44 -16.5q-26 0 -43 16.5t-17 42.5q0 25 17 42t43 17z" unicode="і"/>
<glyph glyph-name="uni0457" d="M367 66h148v-66h-394v66h163v395h-158v65h241v-460zM197 648q-23 0 -38.5 15t-15.5 38t15.5 38.5t38.5 15.5t38.5 -15.5t15.5 -38.5q0 -22 -15.5 -37.5t-38.5 -15.5zM403 648q-23 0 -38 15t-15 38t15 38.5t38 15.5q24 0 39.5 -15.5t15.5 -38.5t-15.5 -38t-39.5 -15z" unicode="ї"/>
<glyph glyph-name="uni0458" d="M445 83q0 -127 -85 -197t-250 -98l-14 64q127 21 196.5 73.5t69.5 152.5v383h-220v65h303v-443zM367 773q27 0 44 -17t17 -42q0 -26 -17 -42.5t-44 -16.5t-43.5 16.5t-16.5 42.5q0 25 16.5 42t43.5 17z" unicode="ј"/>
<glyph glyph-name="uni0459" d="M363 294v-229h20q62 0 92 26t30 92q0 60 -29 85.5t-95 25.5h-18zM363 356h13q216 0 216 -173q0 -91 -57 -137t-158 -46h-95v460h-106l-7 -139q-5 -113 -21 -177.5t-41 -95t-73 -59.5l-31 56q24 20 37.5 38.5t27.5 77t19 154.5l11 211h265v-170z" unicode="љ"/>
<glyph glyph-name="uni045A" d="M366 266v-201h19q64 0 93 19t29 81q0 57 -29 79t-95 22h-17zM366 328h13q216 0 216 -163q0 -165 -213 -165h-96v267h-131v-267h-82v526h82v-198h131v198h80v-198z" unicode="њ"/>
<glyph glyph-name="uni045B" d="M352 538q148 0 148 -156v-382h-83v381q0 47 -22 69t-69 22q-42 0 -80.5 -26.5t-61.5 -61.5v-384h-83v598h-82v66h82v73l83 10v-83h169v-66h-169v-144q30 40 75 62t93 22z" unicode="ћ"/>
<glyph glyph-name="uni045C" d="M106 526h83v-213h106l152 213h94l-177 -243l205 -283h-101l-175 246h-104v-246h-83v526zM390 785l44 -71l-201 -90l-28 46z" unicode="ќ"/>
<glyph glyph-name="uni045D" d="M499 0h-80v247q0 131 9 188h-4l-223 -435h-100v526h80v-247q0 -104 -8 -184h4l220 431h102v-526zM185 715l44 72l185 -117l-27 -46z" unicode="ѝ"/>
<glyph glyph-name="uni045E" d="M353 -3q-32 -91 -85 -145t-149 -64l-13 67q77 13 111 45.5t57 99.5h-28l-184 526h89l152 -463l149 463h86zM298 647q-59 0 -100 29.5t-47 82.5l57 13q20 -60 90 -60q73 0 93 60l57 -13q-6 -53 -48 -82.5t-102 -29.5z" unicode="ў"/>
<glyph glyph-name="uni045F" d="M499 0h-157v-147h-69l-15 147h-157v526h83v-457h232v457h83v-526z" unicode="џ"/>
<glyph glyph-name="uni0462" d="M248 68h79q81 0 124.5 32t43.5 113q0 140 -168 140h-79v-285zM248 420h67q270 0 270 -206q0 -214 -266 -214h-157v617h-162v71h417l-9 -71h-160v-197z" unicode="Ѣ"/>
<glyph glyph-name="uni0463" d="M229 290v-223h79q68 0 105 24t37 89q0 110 -141 110h-80zM229 536h133l-11 -67h-122v-114h70q240 0 240 -175q0 -180 -241 -180h-152v469h-87v67h87v108l83 11v-119z" unicode="ѣ"/>
<glyph glyph-name="uni0472" d="M300 61q81 0 120 64.5t42 192.5h-325q6 -257 163 -257zM300 627q-78 0 -117 -60.5t-45 -182.5h323q-5 122 -44 182.5t-117 60.5zM553 344q0 -161 -65.5 -258t-187.5 -97q-123 0 -188 95t-65 258q0 162 65.5 260t187.5 98t187.5 -96.5t65.5 -259.5z" unicode="Ѳ"/>
<glyph glyph-name="uni0473" d="M165 234q6 -91 39 -134t96 -43q123 0 135 177h-270zM301 469q-127 0 -136 -167h270q-9 167 -134 167zM301 538q109 0 167 -73.5t58 -200.5q0 -124 -59 -199.5t-167 -75.5q-109 0 -167.5 73.5t-58.5 200.5q0 125 59.5 200t167.5 75z" unicode="ѳ"/>
<glyph glyph-name="uni0474" d="M584 685q-36 -51 -66 -146l-172 -539h-90l-231 688h92l185 -595l139 468q26 89 58 140z" unicode="Ѵ"/>
<glyph glyph-name="uni0475" d="M548 521q-33 -51 -64 -136l-137 -385h-96l-190 526h88l153 -454l110 340q12 37 18 52.5t16 35.5t21 32z" unicode="ѵ"/>
<glyph glyph-name="uni0490" d="M544 834v-146l-9 -75h-313v-613h-85v688h323v146h84z" unicode="Ґ"/>
<glyph glyph-name="uni0491" d="M524 659v-133l-10 -69h-273v-457h-83v526h281v133h85z" unicode="ґ"/>
<glyph glyph-name="uni0492" d="M253 613v-180h158v-66h-158v-367h-86v367h-101v66h101v255h408l-9 -75h-313z" unicode="Ғ"/>
<glyph glyph-name="uni0493" d="M272 457v-155h125v-66h-125v-236h-83v236h-94v66h94v224h366l-10 -69h-273z" unicode="ғ"/>
<glyph glyph-name="uni0496" d="M588 0h-85l-103 327h-61v-327h-78v327h-62l-104 -327h-83l123 364l-108 324h82l91 -291h61v291h78v-291h61l92 291h81l-108 -324z" unicode="Җ"/>
<glyph glyph-name="uni0497" d="M610 68v-215h-69l-15 147h-35l-100 247h-54v-247h-74v247h-57l-100 -247h-82l118 283l-108 243h85l88 -214h56v214h74v-214h56l91 214h82l-108 -243l89 -215h63z" unicode="җ"/>
<glyph glyph-name="uni0498" d="M540 205q0 -87 -61 -146t-165 -69v-47q46 -4 69 -27.5t23 -55.5q0 -47 -35 -72.5t-86 -25.5q-63 0 -105 24l27 48q30 -16 68 -16q60 0 60 42q0 25 -21.5 34t-65.5 9l7 87q-142 8 -220 97l56 47q68 -73 187 -73q81 0 125.5 37.5t44.5 103.5t-44 98.5t-117 32.5h-122l10 73 h105q63 0 106 28.5t43 84.5q0 54 -41.5 82.5t-107.5 28.5q-105 0 -182 -69l-49 53q97 86 231 86q108 0 172.5 -50t64.5 -130q0 -61 -40 -98.5t-102 -46.5q69 -7 117 -51t48 -119z" unicode="Ҙ"/>
<glyph glyph-name="uni0499" d="M517 152q0 -69 -54 -111t-142 -50v-48q46 -4 69 -27.5t23 -55.5q0 -47 -35 -72.5t-86 -25.5q-63 0 -105 24l27 48q30 -16 68 -16q60 0 60 42q0 25 -21.5 34t-65.5 9l7 86q-122 5 -208 73l42 55q76 -60 189 -60q68 0 105 26.5t37 71.5q0 86 -135 86h-106l6 68h95 q52 0 83 22t31 58q0 82 -125 82q-94 0 -161 -49l-41 52q82 64 204 64q93 0 151 -35.5t58 -106.5q0 -41 -29 -71t-77 -44q136 -23 136 -129z" unicode="ҙ"/>
<glyph glyph-name="uni049A" d="M587 72v-219h-68l-15 147h-22l-221 326h-80v-326h-86v688h86v-290h81l212 290h93l-232 -324l201 -292h51z" unicode="Қ"/>
<glyph glyph-name="uni049B" d="M587 68v-215h-69l-15 147h-35l-175 246h-104v-246h-83v526h83v-213h106l152 213h94l-177 -243l156 -215h67z" unicode="қ"/>
<glyph glyph-name="uni049C" d="M228 326h-49v-326h-84v688h84v-290h49v172h54v-172h26l170 290h90l-192 -324l211 -364h-96l-183 326h-26v-176h-54v176z" unicode="Ҝ"/>
<glyph glyph-name="uni049D" d="M106 526h84v-211h45v115h47v-115h28l144 211h87l-164 -242l192 -284h-91l-168 244h-28v-124h-47v124h-45v-244h-84v526z" unicode="ҝ"/>
<glyph glyph-name="uni04A0" d="M220 326v-326h-87v613h-122v75h209v-289h71l196 289h93l-216 -324l235 -364h-104l-206 326h-69z" unicode="Ҡ"/>
<glyph glyph-name="uni04A1" d="M588 0h-101l-176 246h-95v-246h-83v462h-125v64h208v-213h96l154 213h94l-179 -243z" unicode="ҡ"/>
<glyph glyph-name="uni04A2" d="M580 72v-219h-68l-15 147h-66v328h-262v-328h-85v688h85v-291h262v291h85v-616h64z" unicode="Ң"/>
<glyph glyph-name="uni04A3" d="M566 68v-215h-69l-14 147h-81v235h-233v-235h-83v526h83v-223h233v223h83v-458h81z" unicode="ң"/>
<glyph glyph-name="uni04AA" d="M394 -10q74 -48 74 -118q0 -50 -33.5 -80.5t-90.5 -30.5q-55 0 -97 25l21 51q40 -19 70 -19q28 0 43 15.5t15 41.5q0 67 -77 117q-115 16 -185 107.5t-70 245.5q0 167 84.5 261t209.5 94q115 0 199 -67l-48 -56q-62 51 -145 51q-94 0 -152.5 -67.5t-58.5 -215.5 q0 -146 57.5 -214.5t152.5 -68.5q88 0 160 58l44 -57q-63 -63 -173 -73z" unicode="Ҫ"/>
<glyph glyph-name="uni04AB" d="M379 -8q78 -49 78 -120q0 -50 -33.5 -80.5t-90.5 -30.5q-55 0 -97 25l21 51q40 -19 70 -19q28 0 43 15.5t15 41.5q0 67 -75 115q-103 9 -160.5 81.5t-57.5 189.5q0 122 66 199.5t181 77.5q100 0 176 -62l-42 -57q-65 49 -135 49q-71 0 -113.5 -53t-42.5 -154t42.5 -151 t113.5 -50q75 0 138 50l40 -58q-57 -47 -137 -60z" unicode="ҫ"/>
<glyph glyph-name="uni04AC" d="M341 615v-543h62v-219h-68l-15 147h-64v615h-216v73h519l-9 -73h-209z" unicode="Ҭ"/>
<glyph glyph-name="uni04AD" d="M341 457v-389h82v-215h-69l-15 147h-80v457h-193v69h474l-10 -69h-189z" unicode="ҭ"/>
<glyph glyph-name="uni04AE" d="M343 0h-86v265l-233 423h95l183 -345l185 345h89l-233 -422v-266z" unicode="Ү"/>
<glyph glyph-name="uni04AF" d="M259 16l-201 510h88l156 -430l154 430h86l-201 -510v-218l-82 -10v228z" unicode="ү"/>
<glyph glyph-name="uni04B0" d="M372 319h100v-67h-129v-252h-86v252h-129v67h99l-203 369h95l183 -345l185 345h89z" unicode="Ұ"/>
<glyph glyph-name="uni04B1" d="M363 72h83v-67h-105v-207l-82 -10v217h-105v67h83l-179 454h88l156 -430l154 430h86z" unicode="ұ"/>
<glyph glyph-name="uni04B2" d="M575 72v-219h-68l-15 147h-22l-172 312l-175 -312h-92l217 367l-198 321h98l152 -265l152 265h93l-196 -316l177 -300h49z" unicode="Ҳ"/>
<glyph glyph-name="uni04B3" d="M561 68v-215h-69l-15 147h-35l-145 226l-146 -226h-95l195 278l-171 248h98l123 -196l124 196h95l-170 -244l147 -214h64z" unicode="ҳ"/>
<glyph glyph-name="uni04B6" d="M578 72v-219h-68l-15 147h-64v282q-47 -33 -87 -47.5t-93 -14.5q-90 0 -145 55.5t-55 147.5v265h86v-258q0 -135 135 -135q96 0 159 61v332h85v-616h62z" unicode="Ҷ"/>
<glyph glyph-name="uni04B7" d="M560 68v-215h-69l-14 147h-81v223q-66 -59 -166 -59q-76 0 -115 40.5t-39 114.5v207h82v-198q0 -52 22.5 -75t69.5 -23q39 0 80.5 16.5t65.5 43.5v236h82v-458h82z" unicode="ҷ"/>
<glyph glyph-name="uni04B8" d="M516 688v-688h-85v282q-59 -43 -113 -55v-108h-58v101h-9q-90 0 -145 55.5t-55 147.5v265h86v-258q0 -129 123 -135v243h58v-239q65 11 113 57v332h85z" unicode="Ҹ"/>
<glyph glyph-name="uni04B9" d="M488 526v-526h-82v223q-41 -37 -101 -51v-81h-54v73h-11q-76 0 -115 40.5t-39 114.5v207h82v-198q0 -50 20 -73t63 -25v159h54v-154q66 15 101 55v236h82z" unicode="ҹ"/>
<glyph glyph-name="uni04BA" d="M345 449q96 0 149.5 -56.5t53.5 -156.5v-236h-86v235q0 139 -136 139q-94 0 -157 -80v-294h-85v688h85v-310q65 71 176 71z" unicode="Һ"/>
<glyph glyph-name="uni04BB" d="M350 477q70 0 110 -43.5t40 -118.5v-315h-83v303q0 60 -23 84t-67 24q-81 0 -141 -96l-1 3v-318h-83v737l83 10v-354q62 84 165 84z" unicode="һ"/>
<glyph glyph-name="uni04C0" d="M497 620h-154v-551h154v-69h-394v69h154v551h-154v68h394v-68z" unicode="Ӏ"/>
<glyph glyph-name="uni04C1" d="M199 327l-104 -327h-83l123 364l-108 324h82l91 -291h61v291h78v-291h61l92 291h81l-108 -324l123 -364h-85l-103 327h-61v-327h-78v327h-62zM298 773q-59 0 -100 29.5t-47 82.5l57 13q20 -60 90 -60q73 0 93 60l57 -13q-6 -53 -48 -82.5t-102 -29.5z" unicode="Ӂ"/>
<glyph glyph-name="uni04C2" d="M263 247h-57l-104 -247h-82l122 283l-112 243h84l93 -214h56v214h74v-214h56l95 214h82l-112 -243l122 -283h-85l-104 247h-54v-247h-74v247zM298 647q-59 0 -100 29.5t-47 82.5l57 13q20 -60 90 -60q73 0 93 60l57 -13q-6 -53 -48 -82.5t-102 -29.5z" unicode="ӂ"/>
<glyph glyph-name="uni04CB" d="M516 688v-688h-73l-15 -147h-68v219h71v210q-47 -33 -87 -47.5t-93 -14.5q-90 0 -145 55.5t-55 147.5v265h86v-258q0 -135 135 -135q96 0 159 61v332h85z" unicode="Ӌ"/>
<glyph glyph-name="uni04CC" d="M488 526v-526h-84l-15 -147h-69v215h86v155q-66 -59 -166 -59q-76 0 -115 40.5t-39 114.5v207h82v-198q0 -52 22.5 -75t69.5 -23q39 0 80.5 16.5t65.5 43.5v236h82z" unicode="ӌ"/>
<glyph glyph-name="uni04CF" d="M305 129q0 -71 87 -71q42 0 89 18l22 -60q-50 -27 -125 -27q-70 0 -113 39t-43 106v539h-162v66h245v-610z" unicode="ӏ"/>
<glyph glyph-name="uni04D0" d="M161 176l-56 -176h-84l224 688h110l224 -688h-90l-55 176h-273zM412 247l-114 369l-115 -369h229zM298 773q-59 0 -100 29.5t-47 82.5l57 13q20 -60 90 -60q73 0 93 60l57 -13q-6 -53 -48 -82.5t-102 -29.5z" unicode="Ӑ"/>
<glyph glyph-name="uni04D1" d="M260 52q39 0 74.5 19.5t58.5 55.5v136h-76q-159 0 -159 -111q0 -100 102 -100zM477 114q0 -30 10 -45t33 -22l-20 -59q-75 10 -96 75q-57 -74 -165 -74q-79 0 -124.5 44t-45.5 118q0 81 63.5 125t183.5 44h77v44q0 104 -125 104q-63 0 -137 -26l-22 62q91 34 171 34 q96 0 146.5 -45t50.5 -125v-254zM290 647q-59 0 -100 29.5t-47 82.5l57 13q20 -60 90 -60q73 0 93 60l57 -13q-6 -53 -48 -82.5t-102 -29.5z" unicode="ӑ"/>
<glyph glyph-name="uni04D2" d="M161 176l-56 -176h-84l224 688h110l224 -688h-90l-55 176h-273zM412 247l-114 369l-115 -369h229zM196 767q-23 0 -38.5 15t-15.5 38t15.5 38.5t38.5 15.5t38.5 -15.5t15.5 -38.5q0 -22 -15.5 -37.5t-38.5 -15.5zM402 767q-22 0 -37.5 15.5t-15.5 37.5q0 23 15 38.5 t38 15.5q24 0 39.5 -15.5t15.5 -38.5t-15.5 -38t-39.5 -15z" unicode="Ӓ"/>
<glyph glyph-name="uni04D3" d="M260 52q39 0 74.5 19.5t58.5 55.5v136h-76q-159 0 -159 -111q0 -100 102 -100zM477 114q0 -30 10 -45t33 -22l-20 -59q-75 10 -96 75q-57 -74 -165 -74q-79 0 -124.5 44t-45.5 118q0 81 63.5 125t183.5 44h77v44q0 104 -125 104q-63 0 -137 -26l-22 62q91 34 171 34 q96 0 146.5 -45t50.5 -125v-254zM188 648q-23 0 -38.5 15t-15.5 38t15.5 38.5t38.5 15.5t38.5 -15.5t15.5 -38.5q0 -22 -15.5 -37.5t-38.5 -15.5zM394 648q-22 0 -37.5 15t-15.5 38t15 38.5t38 15.5q24 0 39.5 -15.5t15.5 -38.5t-15.5 -38t-39.5 -15z" unicode="ӓ"/>
<glyph glyph-name="uni04D4" d="M125 176l-49 -176h-88l202 688h376l-10 -70h-237l52 -234h186v-70h-173l52 -244h172v-70h-242l-36 176h-205zM314 248l-74 373l-92 -373h166z" unicode="Ӕ"/>
<glyph glyph-name="uni04D5" d="M211 263q-127 0 -127 -107q0 -50 20 -76.5t54 -26.5q32 0 56.5 23t53.5 74q-14 46 -14 113h-43zM432 468q-46 0 -68 -38.5t-29 -131.5h190q-2 87 -22.5 128.5t-70.5 41.5zM435 538q172 0 172 -259q0 -22 -2 -46h-270q7 -90 34 -132t79 -42q47 0 100 39l38 -57 q-65 -52 -139 -52q-96 0 -148 89q-35 -48 -69.5 -68.5t-83.5 -20.5q-70 0 -111 44t-41 118q0 82 54.5 125.5t159.5 43.5h46v44q0 104 -91 104q-42 0 -105 -27l-22 63q71 34 135 34q103 0 138 -88q14 41 46.5 64.5t79.5 23.5z" unicode="ӕ"/>
<glyph glyph-name="uni04D6" d="M212 385h255v-71h-255v-245h313v-69h-399v688h390l-10 -70h-294v-233zM319 773q-59 0 -100 29.5t-47 82.5l57 13q20 -60 90 -60q73 0 93 60l57 -13q-6 -53 -48 -82.5t-102 -29.5z" unicode="Ӗ"/>
<glyph glyph-name="uni04D7" d="M306 469q-59 0 -97 -43.5t-43 -127.5h276q-1 84 -37 127.5t-99 43.5zM166 234q3 -88 46 -132t108 -44q80 0 141 49l39 -57q-79 -61 -180 -61q-114 0 -177.5 74.5t-63.5 199.5q0 120 62.5 197.5t163.5 77.5q102 0 159.5 -69.5t57.5 -189.5q0 -23 -2 -45h-354zM308 647 q-59 0 -100 29.5t-47 82.5l57 13q20 -60 90 -60q73 0 93 60l57 -13q-6 -53 -48 -82.5t-102 -29.5z" unicode="ӗ"/>
<glyph glyph-name="uni04D8" d="M298 59q151 0 165 250h-335q6 -133 47 -191.5t123 -58.5zM45 331q0 22 3 49h415q-4 132 -48 191.5t-124 59.5q-83 0 -155 -62l-48 54q91 77 205 77q126 0 192 -87t66 -260q0 -171 -68 -267.5t-186 -96.5q-119 0 -185.5 87t-66.5 255z" unicode="Ә"/>
<glyph glyph-name="uni04D9" d="M293 56q69 0 104 40t39 132h-280v-8q-1 -78 35 -121t102 -43zM292 538q119 0 176 -72t57 -202q0 -129 -62 -202t-170 -73q-102 0 -160.5 68.5t-58.5 189.5q0 32 2 46h359q-6 91 -41 133t-103 42q-81 0 -140 -50l-39 58q77 62 180 62z" unicode="ә"/>
<glyph glyph-name="uni04DA" d="M298 59q151 0 165 250h-335q6 -133 47 -191.5t123 -58.5zM45 331q0 22 3 49h415q-4 132 -48 191.5t-124 59.5q-83 0 -155 -62l-48 54q91 77 205 77q126 0 192 -87t66 -260q0 -171 -68 -267.5t-186 -96.5q-119 0 -185.5 87t-66.5 255zM189 767q-23 0 -38.5 15t-15.5 38 t15.5 38.5t38.5 15.5t38.5 -15.5t15.5 -38.5q0 -22 -15.5 -37.5t-38.5 -15.5zM395 767q-23 0 -38 15.5t-15 37.5q0 23 15 38.5t38 15.5q24 0 39.5 -15.5t15.5 -38.5t-15.5 -38t-39.5 -15z" unicode="Ӛ"/>
<glyph glyph-name="uni04DB" d="M293 56q69 0 104 40t39 132h-280v-8q-1 -78 35 -121t102 -43zM292 538q119 0 176 -72t57 -202q0 -129 -62 -202t-170 -73q-102 0 -160.5 68.5t-58.5 189.5q0 32 2 46h359q-6 91 -41 133t-103 42q-81 0 -140 -50l-39 58q77 62 180 62zM196 648q-23 0 -38.5 15t-15.5 38 t15.5 38.5t38.5 15.5t38.5 -15.5t15.5 -38.5q0 -22 -15.5 -37.5t-38.5 -15.5zM402 648q-22 0 -37.5 15t-15.5 38t15 38.5t38 15.5q24 0 39.5 -15.5t15.5 -38.5t-15.5 -38t-39.5 -15z" unicode="ӛ"/>
<glyph glyph-name="uni04DC" d="M199 327l-104 -327h-83l123 364l-108 324h82l91 -291h61v291h78v-291h61l92 291h81l-108 -324l123 -364h-85l-103 327h-61v-327h-78v327h-62zM196 767q-23 0 -38.5 15t-15.5 38t15.5 38.5t38.5 15.5t38.5 -15.5t15.5 -38.5q0 -22 -15.5 -37.5t-38.5 -15.5zM402 767 q-22 0 -37.5 15.5t-15.5 37.5q0 23 15 38.5t38 15.5q24 0 39.5 -15.5t15.5 -38.5t-15.5 -38t-39.5 -15z" unicode="Ӝ"/>
<glyph glyph-name="uni04DD" d="M263 247h-57l-104 -247h-82l122 283l-112 243h84l93 -214h56v214h74v-214h56l95 214h82l-112 -243l122 -283h-85l-104 247h-54v-247h-74v247zM196 648q-23 0 -38.5 15t-15.5 38t15.5 38.5t38.5 15.5t38.5 -15.5t15.5 -38.5q0 -22 -15.5 -37.5t-38.5 -15.5zM402 648 q-22 0 -37.5 15t-15.5 38t15 38.5t38 15.5q24 0 39.5 -15.5t15.5 -38.5t-15.5 -38t-39.5 -15z" unicode="ӝ"/>
<glyph glyph-name="uni04DE" d="M280 700q108 0 172.5 -50t64.5 -130q0 -61 -40 -98.5t-102 -46.5q69 -7 117 -51t48 -119q0 -95 -71 -155.5t-189 -60.5q-159 0 -245 98l56 47q68 -73 187 -73q81 0 125.5 37.5t44.5 103.5t-44 98.5t-117 32.5h-122l10 73h105q63 0 106 28.5t43 84.5q0 54 -41.5 82.5 t-107.5 28.5q-105 0 -182 -69l-49 53q97 86 231 86zM194 767q-23 0 -38.5 15t-15.5 38t15.5 38.5t38.5 15.5t38.5 -15.5t15.5 -38.5q0 -22 -15.5 -37.5t-38.5 -15.5zM400 767q-22 0 -37.5 15.5t-15.5 37.5q0 23 15 38.5t38 15.5q24 0 39.5 -15.5t15.5 -38.5t-15.5 -38 t-39.5 -15z" unicode="Ӟ"/>
<glyph glyph-name="uni04DF" d="M287 309q52 0 83 22t31 58q0 82 -125 82q-94 0 -161 -49l-41 52q82 64 204 64q93 0 151 -35.5t58 -106.5q0 -41 -29 -71t-77 -44q136 -23 136 -129q0 -77 -66 -120t-169 -43q-137 0 -228 73l42 55q76 -60 189 -60q68 0 105 26.5t37 71.5q0 86 -135 86h-106l6 68h95z M190 649q-23 0 -38.5 15t-15.5 38t15.5 38.5t38.5 15.5t38.5 -15.5t15.5 -38.5q0 -22 -15.5 -37.5t-38.5 -15.5zM396 649q-22 0 -37.5 15.5t-15.5 37.5q0 23 15 38.5t38 15.5q24 0 39.5 -15.5t15.5 -38.5t-15.5 -38t-39.5 -15z" unicode="ӟ"/>
<glyph glyph-name="uni04E2" d="M84 688h85v-349q0 -130 -12 -246h4l245 595h110v-688h-85v351q0 127 12 242h-4l-243 -593h-112v688zM165 795v64h269v-64h-269z" unicode="Ӣ"/>
<glyph glyph-name="uni04E3" d="M499 0h-80v247q0 131 9 188h-4l-223 -435h-100v526h80v-247q0 -104 -8 -184h4l220 431h102v-526zM165 676v64h269v-64h-269z" unicode="ӣ"/>
<glyph glyph-name="uni04E4" d="M84 688h85v-349q0 -130 -12 -246h4l245 595h110v-688h-85v351q0 127 12 242h-4l-243 -593h-112v688zM196 767q-23 0 -38.5 15t-15.5 38t15.5 38.5t38.5 15.5t38.5 -15.5t15.5 -38.5q0 -22 -15.5 -37.5t-38.5 -15.5zM402 767q-22 0 -37.5 15.5t-15.5 37.5q0 23 15 38.5 t38 15.5q24 0 39.5 -15.5t15.5 -38.5t-15.5 -38t-39.5 -15z" unicode="Ӥ"/>
<glyph glyph-name="uni04E5" d="M499 0h-80v247q0 131 9 188h-4l-223 -435h-100v526h80v-247q0 -104 -8 -184h4l220 431h102v-526zM196 648q-23 0 -38.5 15t-15.5 38t15.5 38.5t38.5 15.5t38.5 -15.5t15.5 -38.5q0 -22 -15.5 -37.5t-38.5 -15.5zM402 648q-22 0 -37.5 15t-15.5 38t15 38.5t38 15.5 q24 0 39.5 -15.5t15.5 -38.5t-15.5 -38t-39.5 -15z" unicode="ӥ"/>
<glyph glyph-name="uni04E6" d="M464 344q0 141 -39 212t-125 71t-125 -71.5t-39 -213.5q0 -281 164 -281q85 0 124.5 71t39.5 212zM553 344q0 -161 -65.5 -258t-187.5 -97q-123 0 -188 95t-65 258q0 162 65.5 260t187.5 98t187.5 -96.5t65.5 -259.5zM196 767q-23 0 -38.5 15t-15.5 38t15.5 38.5 t38.5 15.5t38.5 -15.5t15.5 -38.5q0 -22 -15.5 -37.5t-38.5 -15.5zM402 767q-22 0 -37.5 15.5t-15.5 37.5q0 23 15 38.5t38 15.5q24 0 39.5 -15.5t15.5 -38.5t-15.5 -38t-39.5 -15z" unicode="Ӧ"/>
<glyph glyph-name="uni04E7" d="M301 470q-138 0 -138 -207q0 -206 137 -206t137 207q0 206 -136 206zM301 538q109 0 167 -73.5t58 -200.5q0 -124 -59 -199.5t-167 -75.5q-109 0 -167.5 73.5t-58.5 200.5q0 125 59.5 200t167.5 75zM196 648q-23 0 -38.5 15t-15.5 38t15.5 38.5t38.5 15.5t38.5 -15.5 t15.5 -38.5q0 -22 -15.5 -37.5t-38.5 -15.5zM402 648q-22 0 -37.5 15t-15.5 38t15 38.5t38 15.5q24 0 39.5 -15.5t15.5 -38.5t-15.5 -38t-39.5 -15z" unicode="ӧ"/>
<glyph glyph-name="uni04E8" d="M300 61q81 0 120 64.5t42 192.5h-325q6 -257 163 -257zM300 627q-78 0 -117 -60.5t-45 -182.5h323q-5 122 -44 182.5t-117 60.5zM553 344q0 -161 -65.5 -258t-187.5 -97q-123 0 -188 95t-65 258q0 162 65.5 260t187.5 98t187.5 -96.5t65.5 -259.5z" unicode="Ө"/>
<glyph glyph-name="uni04E9" d="M165 234q6 -91 39 -134t96 -43q123 0 135 177h-270zM301 469q-127 0 -136 -167h270q-9 167 -134 167zM301 538q109 0 167 -73.5t58 -200.5q0 -124 -59 -199.5t-167 -75.5q-109 0 -167.5 73.5t-58.5 200.5q0 125 59.5 200t167.5 75z" unicode="ө"/>
<glyph glyph-name="uni04EA" d="M300 61q81 0 120 64.5t42 192.5h-325q6 -257 163 -257zM300 627q-78 0 -117 -60.5t-45 -182.5h323q-5 122 -44 182.5t-117 60.5zM553 344q0 -161 -65.5 -258t-187.5 -97q-123 0 -188 95t-65 258q0 162 65.5 260t187.5 98t187.5 -96.5t65.5 -259.5zM196 767 q-23 0 -38.5 15t-15.5 38t15.5 38.5t38.5 15.5t38.5 -15.5t15.5 -38.5q0 -22 -15.5 -37.5t-38.5 -15.5zM402 767q-22 0 -37.5 15.5t-15.5 37.5q0 23 15 38.5t38 15.5q24 0 39.5 -15.5t15.5 -38.5t-15.5 -38t-39.5 -15z" unicode="Ӫ"/>
<glyph glyph-name="uni04EB" d="M165 234q6 -91 39 -134t96 -43q123 0 135 177h-270zM301 469q-127 0 -136 -167h270q-9 167 -134 167zM301 538q109 0 167 -73.5t58 -200.5q0 -124 -59 -199.5t-167 -75.5q-109 0 -167.5 73.5t-58.5 200.5q0 125 59.5 200t167.5 75zM197 648q-23 0 -38.5 15t-15.5 38 t15.5 38.5t38.5 15.5t38.5 -15.5t15.5 -38.5q0 -22 -15.5 -37.5t-38.5 -15.5zM403 648q-23 0 -38 15t-15 38t15 38.5t38 15.5q24 0 39.5 -15.5t15.5 -38.5t-15.5 -38t-39.5 -15z" unicode="ӫ"/>
<glyph glyph-name="uni04EC" d="M269 700q127 0 198 -88t71 -259q0 -177 -73.5 -270.5t-203.5 -93.5q-133 0 -219 88l52 49q74 -66 162 -66q91 0 139 63t55 195h-304v72h304q-7 127 -53.5 183.5t-131.5 56.5q-52 0 -90 -17t-77 -48l-48 50q98 85 219 85zM185 768q-23 0 -38.5 15t-15.5 38t15.5 38.5 t38.5 15.5t38.5 -15.5t15.5 -38.5q0 -22 -15.5 -37.5t-38.5 -15.5zM391 768q-23 0 -38 15t-15 38t15 38.5t38 15.5q24 0 39.5 -15.5t15.5 -38.5t-15.5 -38t-39.5 -15z" unicode="Ӭ"/>
<glyph glyph-name="uni04ED" d="M278 538q118 0 178 -72.5t60 -199.5t-63 -202t-180 -75q-107 0 -181 63l40 54q66 -48 141 -48q69 0 110 44t47 135h-249v66h248q-15 167 -151 167q-79 0 -142 -47l-39 54q73 61 181 61zM190 648q-23 0 -38.5 15t-15.5 38t15.5 38.5t38.5 15.5t38.5 -15.5t15.5 -38.5 q0 -22 -15.5 -37.5t-38.5 -15.5zM396 648q-22 0 -37.5 15t-15.5 38t15 38.5t38 15.5q24 0 39.5 -15.5t15.5 -38.5t-15.5 -38t-39.5 -15z" unicode="ӭ"/>
<glyph glyph-name="uni04EE" d="M368 179q-38 -90 -90 -133.5t-156 -56.5l-13 68q87 13 123.5 42t58.5 91h-37l-227 498h89l197 -443l180 443h87zM175 795v64h269v-64h-269z" unicode="Ӯ"/>
<glyph glyph-name="uni04EF" d="M353 -3q-32 -91 -85 -145t-149 -64l-13 67q77 13 111 45.5t57 99.5h-28l-184 526h89l152 -463l149 463h86zM165 676v64h269v-64h-269z" unicode="ӯ"/>
<glyph glyph-name="uni04F0" d="M368 179q-38 -90 -90 -133.5t-156 -56.5l-13 68q87 13 123.5 42t58.5 91h-37l-227 498h89l197 -443l180 443h87zM206 767q-23 0 -38.5 15t-15.5 38t15.5 38.5t38.5 15.5t38.5 -15.5t15.5 -38.5q0 -22 -15.5 -37.5t-38.5 -15.5zM412 767q-22 0 -37.5 15.5t-15.5 37.5 q0 23 15 38.5t38 15.5q24 0 39.5 -15.5t15.5 -38.5t-15.5 -38t-39.5 -15z" unicode="Ӱ"/>
<glyph glyph-name="uni04F1" d="M353 -3q-32 -91 -85 -145t-149 -64l-13 67q77 13 111 45.5t57 99.5h-28l-184 526h89l152 -463l149 463h86zM196 648q-23 0 -38.5 15t-15.5 38t15.5 38.5t38.5 15.5t38.5 -15.5t15.5 -38.5q0 -22 -15.5 -37.5t-38.5 -15.5zM402 648q-22 0 -37.5 15t-15.5 38t15 38.5 t38 15.5q24 0 39.5 -15.5t15.5 -38.5t-15.5 -38t-39.5 -15z" unicode="ӱ"/>
<glyph glyph-name="uni04F2" d="M368 179q-38 -90 -90 -133.5t-156 -56.5l-13 68q87 13 123.5 42t58.5 91h-37l-227 498h89l197 -443l180 443h87zM270 954l74 -35l-97 -164l-54 26zM444 954l73 -38l-108 -163l-52 28z" unicode="Ӳ"/>
<glyph glyph-name="uni04F3" d="M353 -3q-32 -91 -85 -145t-149 -64l-13 67q77 13 111 45.5t57 99.5h-28l-184 526h89l152 -463l149 463h86zM254 835l74 -35l-97 -164l-54 26zM428 835l73 -38l-108 -163l-52 28z" unicode="ӳ"/>
<glyph glyph-name="uni04F4" d="M516 688v-688h-85v282q-47 -33 -87 -47.5t-93 -14.5q-90 0 -145 55.5t-55 147.5v265h86v-258q0 -135 135 -135q96 0 159 61v332h85zM185 767q-23 0 -38.5 15t-15.5 38t15.5 38.5t38.5 15.5t38.5 -15.5t15.5 -38.5q0 -22 -15.5 -37.5t-38.5 -15.5zM391 767q-23 0 -38 15.5 t-15 37.5q0 23 15 38.5t38 15.5q24 0 39.5 -15.5t15.5 -38.5t-15.5 -38t-39.5 -15z" unicode="Ӵ"/>
<glyph glyph-name="uni04F5" d="M488 0h-82v223q-66 -59 -166 -59q-76 0 -115 40.5t-39 114.5v207h82v-198q0 -52 22.5 -75t69.5 -23q39 0 80.5 16.5t65.5 43.5v236h82v-526zM183 648q-23 0 -38.5 15t-15.5 38t15.5 38.5t38.5 15.5t38.5 -15.5t15.5 -38.5q0 -22 -15.5 -37.5t-38.5 -15.5zM389 648 q-23 0 -38 15t-15 38t15 38.5t38 15.5q24 0 39.5 -15.5t15.5 -38.5t-15.5 -38t-39.5 -15z" unicode="ӵ"/>
<glyph glyph-name="uni04F6" d="M222 613v-541h59v-219h-68l-15 147h-61v688h407l-9 -75h-313z" unicode="Ӷ"/>
<glyph glyph-name="uni04F7" d="M241 457v-389h82v-215h-69l-15 147h-81v526h366l-10 -69h-273z" unicode="ӷ"/>
<glyph glyph-name="uni04F8" d="M119 367v-298h74q73 0 109.5 35.5t36.5 115.5q0 147 -147 147h-73zM119 432h63q248 0 248 -211q0 -110 -63.5 -165.5t-182.5 -55.5h-153v688h88v-256zM569 0h-88v688h88v-688zM196 767q-23 0 -38.5 15t-15.5 38t15.5 38.5t38.5 15.5t38.5 -15.5t15.5 -38.5 q0 -22 -15.5 -37.5t-38.5 -15.5zM402 767q-22 0 -37.5 15.5t-15.5 37.5q0 23 15 38.5t38 15.5q24 0 39.5 -15.5t15.5 -38.5t-15.5 -38t-39.5 -15z" unicode="Ӹ"/>
<glyph glyph-name="uni04F9" d="M142 293v-228h39q67 0 100.5 25.5t33.5 91.5q0 60 -32 85.5t-102 25.5h-39zM142 355h36q224 0 224 -173q0 -93 -59 -137.5t-165 -44.5h-116v526h80v-171zM538 0h-81v526h81v-526zM196 648q-23 0 -38.5 15t-15.5 38t15.5 38.5t38.5 15.5t38.5 -15.5t15.5 -38.5 q0 -22 -15.5 -37.5t-38.5 -15.5zM402 648q-22 0 -37.5 15t-15.5 38t15 38.5t38 15.5q24 0 39.5 -15.5t15.5 -38.5t-15.5 -38t-39.5 -15z" unicode="ӹ"/>
<glyph glyph-name="uni051C" d="M490 0h-113l-77 505h-4l-78 -505h-116l-97 688h86l71 -585h4l82 505h106l76 -501h4l82 581h79z" unicode="Ԝ"/>
<glyph glyph-name="uni051D" d="M372 0l-68 378h-4l-71 -378h-115l-96 526h85l68 -462h4l80 395h99l75 -393h4l68 460h81l-92 -526h-118z" unicode="ԝ"/>
<glyph glyph-name="uni0524" d="M578 72v-219h-68l-15 147h-64v614h-262v-614h-85v688h432v-616h62z" unicode="Ԥ"/>
<glyph glyph-name="uni0525" d="M574 68v-215h-69l-14 147h-81v458h-233v-458h-83v526h399v-458h81z" unicode="ԥ"/>
<glyph glyph-name="uni0526" d="M601 72v-219h-68l-15 147h-62v235q0 139 -134 139q-90 0 -153 -80v-294h-85v688h85v-310q65 71 172 71q94 0 147 -56.5t53 -156.5v-164h60z" unicode="Ԧ"/>
<glyph glyph-name="uni0527" d="M576 68v-215h-69l-14 147h-81v303q0 60 -22.5 84t-67.5 24q-81 0 -141 -96l-1 3v-318h-83v737l83 10v-354q62 84 165 84q70 0 110 -43.5t40 -118.5v-247h81z" unicode="ԧ"/>
<glyph glyph-name="Wgrave" d="M490 0h-113l-77 505h-4l-78 -505h-116l-97 688h86l71 -585h4l82 505h106l76 -501h4l82 581h79zM416 800l-26 -44l-205 81l46 72z" unicode="Ẁ"/>
<glyph glyph-name="wgrave" d="M372 0l-68 378h-4l-71 -378h-115l-96 526h85l68 -462h4l80 395h99l75 -393h4l68 460h81l-92 -526h-118zM185 715l44 72l185 -117l-27 -46z" unicode="ẁ"/>
<glyph glyph-name="Wacute" d="M490 0h-113l-77 505h-4l-78 -505h-116l-97 688h86l71 -585h4l82 505h106l76 -501h4l82 581h79zM420 834l-213 -78l-22 44l198 105z" unicode="Ẃ"/>
<glyph glyph-name="wacute" d="M372 0l-68 378h-4l-71 -378h-115l-96 526h85l68 -462h4l80 395h99l75 -393h4l68 460h81l-92 -526h-118zM370 785l44 -71l-201 -90l-28 46z" unicode="ẃ"/>
<glyph glyph-name="Wdieresis" d="M490 0h-113l-77 505h-4l-78 -505h-116l-97 688h86l71 -585h4l82 505h106l76 -501h4l82 581h79zM196 767q-23 0 -38.5 15t-15.5 38t15.5 38.5t38.5 15.5t38.5 -15.5t15.5 -38.5q0 -22 -15.5 -37.5t-38.5 -15.5zM402 767q-22 0 -37.5 15.5t-15.5 37.5q0 23 15 38.5t38 15.5 q24 0 39.5 -15.5t15.5 -38.5t-15.5 -38t-39.5 -15z" unicode="Ẅ"/>
<glyph glyph-name="wdieresis" d="M372 0l-68 378h-4l-71 -378h-115l-96 526h85l68 -462h4l80 395h99l75 -393h4l68 460h81l-92 -526h-118zM196 648q-23 0 -38.5 15t-15.5 38t15.5 38.5t38.5 15.5t38.5 -15.5t15.5 -38.5q0 -22 -15.5 -37.5t-38.5 -15.5zM402 648q-22 0 -37.5 15t-15.5 38t15 38.5t38 15.5 q24 0 39.5 -15.5t15.5 -38.5t-15.5 -38t-39.5 -15z" unicode="ẅ"/>
<glyph glyph-name="Ygrave" d="M343 0h-86v265l-233 423h95l183 -345l185 345h89l-233 -422v-266zM419 800l-26 -44l-205 81l46 72z" unicode="Ỳ"/>
<glyph glyph-name="ygrave" d="M353 -3q-32 -91 -85 -145t-149 -64l-13 67q77 13 111 45.5t57 99.5h-28l-184 526h89l152 -463l149 463h86zM185 715l44 72l185 -117l-27 -46z" unicode="ỳ"/>
<glyph glyph-name="uni1F70" d="M261 471q-54 0 -83.5 -55t-29.5 -158q0 -202 109 -202q102 0 143 211q-20 116 -53 160t-86 44zM255 538q70 0 110 -37.5t56 -128.5l27 154h76l-51 -281l26 -136q6 -37 45 -51l-30 -70q-33 5 -59.5 30t-32.5 65l-8 56q-52 -150 -164 -150q-92 0 -141.5 67.5t-49.5 201.5 q0 126 50.5 203t145.5 77zM163 715l44 72l185 -117l-27 -46z" unicode="ὰ"/>
<glyph glyph-name="uni1F71" d="M261 471q-54 0 -83.5 -55t-29.5 -158q0 -202 109 -202q102 0 143 211q-20 116 -53 160t-86 44zM255 538q70 0 110 -37.5t56 -128.5l27 154h76l-51 -281l26 -136q6 -37 45 -51l-30 -70q-33 5 -59.5 30t-32.5 65l-8 56q-52 -150 -164 -150q-92 0 -141.5 67.5t-49.5 201.5 q0 126 50.5 203t145.5 77zM348 785l44 -71l-201 -90l-28 46z" unicode="ά"/>
<glyph glyph-name="uni1F72" d="M301 241q-67 0 -97.5 -20.5t-30.5 -65.5t38 -71.5t104 -26.5q102 0 186 58l45 -56q-94 -70 -236 -70q-100 0 -163.5 43t-63.5 120q0 59 33.5 90t98.5 40q-54 11 -82 41t-28 74q0 67 60 104t151 37q123 0 200 -54l-42 -52q-64 39 -155 39q-128 0 -128 -82q0 -37 31 -58.5 t84 -21.5h95l-10 -68h-90zM201 715l44 72l185 -117l-27 -46z" unicode="ὲ"/>
<glyph glyph-name="uni1F73" d="M301 241q-67 0 -97.5 -20.5t-30.5 -65.5t38 -71.5t104 -26.5q102 0 186 58l45 -56q-94 -70 -236 -70q-100 0 -163.5 43t-63.5 120q0 59 33.5 90t98.5 40q-54 11 -82 41t-28 74q0 67 60 104t151 37q123 0 200 -54l-42 -52q-64 39 -155 39q-128 0 -128 -82q0 -37 31 -58.5 t84 -21.5h95l-10 -68h-90zM386 785l44 -71l-201 -90l-28 46z" unicode="έ"/>
<glyph glyph-name="uni1F74" d="M351 538q149 0 149 -156v-584l-83 -10v532q0 87 -17 119.5t-75 32.5q-41 0 -79.5 -26.5t-62.5 -61.5v-384h-83v354q0 84 -27 173l78 11q17 -31 24 -88q33 42 80.5 65t95.5 23zM184 715l44 72l185 -117l-27 -46z" unicode="ὴ"/>
<glyph glyph-name="uni1F75" d="M351 538q149 0 149 -156v-584l-83 -10v532q0 87 -17 119.5t-75 32.5q-41 0 -79.5 -26.5t-62.5 -61.5v-384h-83v354q0 84 -27 173l78 11q17 -31 24 -88q33 42 80.5 65t95.5 23zM369 785l44 -71l-201 -90l-28 46z" unicode="ή"/>
<glyph glyph-name="uni1F76" d="M63 456l10 70h251v-396q0 -72 87 -72q42 0 89 18l22 -60q-46 -27 -125 -27q-71 0 -113.5 40t-42.5 110v317h-178zM169 715l44 72l185 -117l-27 -46z" unicode="ὶ"/>
<glyph glyph-name="uni1F77" d="M63 456l10 70h251v-396q0 -72 87 -72q42 0 89 18l22 -60q-46 -27 -125 -27q-71 0 -113.5 40t-42.5 110v317h-178zM354 785l44 -71l-201 -90l-28 46z" unicode="ί"/>
<glyph glyph-name="uni1F78" d="M301 470q-138 0 -138 -207q0 -206 137 -206t137 207q0 206 -136 206zM301 538q109 0 167 -73.5t58 -200.5q0 -124 -59 -199.5t-167 -75.5q-109 0 -167.5 73.5t-58.5 200.5q0 125 59.5 200t167.5 75zM185 715l44 72l185 -117l-27 -46z" unicode="ὸ"/>
<glyph glyph-name="uni1F79" d="M301 470q-138 0 -138 -207q0 -206 137 -206t137 207q0 206 -136 206zM301 538q109 0 167 -73.5t58 -200.5q0 -124 -59 -199.5t-167 -75.5q-109 0 -167.5 73.5t-58.5 200.5q0 125 59.5 200t167.5 75zM370 785l44 -71l-201 -90l-28 46z" unicode="ό"/>
<glyph glyph-name="uni1F7A" d="M499 526q26 -143 26 -271q0 -131 -69.5 -198.5t-167.5 -67.5q-83 0 -133.5 44t-50.5 128v365h83v-358q0 -111 104 -111q62 0 106 47.5t44 158.5q0 125 -26 263h84zM185 715l44 72l185 -117l-27 -46z" unicode="ὺ"/>
<glyph glyph-name="uni1F7B" d="M499 526q26 -143 26 -271q0 -131 -69.5 -198.5t-167.5 -67.5q-83 0 -133.5 44t-50.5 128v365h83v-358q0 -111 104 -111q62 0 106 47.5t44 158.5q0 125 -26 263h84zM370 785l44 -71l-201 -90l-28 46z" unicode="ύ"/>
<glyph glyph-name="uni1F7C" d="M523 526q51 -135 51 -287q0 -118 -39 -184t-114 -66q-107 0 -122 116q-24 -116 -122 -116q-151 0 -151 250q0 162 50 287h74q-41 -129 -41 -266q0 -103 16.5 -153t59.5 -50q75 0 75 174v126l80 11v-138q0 -84 16 -128.5t58 -44.5q43 0 60 50t17 153q0 127 -44 266h76z M185 715l44 72l185 -117l-27 -46z" unicode="ὼ"/>
<glyph glyph-name="uni1F7D" d="M523 526q51 -135 51 -287q0 -118 -39 -184t-114 -66q-107 0 -122 116q-24 -116 -122 -116q-151 0 -151 250q0 162 50 287h74q-41 -129 -41 -266q0 -103 16.5 -153t59.5 -50q75 0 75 174v126l80 11v-138q0 -84 16 -128.5t58 -44.5q43 0 60 50t17 153q0 127 -44 266h76z M370 785l44 -71l-201 -90l-28 46z" unicode="ώ"/>
<glyph glyph-name="uni1FB0" d="M261 471q-54 0 -83.5 -55t-29.5 -158q0 -202 109 -202q102 0 143 211q-20 116 -53 160t-86 44zM255 538q70 0 110 -37.5t56 -128.5l27 154h76l-51 -281l26 -136q6 -37 45 -51l-30 -70q-33 5 -59.5 30t-32.5 65l-8 56q-52 -150 -164 -150q-92 0 -141.5 67.5t-49.5 201.5 q0 126 50.5 203t145.5 77zM276 630q-63 0 -101.5 41.5t-45.5 93.5l57 13q24 -84 90 -84q68 0 93 84l57 -13q-7 -52 -46.5 -93.5t-103.5 -41.5z" unicode="ᾰ"/>
<glyph glyph-name="uni1FB1" d="M261 471q-54 0 -83.5 -55t-29.5 -158q0 -202 109 -202q102 0 143 211q-20 116 -53 160t-86 44zM255 538q70 0 110 -37.5t56 -128.5l27 154h76l-51 -281l26 -136q6 -37 45 -51l-30 -70q-33 5 -59.5 30t-32.5 65l-8 56q-52 -150 -164 -150q-92 0 -141.5 67.5t-49.5 201.5 q0 126 50.5 203t145.5 77zM143 676v64h269v-64h-269z" unicode="ᾱ"/>
<glyph glyph-name="uni1FB6" d="M261 471q-54 0 -83.5 -55t-29.5 -158q0 -202 109 -202q102 0 143 211q-20 116 -53 160t-86 44zM255 538q70 0 110 -37.5t56 -128.5l27 154h76l-51 -281l26 -136q6 -37 45 -51l-30 -70q-33 5 -59.5 30t-32.5 65l-8 56q-52 -150 -164 -150q-92 0 -141.5 67.5t-49.5 201.5 q0 126 50.5 203t145.5 77zM329 652q-32 0 -64.5 24.5t-44.5 24.5q-26 0 -51 -44l-54 24q37 84 111 84q33 0 65 -24t44 -24q26 0 51 44l54 -24q-39 -85 -111 -85z" unicode="ᾶ"/>
<glyph glyph-name="uni1FB8" d="M161 176l-56 -176h-84l224 688h110l224 -688h-90l-55 176h-273zM412 247l-114 369l-115 -369h229zM298 759q-58 0 -99.5 32.5t-47.5 86.5l57 12q24 -67 90 -67q69 0 93 67l57 -12q-6 -54 -48.5 -86.5t-101.5 -32.5z" unicode="Ᾰ"/>
<glyph glyph-name="uni1FB9" d="M161 176l-56 -176h-84l224 688h110l224 -688h-90l-55 176h-273zM412 247l-114 369l-115 -369h229zM165 795v64h269v-64h-269z" unicode="Ᾱ"/>
<glyph glyph-name="uni1FBA" d="M161 176l-56 -176h-84l224 688h110l224 -688h-90l-55 176h-273zM412 247l-114 369l-115 -369h229zM416 800l-26 -44l-205 81l46 72z" unicode="Ὰ"/>
<glyph glyph-name="uni1FBB" d="M161 176l-56 -176h-84l224 688h110l224 -688h-90l-55 176h-273zM412 247l-114 369l-115 -369h229zM420 834l-213 -78l-22 44l198 105z" unicode="Ά"/>
<glyph glyph-name="uni1FC0" d="M351 652q-32 0 -64.5 24.5t-44.5 24.5q-26 0 -51 -44l-54 24q37 84 111 84q33 0 65 -24t44 -24q26 0 51 44l54 -24q-39 -85 -111 -85z" unicode="῀"/>
<glyph glyph-name="uni1FC6" d="M351 538q149 0 149 -156v-584l-83 -10v532q0 87 -17 119.5t-75 32.5q-41 0 -79.5 -26.5t-62.5 -61.5v-384h-83v354q0 84 -27 173l78 11q17 -31 24 -88q33 42 80.5 65t95.5 23zM350 652q-32 0 -64.5 24.5t-44.5 24.5q-26 0 -51 -44l-54 24q37 84 111 84q33 0 65 -24 t44 -24q26 0 51 44l54 -24q-39 -85 -111 -85z" unicode="ῆ"/>
<glyph glyph-name="uni1FC8" d="M212 385h255v-71h-255v-245h313v-69h-399v688h390l-10 -70h-294v-233zM437 800l-26 -44l-205 81l46 72z" unicode="Ὲ"/>
<glyph glyph-name="uni1FC9" d="M212 385h255v-71h-255v-245h313v-69h-399v688h390l-10 -70h-294v-233zM441 834l-213 -78l-22 44l198 105z" unicode="Έ"/>
<glyph glyph-name="uni1FCA" d="M431 328h-262v-328h-85v688h85v-291h262v291h85v-688h-85v328zM416 800l-26 -44l-205 81l46 72z" unicode="Ὴ"/>
<glyph glyph-name="uni1FCB" d="M431 328h-262v-328h-85v688h85v-291h262v291h85v-688h-85v328zM420 834l-213 -78l-22 44l198 105z" unicode="Ή"/>
<glyph glyph-name="uni1FD0" d="M63 456l10 70h251v-396q0 -72 87 -72q42 0 89 18l22 -60q-46 -27 -125 -27q-71 0 -113.5 40t-42.5 110v317h-178zM282 630q-63 0 -101.5 41.5t-45.5 93.5l57 13q24 -84 90 -84q68 0 93 84l57 -13q-7 -52 -46.5 -93.5t-103.5 -41.5z" unicode="ῐ"/>
<glyph glyph-name="uni1FD1" d="M63 456l10 70h251v-396q0 -72 87 -72q42 0 89 18l22 -60q-46 -27 -125 -27q-71 0 -113.5 40t-42.5 110v317h-178zM149 676v64h269v-64h-269z" unicode="ῑ"/>
<glyph glyph-name="uni1FD2" d="M63 456l10 70h251v-396q0 -72 87 -72q42 0 89 18l22 -60q-46 -27 -125 -27q-71 0 -113.5 40t-42.5 110v317h-178zM183 755q22 0 37 -15t15 -37t-15 -37t-37 -15q-23 0 -38 15t-15 37q0 23 15 37.5t38 14.5zM384 755q23 0 38 -15t15 -37t-15.5 -37t-37.5 -15t-37 15 t-15 37t15 37t37 15zM401 829l-25 -42l-206 87l37 68z" unicode="ῒ"/>
<glyph glyph-name="uni1FD3" d="M63 456l10 70h251v-396q0 -72 87 -72q42 0 89 18l22 -60q-46 -27 -125 -27q-71 0 -113.5 40t-42.5 110v317h-178zM183 755q22 0 37 -15t15 -37t-15 -37t-37 -15t-37.5 15t-15.5 37t15 37t38 15zM384 755q23 0 38 -14.5t15 -37.5q0 -22 -15 -37t-38 -15q-22 0 -37 15 t-15 37t15 37t37 15zM397 874l-206 -87l-25 42l194 113z" unicode="ΐ"/>
<glyph glyph-name="uni1FD6" d="M63 456l10 70h251v-396q0 -72 87 -72q42 0 89 18l22 -60q-46 -27 -125 -27q-71 0 -113.5 40t-42.5 110v317h-178zM335 652q-32 0 -64.5 24.5t-44.5 24.5q-26 0 -51 -44l-54 24q37 84 111 84q33 0 65 -24t44 -24q26 0 51 44l54 -24q-39 -85 -111 -85z" unicode="ῖ"/>
<glyph glyph-name="uni1FD7" d="M63 456l10 70h251v-396q0 -72 87 -72q42 0 89 18l22 -60q-46 -27 -125 -27q-71 0 -113.5 40t-42.5 110v317h-178zM180 648q-23 0 -38.5 15t-15.5 38t15.5 38.5t38.5 15.5t38.5 -15.5t15.5 -38.5q0 -22 -15.5 -37.5t-38.5 -15.5zM386 648q-22 0 -37.5 15t-15.5 38t15 38.5 t38 15.5q24 0 39.5 -15.5t15.5 -38.5t-15.5 -38t-39.5 -15zM335 825q-32 0 -64.5 24.5t-44.5 24.5q-26 0 -51 -44l-54 24q37 84 111 84q33 0 65 -24t44 -24q26 0 51 44l54 -24q-39 -85 -111 -85z" unicode="ῗ"/>
<glyph glyph-name="uni1FD8" d="M497 620h-154v-551h154v-69h-394v69h154v551h-154v68h394v-68zM298 759q-58 0 -99.5 32.5t-47.5 86.5l57 12q24 -67 90 -67q69 0 93 67l57 -12q-6 -54 -48.5 -86.5t-101.5 -32.5z" unicode="Ῐ"/>
<glyph glyph-name="uni1FD9" d="M497 620h-154v-551h154v-69h-394v69h154v551h-154v68h394v-68zM165 795v64h269v-64h-269z" unicode="Ῑ"/>
<glyph glyph-name="uni1FDA" d="M497 620h-154v-551h154v-69h-394v69h154v551h-154v68h394v-68zM416 800l-26 -44l-205 81l46 72z" unicode="Ὶ"/>
<glyph glyph-name="uni1FDB" d="M497 620h-154v-551h154v-69h-394v69h154v551h-154v68h394v-68zM420 834l-213 -78l-22 44l198 105z" unicode="Ί"/>
<glyph glyph-name="uni1FE0" d="M499 526q26 -143 26 -271q0 -131 -69.5 -198.5t-167.5 -67.5q-83 0 -133.5 44t-50.5 128v365h83v-358q0 -111 104 -111q62 0 106 47.5t44 158.5q0 125 -26 263h84zM298 630q-63 0 -101.5 41.5t-45.5 93.5l57 13q24 -84 90 -84q68 0 93 84l57 -13q-7 -52 -46.5 -93.5 t-103.5 -41.5z" unicode="ῠ"/>
<glyph glyph-name="uni1FE1" d="M499 526q26 -143 26 -271q0 -131 -69.5 -198.5t-167.5 -67.5q-83 0 -133.5 44t-50.5 128v365h83v-358q0 -111 104 -111q62 0 106 47.5t44 158.5q0 125 -26 263h84zM165 676v64h269v-64h-269z" unicode="ῡ"/>
<glyph glyph-name="uni1FE2" d="M499 526q26 -143 26 -271q0 -131 -69.5 -198.5t-167.5 -67.5q-83 0 -133.5 44t-50.5 128v365h83v-358q0 -111 104 -111q62 0 106 47.5t44 158.5q0 125 -26 263h84zM199 755q22 0 37 -15t15 -37t-15 -37t-37 -15q-23 0 -38 15t-15 37q0 23 15 37.5t38 14.5zM400 755 q23 0 38 -15t15 -37t-15.5 -37t-37.5 -15t-37 15t-15 37t15 37t37 15zM417 829l-25 -42l-206 87l37 68z" unicode="ῢ"/>
<glyph glyph-name="uni1FE3" d="M499 526q26 -143 26 -271q0 -131 -69.5 -198.5t-167.5 -67.5q-83 0 -133.5 44t-50.5 128v365h83v-358q0 -111 104 -111q62 0 106 47.5t44 158.5q0 125 -26 263h84zM199 755q22 0 37 -15t15 -37t-15 -37t-37 -15t-37.5 15t-15.5 37t15 37t38 15zM400 755q23 0 38 -14.5 t15 -37.5q0 -22 -15 -37t-38 -15q-22 0 -37 15t-15 37t15 37t37 15zM413 874l-206 -87l-25 42l194 113z" unicode="ΰ"/>
<glyph glyph-name="uni1FE6" d="M499 526q26 -143 26 -271q0 -131 -69.5 -198.5t-167.5 -67.5q-83 0 -133.5 44t-50.5 128v365h83v-358q0 -111 104 -111q62 0 106 47.5t44 158.5q0 125 -26 263h84zM351 652q-32 0 -64.5 24.5t-44.5 24.5q-26 0 -51 -44l-54 24q37 84 111 84q33 0 65 -24t44 -24 q26 0 51 44l54 -24q-39 -85 -111 -85z" unicode="ῦ"/>
<glyph glyph-name="uni1FE7" d="M499 526q26 -143 26 -271q0 -131 -69.5 -198.5t-167.5 -67.5q-83 0 -133.5 44t-50.5 128v365h83v-358q0 -111 104 -111q62 0 106 47.5t44 158.5q0 125 -26 263h84zM196 648q-23 0 -38.5 15t-15.5 38t15.5 38.5t38.5 15.5t38.5 -15.5t15.5 -38.5q0 -22 -15.5 -37.5 t-38.5 -15.5zM402 648q-22 0 -37.5 15t-15.5 38t15 38.5t38 15.5q24 0 39.5 -15.5t15.5 -38.5t-15.5 -38t-39.5 -15zM351 825q-32 0 -64.5 24.5t-44.5 24.5q-26 0 -51 -44l-54 24q37 84 111 84q33 0 65 -24t44 -24q26 0 51 44l54 -24q-39 -85 -111 -85z" unicode="ῧ"/>
<glyph glyph-name="uni1FE8" d="M343 0h-86v265l-233 423h95l183 -345l185 345h89l-233 -422v-266zM301 759q-58 0 -99.5 32.5t-47.5 86.5l57 12q24 -67 90 -67q69 0 93 67l57 -12q-6 -54 -48.5 -86.5t-101.5 -32.5z" unicode="Ῠ"/>
<glyph glyph-name="uni1FE9" d="M343 0h-86v265l-233 423h95l183 -345l185 345h89l-233 -422v-266zM168 795v64h269v-64h-269z" unicode="Ῡ"/>
<glyph glyph-name="uni1FEA" d="M343 0h-86v265l-233 423h95l183 -345l185 345h89l-233 -422v-266zM419 800l-26 -44l-205 81l46 72z" unicode="Ὺ"/>
<glyph glyph-name="uni1FEB" d="M343 0h-86v265l-233 423h95l183 -345l185 345h89l-233 -422v-266zM423 834l-213 -78l-22 44l198 105z" unicode="Ύ"/>
<glyph glyph-name="uni1FF6" d="M523 526q51 -135 51 -287q0 -118 -39 -184t-114 -66q-107 0 -122 116q-24 -116 -122 -116q-151 0 -151 250q0 162 50 287h74q-41 -129 -41 -266q0 -103 16.5 -153t59.5 -50q75 0 75 174v126l80 11v-138q0 -84 16 -128.5t58 -44.5q43 0 60 50t17 153q0 127 -44 266h76z M351 652q-32 0 -64.5 24.5t-44.5 24.5q-26 0 -51 -44l-54 24q37 84 111 84q33 0 65 -24t44 -24q26 0 51 44l54 -24q-39 -85 -111 -85z" unicode="ῶ"/>
<glyph glyph-name="uni1FF8" d="M464 344q0 141 -39 212t-125 71t-125 -71.5t-39 -213.5q0 -281 164 -281q85 0 124.5 71t39.5 212zM553 344q0 -161 -65.5 -258t-187.5 -97q-123 0 -188 95t-65 258q0 162 65.5 260t187.5 98t187.5 -96.5t65.5 -259.5zM416 800l-26 -44l-205 81l46 72z" unicode="Ὸ"/>
<glyph glyph-name="uni1FF9" d="M464 344q0 141 -39 212t-125 71t-125 -71.5t-39 -213.5q0 -281 164 -281q85 0 124.5 71t39.5 212zM553 344q0 -161 -65.5 -258t-187.5 -97q-123 0 -188 95t-65 258q0 162 65.5 260t187.5 98t187.5 -96.5t65.5 -259.5zM420 834l-213 -78l-22 44l198 105z" unicode="Ό"/>
<glyph glyph-name="uni1FFA" d="M300 628q-82 0 -123 -66t-41 -213q0 -221 130 -285v-64h-208v69h112v4q-123 64 -123 276q0 167 68 259t185 92t185 -92t68 -259q0 -208 -125 -276v-4h114v-69h-207v64q129 64 129 285q0 146 -41 212.5t-123 66.5zM416 800l-26 -44l-205 81l46 72z" unicode="Ὼ"/>
<glyph glyph-name="uni1FFB" d="M300 628q-82 0 -123 -66t-41 -213q0 -221 130 -285v-64h-208v69h112v4q-123 64 -123 276q0 167 68 259t185 92t185 -92t68 -259q0 -208 -125 -276v-4h114v-69h-207v64q129 64 129 285q0 146 -41 212.5t-123 66.5zM420 834l-213 -78l-22 44l198 105z" unicode="Ώ"/>
<glyph glyph-name="uni2007" unicode=" "/>
<glyph glyph-name="uni2008" unicode=" "/>
<glyph glyph-name="zerowidthspace" horiz-adv-x="0" unicode="​"/>
<glyph glyph-name="figuredash" d="M35 348h530v-72h-530v72z" unicode="‒"/>
<glyph glyph-name="endash" d="M33 349h534v-72h-534v72z" unicode="–"/>
<glyph glyph-name="emdash" d="M0 349h600v-72h-600v72z" unicode="—"/>
<glyph glyph-name="uni2015" d="M33 389h534v-72h-534v72z" unicode="―"/>
<glyph glyph-name="underscoredbl" d="M607 -215h-614v79h614v-79zM607 -79h-614v79h614v-79z" unicode="‗"/>
<glyph glyph-name="quoteleft" d="M368 551q0 -31 -22 -52t-54 -21q-31 0 -52.5 21t-21.5 52q0 29 17 65l82 173h65l-40 -184q26 -18 26 -54z" unicode="‘"/>
<glyph glyph-name="quoteright" d="M231 716q0 30 22.5 51.5t53.5 21.5t53 -21t22 -52q0 -27 -18 -65l-82 -173h-65l40 184q-26 18 -26 54z" unicode="’"/>
<glyph glyph-name="quotesinglbase" d="M231 56q0 30 22.5 51.5t52.5 21.5q32 0 54 -21t22 -52q0 -27 -18 -65l-82 -173h-65l40 184q-26 18 -26 54z" unicode="‚"/>
<glyph glyph-name="quotedblleft" d="M260 551q0 -31 -22 -52t-53 -21q-32 0 -53.5 21t-21.5 52q0 29 17 65l81 173h66l-40 -184q26 -18 26 -54zM476 551q0 -30 -22.5 -51.5t-53.5 -21.5t-52.5 21t-21.5 52q0 29 17 65l82 173h65l-40 -184q26 -18 26 -54z" unicode="“"/>
<glyph glyph-name="quotedblright" d="M123 715q0 30 22.5 51.5t52.5 21.5q32 0 54 -21t22 -52q0 -24 -19 -65l-81 -173h-65l39 183q-25 20 -25 55zM339 715q0 30 22.5 51.5t52.5 21.5q32 0 54 -21t22 -52q0 -27 -18 -65l-82 -173h-65l40 183q-26 20 -26 55z" unicode="”"/>
<glyph glyph-name="quotedblbase" d="M124 56q0 30 22.5 51.5t53.5 21.5t53 -21t22 -52q0 -27 -18 -65l-82 -173h-65l40 184q-26 18 -26 54zM339 56q0 30 22.5 51.5t52.5 21.5q32 0 53.5 -21t21.5 -52q0 -29 -17 -65l-82 -173h-65l40 184q-26 18 -26 54z" unicode="„"/>
<glyph glyph-name="dagger" d="M340 520h169v-70h-169v-450h-80v450h-169v70h169v157h80v-157z" unicode="†"/>
<glyph glyph-name="daggerdbl" d="M340 512h169v-70h-169v-211h169v-70h-169v-161h-80v161h-169v70h169v211h-169v70h169v165h80v-165z" unicode="‡"/>
<glyph glyph-name="bullet" d="M300 221q-52 0 -86.5 34.5t-34.5 86.5t34 86t87 34q52 0 86.5 -34t34.5 -87q0 -52 -34 -86t-87 -34z" unicode="•"/>
<glyph glyph-name="ellipsis" d="M32 57q0 28 19.5 47.5t47.5 19.5q29 0 48.5 -19.5t19.5 -47.5q0 -29 -19.5 -48.5t-48.5 -19.5q-28 0 -47.5 19.5t-19.5 48.5zM232 57q0 28 20 47.5t48 19.5t47.5 -19.5t19.5 -47.5q0 -29 -19.5 -48.5t-47.5 -19.5t-48 19.5t-20 48.5zM433 57q0 28 19.5 47.5t47.5 19.5 q29 0 48.5 -19.5t19.5 -47.5q0 -29 -19.5 -48.5t-48.5 -19.5q-28 0 -47.5 19.5t-19.5 48.5z" unicode="…"/>
<glyph glyph-name="perthousand" d="M175 207q-63 0 -63 -84q0 -88 63 -88t63 88q0 84 -63 84zM452 207q-64 0 -64 -84q0 -88 64 -88q63 0 63 88q0 84 -63 84zM175 258q56 0 93 -37t37 -98q0 -62 -36.5 -98.5t-93.5 -36.5t-93.5 36t-36.5 99q0 61 36.5 98t93.5 37zM452 258q56 0 92.5 -37t36.5 -98 q0 -62 -36.5 -98.5t-92.5 -36.5q-58 0 -94.5 36.5t-36.5 98.5q0 61 37 98t94 37zM575 472l-531 -209l-25 56l532 210zM176 649q-63 0 -63 -84q0 -88 63 -88t63 88q0 84 -63 84zM176 700q56 0 92.5 -37t36.5 -98q0 -62 -36.5 -99t-92.5 -37q-58 0 -94.5 36.5t-36.5 99.5 q0 61 37 98t94 37z" unicode="‰"/>
<glyph glyph-name="guilsinglleft" d="M362 56l-173 207v60l173 209l49 -31l-134 -207l134 -207z" unicode="‹"/>
<glyph glyph-name="guilsinglright" d="M189 501l49 31l173 -209v-60l-173 -207l-49 31l134 207z" unicode="›"/>
<glyph glyph-name="fraction" horiz-adv-x="0" unicode="⁄" d="M-282 237l535 256l29 -53l-534 -256z"/>
<glyph glyph-name="zerosuperior" d="M378 476q0 106 -78 106q-80 0 -80 -106q0 -52 21 -80.5t59 -28.5q78 0 78 109zM453 476q0 -72 -40 -119.5t-113 -47.5t-114 48t-41 119q0 72 40.5 119t114.5 47q73 0 113 -47t40 -119z" unicode="⁰"/>
<glyph glyph-name="foursuperior" d="M397 315h-72v56h-179v48l136 227l61 -25l-115 -191h97l6 86h66v-86h56v-59h-56v-56z" unicode="⁴"/>
<glyph glyph-name="fivesuperior" d="M444 424q0 -56 -40 -85.5t-104 -29.5q-89 0 -144 55l44 39q43 -37 98 -37q72 0 72 58q0 53 -63 53q-35 0 -66 -17h-55v176h243l-7 -59h-165v-63q33 15 70 15q53 0 85 -27.5t32 -77.5z" unicode="⁵"/>
<glyph glyph-name="sixsuperior" d="M318 478q-50 0 -97 -41q24 -69 86 -69q34 0 53 15.5t19 40.5q0 54 -61 54zM392 566q-33 17 -78 17q-91 0 -95 -99q50 43 113 43q50 0 85 -26t35 -75q0 -53 -42 -85t-103 -32q-76 0 -117.5 47t-41.5 122q0 70 43 117t123 47q65 0 113 -29z" unicode="⁶"/>
<glyph glyph-name="sevensuperior" d="M206 337l156 240h-202v59h280v-49l-164 -280z" unicode="⁷"/>
<glyph glyph-name="eightsuperior" d="M384 410q0 20 -26 30t-82 20q-60 -17 -60 -51q0 -41 83 -41q39 0 62 12t23 30zM231 557q0 -17 18.5 -26.5t65.5 -17.5q30 9 42.5 18t12.5 25q0 13 -18 22.5t-52 9.5t-51.5 -9t-17.5 -22zM441 559q0 -61 -70 -68q87 -26 87 -82q0 -45 -43 -72.5t-116 -27.5 q-74 0 -115.5 27t-41.5 71q0 57 80 76q-62 17 -62 74q0 37 39.5 61t100.5 24q64 0 102.5 -24t38.5 -59z" unicode="⁸"/>
<glyph glyph-name="ninesuperior" d="M292 483q44 0 90 23q-2 77 -84 77q-36 0 -56.5 -13.5t-20.5 -38.5q0 -48 71 -48zM184 366q90 12 135 32.5t63 63.5q-62 -33 -109 -33q-54 0 -90 26t-36 75q0 51 44 81.5t108 30.5q74 0 115 -36.5t41 -100.5q0 -91 -61 -136t-192 -59z" unicode="⁹"/>
<glyph glyph-name="plussuperior" d="M333 512h85v-62h-85v-89h-65v89h-86v62h86v90h65v-90z" unicode="⁺"/>
<glyph glyph-name="uni207B" d="M416 448h-232v62h232v-62z" unicode="⁻"/>
<glyph glyph-name="equalsuperior" d="M416 390h-233v62h233v-62zM416 510h-233v62h233v-62z" unicode="⁼"/>
<glyph glyph-name="parenleftsuperior" d="M299 474q0 -75 17 -123t61 -116l-46 -26q-54 72 -78.5 127t-24.5 138q0 84 24.5 139.5t78.5 127.5l46 -27q-44 -68 -61 -116t-17 -124z" unicode="⁽"/>
<glyph glyph-name="parenrightsuperior" d="M301 474q0 76 -17 124t-61 116l46 27q54 -72 78.5 -127.5t24.5 -139.5q0 -83 -24.5 -138t-78.5 -127l-46 26q44 68 61 116t17 123z" unicode="⁾"/>
<glyph glyph-name="nsuperior" d="M332 723q101 0 101 -103v-242h-71v204q0 48 -9 66t-38 18q-41 0 -76 -47v-241h-71v338h63l3 -30q45 37 98 37z" unicode="ⁿ"/>
<glyph glyph-name="zeroinferior" d="M378 -32q0 106 -78 106q-80 0 -80 -106q0 -52 21 -80.5t59 -28.5q78 0 78 109zM453 -32q0 -72 -40 -119.5t-113 -47.5t-114 48t-41 119q0 72 40.5 119t114.5 47q73 0 113 -47t40 -119z" unicode="₀"/>
<glyph glyph-name="oneinferior" d="M365 46l-96 -52l-35 49l144 85h56v-321h-69v239z" unicode="₁"/>
<glyph glyph-name="twoinferior" d="M435 28q0 -47 -35.5 -79.5t-133.5 -81.5h179l-9 -60h-277v52q131 80 165.5 107.5t34.5 58.5q0 23 -15.5 36t-43.5 13q-56 0 -95 -49l-51 38q60 71 148 71q63 0 98 -29t35 -77z" unicode="₂"/>
<glyph glyph-name="threeinferior" d="M308 134q60 0 95 -24t35 -65q0 -28 -16 -44t-55 -23q45 -7 65 -24t20 -52q0 -46 -41 -73.5t-113 -27.5q-93 0 -151 58l46 38q46 -40 108 -40q76 0 76 47t-72 47h-46l8 43h34q64 0 64 41q0 44 -62 44q-54 0 -105 -38l-38 41q63 52 148 52z" unicode="₃"/>
<glyph glyph-name="fourinferior" d="M397 -193h-72v56h-179v48l136 227l61 -25l-115 -191h97l6 86h66v-86h56v-59h-56v-56z" unicode="₄"/>
<glyph glyph-name="fiveinferior" d="M444 -84q0 -56 -40 -85.5t-104 -29.5q-89 0 -144 55l44 39q43 -37 98 -37q72 0 72 58q0 53 -63 53q-35 0 -66 -17h-55v176h243l-7 -59h-165v-63q33 15 70 15q53 0 85 -27.5t32 -77.5z" unicode="₅"/>
<glyph glyph-name="sixinferior" d="M318 -30q-50 0 -97 -41q24 -69 86 -69q34 0 53 15.5t19 40.5q0 54 -61 54zM392 58q-33 17 -78 17q-91 0 -95 -99q50 43 113 43q50 0 85 -26t35 -75q0 -53 -42 -85t-103 -32q-76 0 -117.5 47t-41.5 122q0 70 43 117t123 47q65 0 113 -29z" unicode="₆"/>
<glyph glyph-name="seveninferior" d="M206 -171l156 240h-202v59h280v-49l-164 -280z" unicode="₇"/>
<glyph glyph-name="eightinferior" d="M384 -98q0 20 -26 30t-82 20q-60 -17 -60 -51q0 -41 83 -41q39 0 62 12t23 30zM231 49q0 -17 18.5 -26.5t65.5 -17.5q30 9 42.5 18t12.5 25q0 13 -18 22.5t-52 9.5t-51.5 -9t-17.5 -22zM441 51q0 -61 -70 -68q87 -26 87 -82q0 -45 -43 -72.5t-116 -27.5q-74 0 -115.5 27 t-41.5 71q0 57 80 76q-62 17 -62 74q0 37 39.5 61t100.5 24q64 0 102.5 -24t38.5 -59z" unicode="₈"/>
<glyph glyph-name="nineinferior" d="M292 -25q44 0 90 23q-2 77 -84 77q-36 0 -56.5 -13.5t-20.5 -38.5q0 -48 71 -48zM184 -142q90 12 135 32.5t63 63.5q-62 -33 -109 -33q-54 0 -90 26t-36 75q0 51 44 81.5t108 30.5q74 0 115 -36.5t41 -100.5q0 -91 -61 -136t-192 -59z" unicode="₉"/>
<glyph glyph-name="uni208A" d="M333 4h85v-62h-85v-89h-65v89h-86v62h86v90h65v-90z" unicode="₊"/>
<glyph glyph-name="uni208B" d="M416 -60h-232v62h232v-62z" unicode="₋"/>
<glyph glyph-name="uni208C" d="M416 -118h-233v62h233v-62zM416 2h-233v62h233v-62z" unicode="₌"/>
<glyph glyph-name="uni208D" d="M292 -34q0 -75 17 -123.5t62 -115.5l-47 -26q-54 72 -78.5 127t-24.5 138q0 84 24.5 139.5t78.5 127.5l47 -27q-45 -68 -62 -116t-17 -124z" unicode="₍"/>
<glyph glyph-name="uni208E" d="M307 -34q0 76 -17 124t-62 116l47 27q54 -72 78.5 -127.5t24.5 -139.5q0 -83 -24.5 -138t-78.5 -127l-47 26q45 67 62 115.5t17 123.5z" unicode="₎"/>
<glyph glyph-name="Euro" d="M381 700q90 0 159 -46l-42 -60q-52 34 -114 34q-140 0 -166 -176h246l-14 -58h-238v-92h218l-14 -59h-201q12 -95 51.5 -139t112.5 -44q82 0 141 51v-86q-59 -36 -144 -36q-104 0 -167 65t-80 189h-94l15 59h72l1 92h-88l14 58h82q21 118 88.5 183t161.5 65z" unicode="€"/>
<glyph glyph-name="uni2113" d="M347 688q-40 0 -57 -39t-17 -121v-148q64 29 96 101t32 137q0 36 -12.5 53t-41.5 17zM348 749q63 0 98 -35.5t35 -92.5q0 -35 -11.5 -76.5t-34.5 -86t-65.5 -83t-96.5 -59.5v-76q0 -60 6.5 -98t19.5 -55.5t27 -23t36 -5.5q42 0 85 25l22 -60q-56 -34 -110 -34 q-37 0 -65.5 12t-52.5 39.5t-37 80t-13 127.5v41q-63 -15 -107 -22l-10 58q71 13 117 26v175q0 223 157 223z" unicode="ℓ"/>
<glyph glyph-name="uni2116" d="M576 0h-245v69h245v-69zM302 0h-108l-110 589h-4q11 -121 11 -240v-349h-63v688h110l108 -592h4q-11 110 -11 244v348h63v-688zM453 644q-29 0 -40.5 -39.5t-11.5 -124.5q0 -86 11.5 -125.5t40.5 -39.5q30 0 41 39t11 126q0 85 -11.5 124.5t-40.5 39.5zM453 701 q130 0 130 -221q0 -222 -130 -222q-132 0 -132 222q0 221 132 221z" unicode="№"/>
<glyph glyph-name="trademark" d="M579 298h-60l-10 233q-2 42 -2 67q0 21 1 31h-3l-47 -294h-65l-57 294h-3q0 -8 0.5 -24t0.5 -24t-0.5 -24.5t-0.5 -24.5l-9 -234h-57l14 335h-107v-335h-62v335h-99v55h361l52 -281l43 281h95z" unicode="™"/>
<glyph glyph-name="estimated" d="M303 662q-98 0 -152 -42v-247h299v246q-53 43 -147 43zM302 701q127 0 195.5 -64.5t85.5 -168.5v-134h-432v-261q57 -47 154 -47q139 0 193 97h49q-68 -135 -243 -135q-123 0 -193.5 61.5t-89.5 164.5v254q17 104 85.5 168.5t195.5 64.5z" unicode="℮"/>
<glyph glyph-name="uni2153" d="M467 327q60 0 95 -24t35 -65q0 -28 -16 -44t-55 -23q45 -7 65 -24t20 -52q0 -46 -41 -73.5t-113 -27.5q-93 0 -150 58l45 38q47 -40 108 -40q76 0 76 47t-71 47h-47l8 43h34q64 0 64 41q0 44 -61 44q-55 0 -105 -38l-39 41q63 52 148 52zM2 237l535 256l30 -53l-534 -256 zM120 607l-96 -52l-35 49l144 85h56v-321h-69v239z" unicode="⅓"/>
<glyph glyph-name="uni2154" d="M497 327q60 0 95 -24t35 -65q0 -28 -16 -44t-55 -23q45 -7 65 -24t20 -52q0 -46 -41 -73.5t-113 -27.5q-93 0 -151 58l46 38q46 -40 108 -40q76 0 76 47t-72 47h-46l8 43h34q64 0 64 41q0 44 -62 44q-54 0 -105 -38l-38 41q63 52 148 52zM33 237l535 256l29 -53 l-534 -256zM240 589q0 -47 -35.5 -79.5t-133.5 -81.5h179l-9 -60h-277v52q131 80 165.5 107.5t34.5 58.5q0 23 -15.5 36t-43.5 13q-56 0 -95 -49l-51 38q60 71 148 71q63 0 98 -29t35 -77z" unicode="⅔"/>
<glyph glyph-name="uni2155" d="M619 109q0 -56 -40 -85.5t-105 -29.5q-89 0 -144 55l45 39q42 -37 98 -37q71 0 71 58q0 53 -63 53q-34 0 -66 -17h-54v176h242l-6 -59h-165v-63q33 15 70 15q53 0 85 -27.5t32 -77.5zM-16 237l535 256l30 -53l-534 -256zM114 607l-96 -52l-35 49l144 85h56v-321h-69v239z " unicode="⅕"/>
<glyph glyph-name="uni2156" d="M647 109q0 -56 -40 -85.5t-105 -29.5q-89 0 -144 55l45 39q42 -37 97 -37q72 0 72 58q0 53 -63 53q-34 0 -66 -17h-55v176h243l-7 -59h-165v-63q33 15 71 15q53 0 85 -27.5t32 -77.5zM15 237l535 256l30 -53l-534 -256zM234 589q0 -47 -35.5 -79.5t-133.5 -81.5h179 l-9 -60h-277v52q131 80 165.5 107.5t34.5 58.5q0 23 -15.5 36t-43.5 13q-56 0 -95 -49l-51 38q60 71 148 71q63 0 98 -29t35 -77z" unicode="⅖"/>
<glyph glyph-name="uni2157" d="M626 109q0 -56 -40 -85.5t-104 -29.5q-89 0 -144 55l44 39q43 -37 98 -37q72 0 72 58q0 53 -63 53q-35 0 -66 -17h-55v176h243l-7 -59h-165v-63q33 15 70 15q53 0 85 -27.5t32 -77.5zM133 695q60 0 95 -24t35 -65q0 -28 -16 -44t-55 -23q45 -7 65 -24t20 -52 q0 -46 -41 -73.5t-113 -27.5q-93 0 -151 58l46 38q46 -40 108 -40q76 0 76 47t-72 47h-46l8 43h34q64 0 64 41q0 44 -62 44q-54 0 -105 -38l-38 41q63 52 148 52zM-5 237l535 256l29 -53l-534 -256z" unicode="⅗"/>
<glyph glyph-name="uni2158" d="M636 109q0 -56 -40.5 -85.5t-104.5 -29.5q-89 0 -144 55l45 39q42 -37 97 -37q72 0 72 58q0 53 -63 53q-34 0 -66 -17h-55v176h243l-7 -59h-165v-63q33 15 70 15q53 0 85.5 -27.5t32.5 -77.5zM9 237l535 256l29 -53l-534 -256zM215 368h-72v56h-179v48l136 227l61 -25 l-115 -191h97l6 86h66v-86h56v-59h-56v-56z" unicode="⅘"/>
<glyph glyph-name="uni2159" d="M455 163q-49 0 -96 -41q11 -32 29.5 -50.5t55.5 -18.5q34 0 53 15.5t19 40.5q0 54 -61 54zM529 251q-33 17 -78 17q-91 0 -94 -99q48 43 112 43q50 0 85 -26t35 -75q0 -53 -42 -85t-102 -32q-77 0 -118.5 47t-41.5 122q0 70 43.5 117t123.5 47q64 0 112 -29zM10 237 l535 256l30 -53l-534 -256zM142 607l-96 -52l-35 49l144 85h56v-321h-69v239z" unicode="⅙"/>
<glyph glyph-name="uni215A" d="M460 163q-50 0 -97 -41q24 -69 86 -69q34 0 53 15.5t19 40.5q0 54 -61 54zM534 251q-33 17 -78 17q-91 0 -95 -99q50 43 112 43q51 0 86 -26t35 -75q0 -53 -42 -85t-103 -32q-76 0 -117.5 47t-41.5 122q0 70 43 117t123 47q65 0 112 -29zM295 477q0 -56 -40 -85.5 t-104 -29.5q-89 0 -144 55l44 39q43 -37 98 -37q72 0 72 58q0 53 -63 53q-35 0 -66 -17h-55v176h243l-7 -59h-165v-63q33 15 70 15q53 0 85 -27.5t32 -77.5zM12 237l535 256l30 -53l-534 -256z" unicode="⅚"/>
<glyph glyph-name="oneeighth" d="M538 95q0 20 -26 30t-82 20q-60 -17 -60 -51q0 -41 83 -41q39 0 62 12t23 30zM385 242q0 -17 18.5 -26.5t65.5 -17.5q30 9 42.5 18t12.5 25q0 13 -18 22.5t-52 9.5t-51.5 -9t-17.5 -22zM595 244q0 -61 -70 -68q87 -26 87 -82q0 -45 -43 -72.5t-116 -27.5q-74 0 -115.5 27 t-41.5 71q0 57 80 76q-62 17 -62 74q0 37 39.5 61t100.5 24q64 0 102.5 -24t38.5 -59zM-2 237l535 256l29 -53l-534 -256zM120 607l-96 -52l-35 49l144 85h56v-321h-69v239z" unicode="⅛"/>
<glyph glyph-name="threeeighths" d="M541 95q0 20 -26 30t-82 20q-60 -17 -60 -51q0 -41 83 -41q39 0 62 12t23 30zM388 242q0 -17 18.5 -26.5t65.5 -17.5q30 9 42.5 18t12.5 25q0 13 -18 22.5t-52 9.5t-51.5 -9t-17.5 -22zM598 244q0 -61 -71 -68q45 -13 66.5 -32.5t21.5 -49.5q0 -45 -43 -72.5t-116 -27.5 q-74 0 -115.5 27t-41.5 71q0 57 80 76q-62 17 -62 74q0 37 39.5 61t100.5 24q64 0 102.5 -24t38.5 -59zM147 695q60 0 95 -24t35 -65q0 -28 -16 -44t-55 -23q45 -7 65 -24t20 -52q0 -46 -41 -73.5t-113 -27.5q-93 0 -151 58l46 38q46 -40 108 -40q76 0 76 47t-72 47h-46 l8 43h34q64 0 64 41q0 44 -62 44q-54 0 -105 -38l-38 41q63 52 148 52zM3 237l535 256l30 -53l-534 -256z" unicode="⅜"/>
<glyph glyph-name="fiveeighths" d="M531 95q0 20 -26 30t-82 20q-60 -17 -60 -51q0 -41 83 -41q39 0 62 12t23 30zM378 242q0 -17 18.5 -26.5t65.5 -17.5q30 9 42.5 18t12.5 25q0 13 -18 22.5t-52 9.5t-51.5 -9t-17.5 -22zM588 244q0 -61 -71 -68q45 -13 66.5 -32.5t21.5 -49.5q0 -45 -43 -72.5t-116 -27.5 q-74 0 -115.5 27t-41.5 71q0 57 80 76q-62 17 -62 74q0 37 39.5 61t100.5 24q64 0 102.5 -24t38.5 -59zM287 477q0 -56 -40 -85.5t-104 -29.5q-89 0 -144 55l44 39q43 -37 98 -37q72 0 72 58q0 53 -63 53q-35 0 -66 -17h-55v176h243l-7 -59h-165v-63q33 15 70 15 q53 0 85 -27.5t32 -77.5zM-6 237l535 256l30 -53l-534 -256z" unicode="⅝"/>
<glyph glyph-name="seveneighths" d="M531 95q0 20 -26 30t-82 20q-60 -17 -60 -51q0 -41 83 -41q39 0 62 12t23 30zM378 242q0 -17 18.5 -26.5t65.5 -17.5q30 9 42.5 18t12.5 25q0 13 -18 22.5t-52 9.5t-51.5 -9t-17.5 -22zM588 244q0 -61 -70 -68q87 -26 87 -82q0 -45 -43 -72.5t-116 -27.5q-74 0 -115.5 27 t-41.5 71q0 57 80 76q-62 17 -62 74q0 37 39.5 61t100.5 24q64 0 102.5 -24t38.5 -59zM-5 237l535 256l29 -53l-534 -256zM96 389l156 240h-202v59h280v-49l-164 -280z" unicode="⅞"/>
<glyph glyph-name="onefraction" d="M19 237l535 256l29 -53l-534 -256zM148 607l-96 -52l-35 49l144 85h56v-321h-69v239z" unicode="⅟"/>
<glyph glyph-name="arrowleft" d="M356 581l-144 -158q-21 -24 -32 -34t-31 -23h428v-74h-428q30 -19 63 -57l144 -158l-62 -52l-271 304l271 304z" unicode="←"/>
<glyph glyph-name="arrowup" d="M612 388l-50 -56l-162 149q-41 36 -59 70v-551h-82v551q-20 -36 -59 -70l-162 -149l-50 56l312 279z" unicode="↑"/>
<glyph glyph-name="arrowright" d="M577 329l-271 -304l-62 52l144 158q33 38 63 57h-428v74h428q-20 13 -31 23t-32 34l-144 158l62 52z" unicode="→"/>
<glyph glyph-name="arrowdown" d="M341 80q18 34 59 70l162 149l50 -56l-312 -279l-312 279l50 56l162 -149q39 -34 59 -70v551h82v-551z" unicode="↓"/>
<glyph glyph-name="uni2194" d="M430 52l-62 53l116 130q32 37 64 57h-496q28 -18 64 -57l119 -130l-62 -53l-247 277l248 276l62 -52l-120 -130q-23 -26 -33 -35t-30 -22h494q-20 13 -30 22t-33 35l-118 130l62 52l246 -276z" unicode="↔"/>
<glyph glyph-name="arrowupdn" d="M612 586l-50 -56l-162 149q-41 36 -59 69v-816q18 33 59 69l162 149l50 -56l-312 -279l-312 279l50 56l162 -148q41 -37 59 -71v818q-18 -34 -59 -71l-162 -148l-50 56l312 279z" unicode="↕"/>
<glyph glyph-name="uni2196" d="M124 464q9 -46 9 -79q0 -3 -0.5 -11t-0.5 -11l-13 -206l-80 5l22 416l408 22l4 -77l-190 -10q-12 -1 -31 -1q-32 0 -73 8l382 -386l-56 -55z" unicode="↖"/>
<glyph glyph-name="uni2197" d="M39 134l382 386q-41 -8 -73 -8q-19 0 -31 1l-190 10l4 77l408 -22l22 -416l-80 -5l-13 206q0 3 -0.5 11t-0.5 11q0 33 9 79l-381 -385z" unicode="↗"/>
<glyph glyph-name="uni2198" d="M476 179q-9 47 -9 80q0 3 0.5 11t0.5 11l13 205l80 -4l-22 -417l-408 -22l-4 77l190 10q14 1 36 1q27 0 68 -7l-382 385l56 56z" unicode="↘"/>
<glyph glyph-name="uni2199" d="M561 509l-382 -385q41 7 68 7q22 0 36 -1l190 -10l-4 -77l-408 22l-22 417l80 4l13 -205q0 -3 0.5 -11t0.5 -11q0 -33 -9 -80l381 386z" unicode="↙"/>
<glyph glyph-name="arrowleftwhite" d="M24 313l189 -191v111h383v160h-383v111zM258 437h332q22 0 36 -13.5t14 -36.5v-148q0 -23 -14 -36.5t-36 -13.5h-332v-176l-298 300l298 300v-176z" unicode="⇦"/>
<glyph glyph-name="arrowupwhite" d="M109 579h107v-547h168v547h107l-191 189zM600 534h-169v-496q0 -22 -13.5 -36t-36.5 -14h-162q-23 0 -36.5 14t-13.5 36v496h-169l300 298z" unicode="⇧"/>
<glyph glyph-name="arrowrightwhite" d="M387 393h-383v-160h383v-111l189 191l-189 191v-111zM640 313l-298 -300v176h-332q-22 0 -36 13.5t-14 36.5v148q0 23 14 36.5t36 13.5h332v176z" unicode="⇨"/>
<glyph glyph-name="arrowdownwhite" d="M216 706v-547h-107l191 -189l191 189h-107v547h-168zM381 750q23 0 36.5 -14t13.5 -36v-496h169l-300 -298l-300 298h169v496q0 22 13.5 36t36.5 14h162z" unicode="⇩"/>
<glyph glyph-name="capslock" d="M216 113v-81h168v81h-168zM431 38q0 -22 -13.5 -36t-36.5 -14h-162q-23 0 -36.5 14t-13.5 36v117h262v-117zM109 579h107v-282h168v282h107l-191 189zM600 534h-169v-279h-262v279h-169l300 298z" unicode="⇪"/>
<glyph glyph-name="partialdiff" d="M289 363q-50 0 -82.5 -39.5t-32.5 -109.5q0 -72 33.5 -115t88.5 -43q63 0 97 49.5t35 147.5v24q-63 86 -139 86zM165 696q186 -51 266 -149t80 -289q0 -119 -57.5 -194t-154.5 -75q-88 0 -148.5 59.5t-60.5 160.5q0 97 54.5 158.5t134.5 61.5q91 0 145 -79 q-5 104 -77.5 176t-201.5 107z" unicode="∂"/>
<glyph glyph-name="product" d="M573 618h-87v-820l-83 -10v830h-205v-820l-82 -10v830h-89v70h546v-70z" unicode="∏"/>
<glyph glyph-name="summation" d="M497 616h-298l198 -240v-61l-198 -243h298v-72h-396v73l226 271l-226 271v73h396v-72z" unicode="∑"/>
<glyph glyph-name="minus" d="M484 275h-368v75h368v-75z" unicode="−"/>
<glyph glyph-name="divisionslash" horiz-adv-x="0" unicode="∕" d="M-282 237l535 256l29 -53l-534 -256z"/>
<glyph glyph-name="bulletoperator" d="M212 342q0 37 25 62t62 25q38 0 63 -25t25 -62q0 -38 -25 -63t-63 -25q-37 0 -62 25t-25 63z" unicode="∙"/>
<glyph glyph-name="radical" d="M694 795h-183l-221 -795h-93l-167 456l72 25l139 -392l212 777h241v-71z" unicode="√"/>
<glyph glyph-name="infinity" d="M451 443q-17 0 -32 -8.5t-25.5 -19.5t-22 -32t-18 -36t-16.5 -41q1 -3 7.5 -16.5t9 -18.5t9 -17.5t11 -18t11.5 -15t13.5 -14.5t15 -10.5t18 -7.5t19.5 -2q71 0 71 129q0 128 -71 128zM148 445q-72 0 -72 -129t72 -129q21 0 37.5 10.5t31.5 34.5t23 41t22 52 q-1 3 -7.5 16.5t-9 18.5t-9 17.5t-11 18t-11.5 15t-13.5 14.5t-15 10.5t-18 7.5t-19.5 2zM453 512q79 0 115.5 -54t36.5 -143t-36.5 -142.5t-112.5 -53.5q-53 0 -90 32t-65 99q-29 -62 -65 -96.5t-90 -34.5q-79 0 -115.5 54t-36.5 143t36.5 142.5t112.5 53.5q52 0 88.5 -32 t66.5 -99q30 63 65.5 97t89.5 34z" unicode="∞"/>
<glyph glyph-name="intersection" d="M300 574q94 0 160 -66t66 -160v-305h-72v305q0 63 -45.5 108.5t-108.5 45.5t-108.5 -45.5t-45.5 -108.5v-305h-72v305q0 94 66 160t160 66z" unicode="∩"/>
<glyph glyph-name="integral" d="M400 851q62 0 122 -27l-27 -62q-43 20 -91 20q-40 0 -56 -19t-16 -58v-779q0 -69 -36 -103.5t-103 -34.5q-54 0 -115 26l27 62q42 -19 83 -19q64 0 64 70v778q0 73 39 109.5t109 36.5z" unicode="∫"/>
<glyph glyph-name="approxequal" d="M226 281q44 0 91 -28t63 -28q37 0 67 50l58 -30q-45 -86 -131 -86q-44 0 -91 28t-63 28q-38 0 -67 -51l-58 30q46 87 131 87zM226 470q44 0 91 -28.5t63 -28.5q38 0 67 51l58 -30q-46 -87 -131 -87q-44 0 -91 28t-63 28q-38 0 -67 -51l-58 31q46 87 131 87z" unicode="≈"/>
<glyph glyph-name="notequal" d="M364 370l-69 -118h199v-72h-242l-89 -151l-47 26l74 125h-84v72h127l70 118h-197v72h240l90 152l46 -25l-75 -127h87v-72h-130z" unicode="≠"/>
<glyph glyph-name="equivalence" d="M494 86h-388v72h388v-72zM494 276h-388v72h388v-72zM494 466h-388v71h388v-71z" unicode="≡"/>
<glyph glyph-name="lessequal" d="M474 0h-368v73h368v-73zM492 478l-321 -139l321 -127l-34 -70l-351 154v89l351 161z" unicode="≤"/>
<glyph glyph-name="greaterequal" d="M493 0h-368v73h368v-73zM492 385v-89l-351 -154l-34 67l321 130l-321 137l34 70z" unicode="≥"/>
<glyph glyph-name="house" d="M110 277v-212h380v212l-191 171zM560 308v-308h-520v308l259 231z" unicode="⌂"/>
<glyph glyph-name="revlogicalnot" d="M484 276h-292v-141h-76v212h368v-71z" unicode="⌐"/>
<glyph glyph-name="integraltp" d="M400 851q62 0 122 -27l-27 -62q-43 20 -91 20q-40 0 -56 -19t-16 -58v-1205h-80v1205q0 73 39 109.5t109 36.5z" unicode="⌠"/>
<glyph glyph-name="integralbt" d="M332 -74q0 -69 -36 -103.5t-103 -34.5q-54 0 -115 26l27 62q42 -19 83 -19q64 0 64 70v1073h80v-1074z" unicode="⌡"/>
<glyph glyph-name="deleterightKey" d="M220 422l-134 135l-67 -69l134 -133l-134 -134l67 -67l134 134l134 -134l67 67l-134 134l134 133l-67 69zM740 352l-340 -324h-430q-22 0 -36 14t-14 36v545q0 23 14 36.5t36 13.5h430z" unicode="⌦"/>
<glyph glyph-name="clear" d="M300 422l-134 135l-67 -69l134 -133l-134 -134l67 -67l134 134l134 -134l67 67l-134 134l134 133l-67 69zM630 673q22 0 36 -13.5t14 -36.5v-545q0 -22 -14 -36t-36 -14h-660q-22 0 -36 14t-14 36v545q0 23 14 36.5t36 13.5h660z" unicode="⌧"/>
<glyph glyph-name="uni2328" d="M99 223q-8 0 -14 -6t-6 -14v-74q0 -8 6 -14t14 -6h436q8 0 14 6t6 14v74q0 8 -6 14t-14 6h-436zM45 388q-8 0 -14 -6t-6 -14v-74q0 -8 6 -14t14 -6h74q8 0 14 6t6 14v74q0 8 -6 14t-14 6h-74zM217 388q-8 0 -14 -6t-6 -14v-74q0 -8 6 -14t14 -6h74q8 0 14 6t6 14v74 q0 8 -6 14t-14 6h-74zM389 388q-8 0 -14 -6t-6 -14v-74q0 -8 6 -14t14 -6h74q8 0 14 6t6 14v74q0 8 -6 14t-14 6h-74zM5 558q-8 0 -14 -6t-6 -14v-74q0 -8 6 -14t14 -6h74q8 0 14 6t6 14v74q0 8 -6 14t-14 6h-74zM177 558q-8 0 -14 -6t-6 -14v-74q0 -8 6 -14t14 -6h74 q8 0 14 6t6 14v74q0 8 -6 14t-14 6h-74zM349 558q-8 0 -14 -6t-6 -14v-74q0 -8 6 -14t14 -6h74q8 0 14 6t6 14v74q0 8 -6 14t-14 6h-74zM530 558q-8 0 -14 -6t-6 -14v-74q0 -8 6 -14t14 -6t14 -6t6 -14v-130q0 -8 6 -14t14 -6h54q8 0 14 6t6 14v244q0 8 -6 14t-14 6h-94z M655 633q23 0 36.5 -13.5t13.5 -36.5v-495q0 -22 -13.5 -36t-36.5 -14h-680q-23 0 -36.5 14t-13.5 36v495q0 23 13.5 36.5t36.5 13.5h680z" unicode="⌨"/>
<glyph glyph-name="uni232B" d="M380 422l-134 135l-67 -69l134 -133l-134 -134l67 -67l134 134l134 -134l67 67l-134 134l134 133l-67 69zM630 673q22 0 36 -13.5t14 -36.5v-545q0 -22 -14 -36t-36 -14h-430l-340 324l340 321h430z" unicode="⌫"/>
<glyph glyph-name="uni23CE" d="M416 706v-313h-193v111l-189 -191l189 -191v111h361v473h-168zM580 750q22 0 36 -14t14 -36v-461q0 -23 -14 -36.5t-36 -13.5h-312v-174l-298 298l298 299v-174h103v262q0 22 13.5 36t36.5 14h159z" unicode="⏎"/>
<glyph glyph-name="uni2500" d="M605 310h-610v80h610v-80z" unicode="─"/>
<glyph glyph-name="uni2501" d="M605 230h-610v240h610v-240z" unicode="━"/>
<glyph glyph-name="uni2502" d="M340 -500h-80v1500h80v-1500z" unicode="│"/>
<glyph glyph-name="uni2503" d="M420 -500h-240v1500h240v-1500z" unicode="┃"/>
<glyph glyph-name="uni250C" d="M605 310h-265v-810h-80v890h345v-80z" unicode="┌"/>
<glyph glyph-name="uni250D" d="M605 230h-265v-730h-80v970h345v-240z" unicode="┍"/>
<glyph glyph-name="uni250E" d="M605 310h-185v-810h-240v890h425v-80z" unicode="┎"/>
<glyph glyph-name="uni250F" d="M605 230h-185v-730h-240v970h425v-240z" unicode="┏"/>
<glyph glyph-name="uni2510" d="M340 -500h-80v810h-265v80h345v-890z" unicode="┐"/>
<glyph glyph-name="uni2511" d="M340 -500h-80v730h-265v240h345v-970z" unicode="┑"/>
<glyph glyph-name="uni2512" d="M420 -500h-240v810h-185v80h425v-890z" unicode="┒"/>
<glyph glyph-name="uni2513" d="M420 -500h-240v730h-185v240h425v-970z" unicode="┓"/>
<glyph glyph-name="uni2514" d="M340 390h265v-80h-345v690h80v-610z" unicode="└"/>
<glyph glyph-name="uni2515" d="M340 470h265v-240h-345v770h80v-530z" unicode="┕"/>
<glyph glyph-name="uni2516" d="M420 390h185v-80h-425v690h240v-610z" unicode="┖"/>
<glyph glyph-name="uni2517" d="M420 470h185v-240h-425v770h240v-530z" unicode="┗"/>
<glyph glyph-name="uni2518" d="M340 310h-345v80h265v610h80v-690z" unicode="┘"/>
<glyph glyph-name="uni2519" d="M340 230h-345v240h265v530h80v-770z" unicode="┙"/>
<glyph glyph-name="uni251A" d="M420 310h-425v80h185v610h240v-690z" unicode="┚"/>
<glyph glyph-name="uni251B" d="M420 230h-425v240h185v530h240v-770z" unicode="┛"/>
<glyph glyph-name="uni251C" d="M340 390h265v-80h-265v-810h-80v1500h80v-610z" unicode="├"/>
<glyph glyph-name="uni251D" d="M340 470h265v-240h-265v-730h-80v1500h80v-530z" unicode="┝"/>
<glyph glyph-name="uni251E" d="M420 390h185v-80h-265v-810h-80v810h-80v690h240v-610z" unicode="┞"/>
<glyph glyph-name="uni251F" d="M340 390h265v-80h-185v-810h-240v890h80v610h80v-610z" unicode="┟"/>
<glyph glyph-name="uni2520" d="M420 390h185v-80h-185v-810h-240v1500h240v-610z" unicode="┠"/>
<glyph glyph-name="uni2521" d="M420 470h185v-240h-265v-730h-80v730h-80v770h240v-530z" unicode="┡"/>
<glyph glyph-name="uni2522" d="M340 470h265v-240h-185v-730h-240v970h80v530h80v-530z" unicode="┢"/>
<glyph glyph-name="uni2523" d="M420 470h185v-240h-185v-730h-240v1500h240v-530z" unicode="┣"/>
<glyph glyph-name="uni2524" d="M340 -500h-80v810h-265v80h265v610h80v-1500z" unicode="┤"/>
<glyph glyph-name="uni2525" d="M340 -500h-80v730h-265v240h265v530h80v-1500z" unicode="┥"/>
<glyph glyph-name="uni2526" d="M420 310h-80v-810h-80v810h-265v80h185v610h240v-690z" unicode="┦"/>
<glyph glyph-name="uni2527" d="M340 390h80v-890h-240v810h-185v80h265v610h80v-610z" unicode="┧"/>
<glyph glyph-name="uni2528" d="M420 -500h-240v810h-185v80h185v610h240v-1500z" unicode="┨"/>
<glyph glyph-name="uni2529" d="M420 230h-80v-730h-80v730h-265v240h185v530h240v-770z" unicode="┩"/>
<glyph glyph-name="uni252A" d="M340 470h80v-970h-240v730h-185v240h265v530h80v-530z" unicode="┪"/>
<glyph glyph-name="uni252B" d="M420 -500h-240v730h-185v240h185v530h240v-1500z" unicode="┫"/>
<glyph glyph-name="uni252C" d="M605 310h-265v-810h-80v810h-265v80h610v-80z" unicode="┬"/>
<glyph glyph-name="uni252D" d="M340 390h265v-80h-265v-810h-80v730h-265v240h345v-80z" unicode="┭"/>
<glyph glyph-name="uni252E" d="M605 230h-265v-730h-80v810h-265v80h265v80h345v-240z" unicode="┮"/>
<glyph glyph-name="uni252F" d="M605 230h-265v-730h-80v730h-265v240h610v-240z" unicode="┯"/>
<glyph glyph-name="uni2530" d="M605 310h-185v-810h-240v810h-185v80h610v-80z" unicode="┰"/>
<glyph glyph-name="uni2531" d="M420 390h185v-80h-185v-810h-240v730h-185v240h425v-80z" unicode="┱"/>
<glyph glyph-name="uni2532" d="M605 230h-185v-730h-240v810h-185v80h185v80h425v-240z" unicode="┲"/>
<glyph glyph-name="uni2533" d="M605 230h-185v-730h-240v730h-185v240h610v-240z" unicode="┳"/>
<glyph glyph-name="uni2534" d="M340 390h265v-80h-610v80h265v610h80v-610z" unicode="┴"/>
<glyph glyph-name="uni2535" d="M340 390h265v-80h-265v-80h-345v240h265v530h80v-610z" unicode="┵"/>
<glyph glyph-name="uni2536" d="M340 470h265v-240h-345v80h-265v80h265v610h80v-530z" unicode="┶"/>
<glyph glyph-name="uni2537" d="M340 470h265v-240h-610v240h265v530h80v-530z" unicode="┷"/>
<glyph glyph-name="uni2538" d="M420 390h185v-80h-610v80h185v610h240v-610z" unicode="┸"/>
<glyph glyph-name="uni2539" d="M420 390h185v-80h-185v-80h-425v240h185v530h240v-610z" unicode="┹"/>
<glyph glyph-name="uni253A" d="M420 470h185v-240h-425v80h-185v80h185v610h240v-530z" unicode="┺"/>
<glyph glyph-name="uni253B" d="M420 470h185v-240h-610v240h185v530h240v-530z" unicode="┻"/>
<glyph glyph-name="uni253C" d="M340 390h265v-80h-265v-810h-80v810h-265v80h265v610h80v-610z" unicode="┼"/>
<glyph glyph-name="uni253D" d="M340 390h265v-80h-265v-810h-80v730h-265v240h265v530h80v-610z" unicode="┽"/>
<glyph glyph-name="uni253E" d="M340 470h265v-240h-265v-730h-80v810h-265v80h265v610h80v-530z" unicode="┾"/>
<glyph glyph-name="uni253F" d="M340 470h265v-240h-265v-730h-80v730h-265v240h265v530h80v-530z" unicode="┿"/>
<glyph glyph-name="uni2540" d="M420 390h185v-80h-265v-810h-80v810h-265v80h185v610h240v-610z" unicode="╀"/>
<glyph glyph-name="uni2541" d="M340 390h265v-80h-185v-810h-240v810h-185v80h265v610h80v-610z" unicode="╁"/>
<glyph glyph-name="uni2542" d="M420 390h185v-80h-185v-810h-240v810h-185v80h185v610h240v-610z" unicode="╂"/>
<glyph glyph-name="uni2543" d="M420 390h185v-80h-185v-80h-80v-730h-80v730h-265v240h185v530h240v-610z" unicode="╃"/>
<glyph glyph-name="uni2544" d="M420 470h185v-240h-265v-730h-80v730h-80v80h-185v80h185v610h240v-530z" unicode="╄"/>
<glyph glyph-name="uni2545" d="M340 470h80v-80h185v-80h-185v-810h-240v730h-185v240h265v530h80v-530z" unicode="╅"/>
<glyph glyph-name="uni2546" d="M340 470h265v-240h-185v-730h-240v810h-185v80h185v80h80v530h80v-530z" unicode="╆"/>
<glyph glyph-name="uni2547" d="M420 470h185v-240h-265v-730h-80v730h-265v240h185v530h240v-530z" unicode="╇"/>
<glyph glyph-name="uni2548" d="M340 470h265v-240h-185v-730h-240v730h-185v240h265v530h80v-530z" unicode="╈"/>
<glyph glyph-name="uni2549" d="M420 390h185v-80h-185v-810h-240v730h-185v240h185v530h240v-610z" unicode="╉"/>
<glyph glyph-name="uni254A" d="M420 470h185v-240h-185v-730h-240v810h-185v80h185v610h240v-530z" unicode="╊"/>
<glyph glyph-name="uni254B" d="M420 470h185v-240h-185v-730h-240v730h-185v240h185v530h240v-530z" unicode="╋"/>
<glyph glyph-name="uni254C" d="M260 310h-265v80h265v-80zM605 310h-265v80h265v-80z" unicode="╌"/>
<glyph glyph-name="uni254D" d="M180 230h-185v240h185v-240zM605 230h-185v240h185v-240z" unicode="╍"/>
<glyph glyph-name="uni254E" d="M340 -500h-80v810h80v-810zM340 390h-80v610h80v-610z" unicode="╎"/>
</font>
</defs>
</svg>
